<svg xmlns="http://www.w3.org/2000/svg" xmlns:xlink="http://www.w3.org/1999/xlink" version="1.1" data-diagram-type="STATE" style="width:1689px;height:1723px;background:#FFFFFF;" width="1689px" height="1723px" viewBox="0 0 1689 1723" zoomAndPan="magnify" preserveAspectRatio="none" contentStyleType="text/css"><?plantuml 1.2026.8?><defs/><g font-family="sans-serif" lengthAdjust="spacing"><g class="title" data-source-line="65"><text x="534.751" y="24.966" fill="#000" font-size="14" textLength="613.197" font-weight="700" font-family="monospace">UART RTS/CTS — the handshake as firmware, and the invariant it guarantees</text></g><g class="entity" data-qualified-name="init" id="ent0001" data-source-line="74"><rect x="322.8" y="1150.768" width="288.799" height="115.34" fill="#EEF3FB" style="stroke:#4A6FA5;stroke-width:0.5;" rx="12.5" ry="12.5"/><line x1="322.8" y1="1256.108" x2="611.599" y2="1256.108" style="stroke:#4A6FA5;stroke-width:0.5;"/><text x="332.8" y="1170.734" fill="#16324F" font-size="14" textLength="33.6" font-family="monospace">init</text><text x="332.8" y="1189.802" fill="#16324F" font-size="14" textLength="184.799" font-family="monospace">LDI A, UTX / OUT TXPIN</text><text x="332.8" y="1208.87" fill="#16324F" font-size="14" textLength="226.799" font-family="monospace">TX idles HIGH, RTS RELEASED</text><text x="332.8" y="1227.938" fill="#16324F" font-size="14" textLength="268.799" font-family="monospace">(bits 4 and 8..: 8 payloads live</text><text x="332.8" y="1247.006" fill="#16324F" font-size="14" textLength="251.999" font-family="monospace">in dmem[8], dmem[9], dmem[10])</text></g><g class="entity" data-qualified-name="main" id="ent0002" data-source-line="75"><rect x="333.2" y="1327.108" width="187.999" height="77.204" fill="#F0F3F7" style="stroke:#6B7686;stroke-width:0.5;" rx="12.5" ry="12.5"/><line x1="333.2" y1="1394.312" x2="521.199" y2="1394.312" style="stroke:#6B7686;stroke-width:0.5;"/><text x="343.2" y="1347.074" fill="#1F2933" font-size="14" textLength="33.6" font-family="monospace">main</text><text x="343.2" y="1366.142" fill="#1F2933" font-size="14" textLength="167.999" font-family="monospace">LDM A,2 (bytes sent)</text><text x="343.2" y="1385.21" fill="#1F2933" font-size="14" textLength="142.799" font-family="monospace">SUB A,3 / JZ done</text></g><g class="entity" data-qualified-name="rts" id="ent0003" data-source-line="76"><rect x="511.4" y="1483.308" width="305.599" height="115.34" fill="#FDF2E9" style="stroke:#A04000;stroke-width:0.5;" rx="12.5" ry="12.5"/><line x1="511.4" y1="1588.648" x2="816.999" y2="1588.648" style="stroke:#A04000;stroke-width:0.5;"/><text x="521.4" y="1503.274" fill="#5A2400" font-size="14" textLength="134.399" font-family="monospace">ASSERT RTS FIRST</text><text x="521.4" y="1522.342" fill="#5A2400" font-size="14" textLength="218.399" font-family="monospace">LDI A, RTS|UTX / OUT TXPIN</text><text x="521.4" y="1541.41" fill="#5A2400" font-size="14" textLength="285.599" font-family="monospace">the line is still idle, so nothing</text><text x="521.4" y="1560.478" fill="#5A2400" font-size="14" textLength="201.599" font-family="monospace">has been transmitted yet</text><text x="521.4" y="1579.546" fill="#5A2400" font-size="14" textLength="117.599" font-family="monospace">dmem[4] = 0x10</text></g><g class="entity" data-qualified-name="wait" id="ent0004" data-source-line="77"><rect x="390.2" y="95.388" width="355.999" height="134.408" fill="#D2E3F0" style="stroke:#24506E;stroke-width:0.5;" rx="12.5" ry="12.5"/><line x1="390.2" y1="219.795" x2="746.199" y2="219.795" style="stroke:#24506E;stroke-width:0.5;"/><text x="400.2" y="115.354" fill="#12303F" font-size="14" textLength="268.799" font-family="monospace">wait_cts — A POLL, NOT A TIMEOUT</text><text x="400.2" y="134.422" fill="#12303F" font-size="14" textLength="277.199" font-family="monospace">IN A,PIN / AND A,CTS / JNZ cts_go</text><text x="400.2" y="153.49" fill="#12303F" font-size="14" textLength="302.399" font-family="monospace">else dmem[3]++ and saturate at 0xFF:</text><text x="400.2" y="172.558" fill="#12303F" font-size="14" textLength="335.999" font-family="monospace">a real driver bounds this wait and gives</text><text x="400.2" y="191.626" fill="#12303F" font-size="14" textLength="285.599" font-family="monospace">up on a dead receiver; there is no</text><text x="400.2" y="210.693" fill="#12303F" font-size="14" textLength="142.799" font-family="monospace">retry policy here</text></g><g class="entity" data-qualified-name="fetch" id="ent0005" data-source-line="78"><rect x="326" y="326.268" width="280.399" height="115.34" fill="#F0F3F7" style="stroke:#6B7686;stroke-width:0.5;" rx="12.5" ry="12.5"/><line x1="326" y1="431.608" x2="606.399" y2="431.608" style="stroke:#6B7686;stroke-width:0.5;"/><text x="336" y="346.234" fill="#1F2933" font-size="14" textLength="243.599" font-family="monospace">fetch the payload by DISPATCH</text><text x="336" y="365.302" fill="#1F2933" font-size="14" textLength="251.999" font-family="monospace">LDS A,[X] is X-indexed with NO</text><text x="336" y="384.37" fill="#1F2933" font-size="14" textLength="260.399" font-family="monospace">offset, so dmem[8+index] is not</text><text x="336" y="403.438" fill="#1F2933" font-size="14" textLength="260.399" font-family="monospace">addressable: three compares and</text><text x="336" y="422.506" fill="#1F2933" font-size="14" textLength="260.399" font-family="monospace">three loads, not a table lookup</text></g><g class="entity" data-qualified-name="txs" id="ent0006" data-source-line="79"><rect x="250" y="502.608" width="322.399" height="96.272" fill="#DCE9F8" style="stroke:#4A6FA5;stroke-width:0.5;" rx="12.5" ry="12.5"/><line x1="250" y1="588.88" x2="572.399" y2="588.88" style="stroke:#4A6FA5;stroke-width:0.5;"/><text x="260" y="522.574" fill="#16324F" font-size="14" textLength="201.599" font-family="monospace">tx_start — 2 TIMER ticks</text><text x="260" y="541.642" fill="#16324F" font-size="14" textLength="268.799" font-family="monospace">RTS is re-asserted in the value:</text><text x="260" y="560.71" fill="#16324F" font-size="14" textLength="302.399" font-family="monospace">LDI A, RTS  (the start bit is TX low</text><text x="260" y="579.778" fill="#16324F" font-size="14" textLength="167.999" font-family="monospace">with RTS still high)</text></g><g class="entity" data-qualified-name="txl" id="ent0007" data-source-line="80"><rect x="134.2" y="659.878" width="313.999" height="115.34" fill="#DCE9F8" style="stroke:#4A6FA5;stroke-width:0.5;" rx="12.5" ry="12.5"/><line x1="134.2" y1="765.218" x2="448.199" y2="765.218" style="stroke:#4A6FA5;stroke-width:0.5;"/><text x="144.2" y="679.844" fill="#16324F" font-size="14" textLength="268.799" font-family="monospace">tx_loop — 8 data bits, LSB first</text><text x="144.2" y="698.912" fill="#16324F" font-size="14" textLength="251.999" font-family="monospace">AND A,1 / OR A,RTS / OUT TXPIN</text><text x="144.2" y="717.98" fill="#16324F" font-size="14" textLength="293.999" font-family="monospace">RTS stays high for the WHOLE frame:</text><text x="144.2" y="737.048" fill="#16324F" font-size="14" textLength="260.399" font-family="monospace">dropping it here would tell the</text><text x="144.2" y="756.116" fill="#16324F" font-size="14" textLength="285.599" font-family="monospace">receiver the line is free mid-byte</text></g><g class="entity" data-qualified-name="txp" id="ent0008" data-source-line="81"><rect x="167.2" y="836.218" width="229.999" height="96.272" fill="#DCE9F8" style="stroke:#4A6FA5;stroke-width:0.5;" rx="12.5" ry="12.5"/><line x1="167.2" y1="922.49" x2="397.199" y2="922.49" style="stroke:#4A6FA5;stroke-width:0.5;"/><text x="177.2" y="856.184" fill="#16324F" font-size="14" textLength="184.799" font-family="monospace">tx_stop — 2 more ticks</text><text x="177.2" y="875.252" fill="#16324F" font-size="14" textLength="117.599" font-family="monospace">LDI A, RTS|UTX</text><text x="177.2" y="894.32" fill="#16324F" font-size="14" textLength="209.999" font-family="monospace">TX high for the stop bit,</text><text x="177.2" y="913.388" fill="#16324F" font-size="14" textLength="151.199" font-family="monospace">RTS still asserted</text></g><g class="entity" data-qualified-name="rel" id="ent0009" data-source-line="82"><rect x="86.4" y="993.498" width="305.599" height="96.272" fill="#FDF2E9" style="stroke:#A04000;stroke-width:0.5;" rx="12.5" ry="12.5"/><line x1="86.4" y1="1079.77" x2="391.999" y2="1079.77" style="stroke:#A04000;stroke-width:0.5;"/><text x="96.4" y="1013.464" fill="#5A2400" font-size="14" textLength="209.999" font-family="monospace">RELEASE RTS, AND ONLY NOW</text><text x="96.4" y="1032.532" fill="#5A2400" font-size="14" textLength="285.599" font-family="monospace">the last stop bit has been clocked</text><text x="96.4" y="1051.6" fill="#5A2400" font-size="14" textLength="285.599" font-family="monospace">out, so the line is ours no longer</text><text x="96.4" y="1070.668" fill="#5A2400" font-size="14" textLength="285.599" font-family="monospace">OUT TXPIN with UTX, dmem[4] = 0x00</text></g><g class="entity" data-qualified-name="cnt" id="ent0010" data-source-line="83"><rect x="7" y="1179.368" width="280.399" height="58.136" fill="#F0F3F7" style="stroke:#6B7686;stroke-width:0.5;" rx="12.5" ry="12.5"/><line x1="7" y1="1227.504" x2="287.399" y2="1227.504" style="stroke:#6B7686;stroke-width:0.5;"/><text x="17" y="1199.334" fill="#1F2933" font-size="14" textLength="42" font-family="monospace">count</text><text x="17" y="1218.402" fill="#1F2933" font-size="14" textLength="260.399" font-family="monospace">dmem[1]++ index, dmem[2]++ sent</text></g><g class="entity" data-qualified-name="done" id="ent0011" data-source-line="84"><rect x="330.2" y="1511.908" width="145.999" height="58.136" fill="#EEF3FB" style="stroke:#4A6FA5;stroke-width:0.5;" rx="12.5" ry="12.5"/><line x1="330.2" y1="1560.044" x2="476.199" y2="1560.044" style="stroke:#4A6FA5;stroke-width:0.5;"/><text x="340.2" y="1531.874" fill="#16324F" font-size="14" textLength="33.6" font-family="monospace">done</text><text x="340.2" y="1550.942" fill="#16324F" font-size="14" textLength="125.999" font-family="monospace">dmem[12] = 0xA5</text></g><g class="entity" data-qualified-name="park" id="ent0012" data-source-line="85"><rect x="376.4" y="1659.648" width="53.6" height="50" fill="#EEF3FB" style="stroke:#4A6FA5;stroke-width:0.5;" rx="12.5" ry="12.5"/><line x1="376.4" y1="1688.716" x2="430" y2="1688.716" style="stroke:#4A6FA5;stroke-width:0.5;"/><text x="386.4" y="1679.614" fill="#16324F" font-size="14" textLength="33.6" font-family="monospace">park</text></g><g class="start_entity" data-qualified-name=".start." id="ent0013" data-source-line="73"><ellipse cx="467.2" cy="1041.628" rx="10" ry="10" fill="#222" style="stroke:#222;stroke-width:1;"/></g><g class="entity" data-qualified-name="GMN30" id="ent0031" data-source-line="104"><path d="M973.7,77.918 L973.7,158.598 L746.67,162.598 L973.7,166.598 L973.7,247.272 A0,0 0 0 0 973.7,247.272 L1306.7,247.272 A0,0 0 0 0 1306.7,247.272 L1306.7,87.918 L1296.7,77.918 L973.7,77.918 A0,0 0 0 0 973.7,77.918" style="stroke:#9A7B0A;stroke-width:0.5;" fill="#FFF3C4"/><path d="M1296.7,77.918 L1296.7,87.918 L1306.7,87.918 L1296.7,77.918" style="stroke:#9A7B0A;stroke-width:0.5;" fill="#FFF3C4"/><text x="979.7" y="96.815" fill="#3A2E00" font-size="13" textLength="280.8" font-family="monospace">WHY ASSERT BEFORE WAIT. The receiver</text><text x="979.7" y="114.521" fill="#3A2E00" font-size="13" textLength="304.2" font-family="monospace">raises CTS IN RESPONSE to RTS. A driver</text><text x="979.7" y="132.227" fill="#3A2E00" font-size="13" textLength="312" font-family="monospace">that waited for CTS before asserting RTS</text><text x="979.7" y="149.933" fill="#3A2E00" font-size="13" textLength="296.4" font-family="monospace">would wait for ever on a receiver that</text><text x="979.7" y="167.639" fill="#3A2E00" font-size="13" textLength="304.2" font-family="monospace">only raises CTS when asked — a deadlock</text><text x="979.7" y="185.345" fill="#3A2E00" font-size="13" textLength="304.2" font-family="monospace">no amount of correct bit-banging fixes,</text><text x="979.7" y="203.051" fill="#3A2E00" font-size="13" textLength="273" font-family="monospace">and one a testbench that drives CTS</text><text x="979.7" y="220.757" fill="#3A2E00" font-size="13" textLength="304.2" font-family="monospace">low-then-high can make look like a hang</text><text x="979.7" y="238.463" fill="#3A2E00" font-size="13" textLength="288.6" font-family="monospace">rather than like an ordering mistake.</text></g><g class="entity" data-qualified-name="GMN33" id="ent0034" data-source-line="115"><path d="M1341.7,77.918 L1341.7,247.272 L1674.7,247.272 L1674.7,87.918 L1664.7,77.918 L1341.7,77.918" style="stroke:#9A7B0A;stroke-width:0.5;" fill="#FFF3C4"/><path d="M1664.7,77.918 L1664.7,87.918 L1674.7,87.918 L1664.7,77.918" style="stroke:#9A7B0A;stroke-width:1;" fill="#FFF3C4"/><text x="1347.7" y="96.815" fill="#3A2E00" font-size="13" textLength="312" font-family="monospace">THE SATURATION IS NOT COSMETIC. The loop</text><text x="1347.7" y="114.521" fill="#3A2E00" font-size="13" textLength="304.2" font-family="monospace">runs one iteration every six clocks, so</text><text x="1347.7" y="132.227" fill="#3A2E00" font-size="13" textLength="249.6" font-family="monospace">a receiver holding CTS low for a</text><text x="1347.7" y="149.933" fill="#3A2E00" font-size="13" textLength="265.2" font-family="monospace">millisecond wraps an 8-bit counter</text><text x="1347.7" y="167.639" fill="#3A2E00" font-size="13" textLength="296.4" font-family="monospace">several times over. Saturating at 0xFF</text><text x="1347.7" y="185.345" fill="#3A2E00" font-size="13" textLength="273" font-family="monospace">makes dmem[3] a statement about "it</text><text x="1347.7" y="203.051" fill="#3A2E00" font-size="13" textLength="304.2" font-family="monospace">waited, and at least this long" instead</text><text x="1347.7" y="220.757" fill="#3A2E00" font-size="13" textLength="288.6" font-family="monospace">of a residue — which is what the TB's</text><text x="1347.7" y="238.463" fill="#3A2E00" font-size="13" textLength="163.8" font-family="monospace">second case requires.</text></g><!--link *start* to init--><g class="link" data-entity-1="ent0013" data-entity-2="ent0001" id="lnk14" data-source-line="73" data-link-type="dependency"><path d="M467.2,1051.958 C467.2,1070.688 467.2,1109.148 467.2,1145.378" style="stroke:#1F2933;stroke-width:1;" fill="none" id="*start*-to-init"/><polygon points="467.2,1150.378,471.2,1141.378,467.2,1145.378,463.2,1141.378,467.2,1150.378" fill="#1F2933" style="stroke:#1F2933;stroke-width:1;stroke-linejoin:miter;stroke-miterlimit:10;"/></g><!--link init to main--><g class="link" data-entity-1="ent0001" data-entity-2="ent0002" id="lnk15" data-source-line="87" data-link-type="dependency"><path d="M452.53,1266.368 C447.36,1286.448 442.917,1303.686 438.247,1321.816" style="stroke:#1F2933;stroke-width:1;" fill="none" id="init-to-main"/><polygon points="437,1326.658,443.119,1318.94,438.247,1321.816,435.371,1316.945,437,1326.658" fill="#1F2933" style="stroke:#1F2933;stroke-width:1;stroke-linejoin:miter;stroke-miterlimit:10;"/></g><!--link main to rts--><g class="link" data-entity-1="ent0002" data-entity-2="ent0003" id="lnk16" data-source-line="88" data-link-type="dependency"><path d="M479.21,1404.728 C510.55,1427.648 547.023,1454.317 582.143,1479.987" style="stroke:#1F2933;stroke-width:1;" fill="none" id="main-to-rts"/><polygon points="586.18,1482.938,581.274,1474.398,582.143,1479.987,576.554,1480.856,586.18,1482.938" fill="#1F2933" style="stroke:#1F2933;stroke-width:1;stroke-linejoin:miter;stroke-miterlimit:10;"/><text x="539.59" y="1449.205" fill="#1F2933" font-size="13" textLength="62.4" font-family="monospace">sent &lt; 3</text></g><!--link rts to wait--><g class="link" data-entity-1="ent0003" data-entity-2="ent0004" id="lnk17" data-source-line="89" data-link-type="dependency"><path d="M664.2,1483.008 C664.2,1449.208 664.2,1405.508 664.2,1366.708 C664.2,382.938 664.2,382.938 664.2,382.938 C664.2,328.278 641.404,276.208 616.764,234.298" style="stroke:#1F2933;stroke-width:1;" fill="none" id="rts-to-wait"/><polygon points="614.23,229.988,615.343,239.774,616.764,234.298,622.24,235.719,614.23,229.988" fill="#1F2933" style="stroke:#1F2933;stroke-width:1;stroke-linejoin:miter;stroke-miterlimit:10;"/></g><!--link wait to fetch--><g class="link" data-entity-1="ent0004" data-entity-2="ent0005" id="lnk18" data-source-line="90" data-link-type="dependency"><path d="M537.32,229.998 C523.07,260.638 508.438,292.114 494.778,321.494" style="stroke:#1F2933;stroke-width:1;" fill="none" id="wait-to-fetch"/><polygon points="492.67,326.028,500.092,319.553,494.778,321.494,492.837,316.18,492.67,326.028" fill="#1F2933" style="stroke:#1F2933;stroke-width:1;stroke-linejoin:miter;stroke-miterlimit:10;"/><text x="515.14" y="292.165" fill="#1F2933" font-size="13" textLength="85.8" font-family="monospace">CTS is HIGH</text></g><!--link wait to wait--><g class="link" data-entity-1="ent0004" data-entity-2="ent0004" id="lnk19" data-source-line="91" data-link-type="dependency"><path d="M746.49,142.658 C767.5,146.308 781.2,152.958 781.2,162.598 C781.2,172.238 772.426,178.02 751.416,181.68" style="stroke:#1F2933;stroke-width:1;" fill="none" id="wait-to-wait"/><polygon points="746.49,182.538,756.043,184.934,751.416,181.68,754.67,177.053,746.49,182.538" fill="#1F2933" style="stroke:#1F2933;stroke-width:1;stroke-linejoin:miter;stroke-miterlimit:10;"/><text x="787.2" y="167.995" fill="#1F2933" font-size="13" textLength="163.8" font-family="monospace">CTS is LOW, dmem[3]++</text></g><!--link fetch to txs--><g class="link" data-entity-1="ent0005" data-entity-2="ent0006" id="lnk20" data-source-line="92" data-link-type="dependency"><path d="M447.27,441.658 C440.68,461.398 434.954,478.576 428.634,497.496" style="stroke:#1F2933;stroke-width:1;" fill="none" id="fetch-to-txs"/><polygon points="427.05,502.238,433.695,494.969,428.634,497.496,426.108,492.434,427.05,502.238" fill="#1F2933" style="stroke:#1F2933;stroke-width:1;stroke-linejoin:miter;stroke-miterlimit:10;"/></g><!--link txs to txl--><g class="link" data-entity-1="ent0006" data-entity-2="ent0007" id="lnk21" data-source-line="93" data-link-type="dependency"><path d="M376.81,598.978 C363.03,617.898 349.974,635.836 335.554,655.636" style="stroke:#1F2933;stroke-width:1;" fill="none" id="txs-to-txl"/><polygon points="332.61,659.678,341.142,654.758,335.554,655.636,334.675,650.048,332.61,659.678" fill="#1F2933" style="stroke:#1F2933;stroke-width:1;stroke-linejoin:miter;stroke-miterlimit:10;"/></g><!--link txl to txl--><g class="link" data-entity-1="ent0007" data-entity-2="ent0007" id="lnk22" data-source-line="94" data-link-type="dependency"><path d="M448.64,702.978 C469.42,705.458 483.2,710.318 483.2,717.548 C483.2,724.788 474.385,729.055 453.605,731.535" style="stroke:#1F2933;stroke-width:1;" fill="none" id="txl-to-txl"/><polygon points="448.64,732.128,458.051,735.033,453.605,731.535,457.103,727.09,448.64,732.128" fill="#1F2933" style="stroke:#1F2933;stroke-width:1;stroke-linejoin:miter;stroke-miterlimit:10;"/><text x="489.2" y="722.945" fill="#1F2933" font-size="13" textLength="132.6" font-family="monospace">dmem[6]--, 8 bits</text></g><!--link txl to txp--><g class="link" data-entity-1="ent0007" data-entity-2="ent0008" id="lnk23" data-source-line="95" data-link-type="dependency"><path d="M288.1,775.268 C287.02,795.008 286.104,811.935 285.064,830.855" style="stroke:#1F2933;stroke-width:1;" fill="none" id="txl-to-txp"/><polygon points="284.79,835.848,289.278,827.081,285.064,830.855,281.29,826.642,284.79,835.848" fill="#1F2933" style="stroke:#1F2933;stroke-width:1;stroke-linejoin:miter;stroke-miterlimit:10;"/></g><!--link txp to rel--><g class="link" data-entity-1="ent0008" data-entity-2="ent0009" id="lnk24" data-source-line="96" data-link-type="dependency"><path d="M269.06,932.788 C263.75,951.958 258.975,969.229 253.665,988.399" style="stroke:#1F2933;stroke-width:1;" fill="none" id="txp-to-rel"/><polygon points="252.33,993.218,258.587,985.612,253.665,988.399,250.878,983.477,252.33,993.218" fill="#1F2933" style="stroke:#1F2933;stroke-width:1;stroke-linejoin:miter;stroke-miterlimit:10;"/></g><!--link rel to cnt--><g class="link" data-entity-1="ent0009" data-entity-2="ent0010" id="lnk25" data-source-line="97" data-link-type="dependency"><path d="M212.84,1089.858 C196.69,1118.768 179.018,1150.432 165.338,1174.932" style="stroke:#1F2933;stroke-width:1;" fill="none" id="rel-to-cnt"/><polygon points="162.9,1179.298,170.78,1173.39,165.338,1174.932,163.795,1169.49,162.9,1179.298" fill="#1F2933" style="stroke:#1F2933;stroke-width:1;stroke-linejoin:miter;stroke-miterlimit:10;"/></g><!--link cnt to main--><g class="link" data-entity-1="ent0010" data-entity-2="ent0002" id="lnk26" data-source-line="98" data-link-type="dependency"><path d="M198.56,1237.918 C243.47,1262.818 304.698,1296.773 354.118,1324.183" style="stroke:#1F2933;stroke-width:1;" fill="none" id="cnt-to-main"/><polygon points="358.49,1326.608,352.56,1318.745,354.118,1324.183,348.679,1325.741,358.49,1326.608" fill="#1F2933" style="stroke:#1F2933;stroke-width:1;stroke-linejoin:miter;stroke-miterlimit:10;"/></g><!--link main to done--><g class="link" data-entity-1="ent0002" data-entity-2="ent0011" id="lnk27" data-source-line="99" data-link-type="dependency"><path d="M421.93,1404.728 C417.48,1436.908 411.877,1477.365 407.837,1506.495" style="stroke:#1F2933;stroke-width:1;" fill="none" id="main-to-done"/><polygon points="407.15,1511.448,412.348,1503.083,407.837,1506.495,404.424,1501.984,407.15,1511.448" fill="#1F2933" style="stroke:#1F2933;stroke-width:1;stroke-linejoin:miter;stroke-miterlimit:10;"/><text x="418.35" y="1449.205" fill="#1F2933" font-size="13" textLength="70.2" font-family="monospace">sent == 3</text></g><!--link done to park--><g class="link" data-entity-1="ent0011" data-entity-2="ent0012" id="lnk28" data-source-line="100" data-link-type="dependency"><path d="M403.2,1570.308 C403.2,1596.308 403.2,1629.438 403.2,1654.148" style="stroke:#1F2933;stroke-width:1;" fill="none" id="done-to-park"/><polygon points="403.2,1659.148,407.2,1650.148,403.2,1654.148,399.2,1650.148,403.2,1659.148" fill="#1F2933" style="stroke:#1F2933;stroke-width:1;stroke-linejoin:miter;stroke-miterlimit:10;"/></g><!--link park to park--><g class="link" data-entity-1="ent0012" data-entity-2="ent0012" id="lnk29" data-source-line="101" data-link-type="dependency"><path d="M430.2,1675.108 C447.88,1672.528 465,1675.708 465,1684.648 C465,1693.588 452.828,1697.49 435.148,1694.91" style="stroke:#1F2933;stroke-width:1;" fill="none" id="park-to-park"/><polygon points="430.2,1694.188,438.528,1699.446,435.148,1694.91,439.683,1691.529,430.2,1694.188" fill="#1F2933" style="stroke:#1F2933;stroke-width:1;stroke-linejoin:miter;stroke-miterlimit:10;"/><text x="471" y="1690.045" fill="#1F2933" font-size="13" textLength="62.4" font-family="monospace">JMP park</text></g><!--link wait to GMN33--><g class="link" data-entity-1="ent0004" data-entity-2="ent0034" id="lnk35" data-source-line="115" data-link-type="association"><path d="M746.64,108.888 C816.73,90.398 898.31,72.048 973.7,62.918 C1047.16,54.018 1234.64,46.068 1306.7,62.918 C1322.28,66.558 1338.04,71.598 1353.52,77.478" style="stroke:#1F2933;stroke-width:1;stroke-dasharray:7,7;" fill="none" id="wait-GMN33"/></g><?plantuml-src XLTjS-8u4lxEh-YQ-R393YJcDIGtCrKcs1ks2AI0r6HtIAM44U2AaRoM2A7khkf-nFt2-oNNBTbWNcOs7oZ9tUgNfvzkAUer535Bs19wKlCM2rxdYLo9wQsCP08VVT-ltjOAQbzB9bEUf1hNxbNBSGyqV2bqAg-w5SznSdB5_rfn4N3uPm70JHAvpZIhzNhToJxcJ9JzodMrYe9kEEFTKEm7q7IlQsuZBprCmclxPVyADHvOeiCWZ9dGUoRmlE_M3nGEhRHllMk_kQ-K3x9HhTHy5F-6X-8zyutMLQFPs8gEmgkYuGgAXoaoBVd-eqBiAvsemqxX9t7ig_njF7yFx97coG9bMktmBTo9q-h-EqyHpRJbnx5Bpw_wBPASBE2fWkGvjgNI3pbsuF7pP_t-zIj0hluvprif_Ps8OayEkPYEl2GxBvxd77f9zhmqtVhjlfTatyjLhLvnJtd1FIdksBJd9PKQ6riwvRpavB1jx5DU9ZBHgFdHRxIlszT7Rb8n6MavTSVqVDxDJeuQ3RVYL4wwcSXtcuo3bBWwz99AhOsC-3alEJdyhFoJn2RzqNVRhVPH_JEniU9ULokLGpyv1LIfjygDyibqL2HDrX_R3Syz9becDbOgNgFjrlOTvHL-IhKW2Mn6Njjp_FgXeqoS8bVphblxZl8An8DMfTuucT6KQMOpgllECQapSPhHLTk4ctEKLw2CAZNdDArfNbWgjBtRssFeKd5QewjQ-O3OUGMgaLjjbokd72rKobk_xLUy8sPdOkl8gJdE0RNp2iOHfdGIkZKBKp9KlAf_15qcjj3Lwax3stUKLp3GLPsgZpDMXphYyEWEHZ0O3IzlHqFutt_-2th1OS74L2tOAmUcO1OcopLBU17mgn67ueqb8Tvv46gOht1E2ysvAlm2GxbA0gvkjeSkKQfVPf5SNyGSpkXqBAEeQEnCGnKp7IpiReB68YdZyo8QslxfoQMUlCJyHSdWPMVipThQHRAK8jGoiQQQlJ8aFE3X6q_shQ5GhoK4J75rZifIHkfojhwCELFBYtW3Pu-Zfyl7mTDbYaaHHfrxRt2ELXv20KiMMnS8JyAdq2nHs35EgHkJW0EZ9pYJAtqEPb-50Uv3SPwFuWT_f5-ZMgG6Q5y7gajgu26HSxmJRo1ccqYoAJZlZeC_ley_Rhq8Kd1pVePQM3l38k0iMC1aetdkLfto6Lj5vitI8zLxAIJM8k3JmlTVdw5K-ehGXhfWRzyFj1wBRhi3RX4G8BY4_kC8KttezCO2z-4quWhkEh_T5Kq00w_hkKElFHPdc8N2j8WxpOkB6sXcqIk8i3vZWQXEbtpvlVbSj8lhR55sdiy_40NpiInPA2YMUuob0cUKcCA7fD3dOp5yRE7NAeRt-vymHJJCQJe1wPJFhBZ3eMU93tvdC1njiyCl_phAa0eUuLi6GdIbmoWo2HT1IH1IBq8n7ui5UffmBa1ZEwXbg3NIOyCHDvDBxHc-O9NAZWafGKpi2CW2eYvz2V0pzQ0B3_rkjmYz_WZNH40CPYmwFOmG0yBWt5uRryGDpBNt9-39bxaS2nufRi6hFd_wP51NJAyIyi6quShDM33i3XR1DA46WGdHH26hCJiAmvoQeqYDnIf6KW53mY3TifRw1tL0Oj0Gw3FXEjbGMuV11aXWKZIMikcJPJdZsEwcVp8AJpRGxWmVtD7j7TLWY5bzVtecqq-bK4pvEwAu3lK2iHWBEPifhWtkbZAVZCgpZGIXPjDfmfLYauZVe9k4SmZa4ZcF7C6ig9BqpT2lI4SmDKtQD7bULx69t0PvG1Zz_eAhH9lwLEnG07pxlo98n2AC8E4bfXHFgF38EChoZKKhVfCd5zZ1PMrHX-D1f1lEjB4mUPAEvTWYd2yi__KxqKNlXqEpqaJJ1BeToHZcr1ssQFWg1CDof4nK7k1YOCYIOxNrn3RAU88Pldqfj6zt_QvdHmX6Fara72F1QTIReg_bAi9hW6E0g4tLjwI0V9FC2ELbE2rHUwOfHCSfA9scKC7vZRPJFFTRqGoOlGZDCKotcEL0Q6NGfzxY0s_fH2AZHTCz_Lxt3oJLjxIxcT9Rkx3jvI2ImIj7tk10DhJB9ubt7T4EQoVcF1cBBRIMi1XwEiVItdVItkVHGUy7s83Pd2XJsnfMfuShz87ccpaS27t8J9fpsU6AzUJMZJ99CYtiWLVpaHQ50arKC-PfE1RCXAGTpQKRumq-GxL0M_fCJLmm3KqxsnytvcOAxTJV2SrYA-lslnLtuwXWJv8QChf0hBRhg43qIDTusfneF9TAHIGtyJedZmjKN1CiZme49gqHbm9XSvmIWP3bzEKB9cK-aCGWGJ_R7UhzVl-GGeJJWKE2lDCWPnO2mERu0zAxe-Nv_O47tzpEw096o8ki4r0jOI4-C0mAI8U1Dtpezv1yMXB_Bd2csz5Re1S9ZcKoZaE3-4r79dn6tM0PJRs7Xr3LTfu1c3GvDPqPphaMP1Ia5D4c7y9wWLHc2ebicirESs8swY9_sPBuHqa6Ca5RPYwL9apCoVSiVEUgY9fqAn1qE36vqXFyxtrXepUv64-eXOEiX4qYIgPZ0qPFfbSxNh5nw4L9hykvmOXk4J8XKea0yx0bhyiGUVlABmeSlL8bJfTZTEV1q1qz3jnHfz-3pj1ScRVzuRqtwjpQij2S97SheKpy23Mw3X4vGd03AdotVQwemodH7Q0B6Kqf748HCpEuCrHPuiH1U0E9qQqJ5jFjahu5JJERqYgoZzUi3fS8ZyJD1GpjPKmsq-kOh66cAciJT6zQTac4nVz_LnhVNvIh9ObzXUFPYDF8CfSs3Q0FE3IKnhfI_MSc1nLELznKVBq8iLXqlLEzQ8QDMhye4w99WPx3UE2lLOYdTfZ_7m00?></g></svg>