<svg xmlns="http://www.w3.org/2000/svg" xmlns:xlink="http://www.w3.org/1999/xlink" version="1.1" data-diagram-type="SEQUENCE" style="width:987px;height:2529px;background:#FFFFFF;" width="987px" height="2529px" viewBox="0 0 987 2529" zoomAndPan="magnify" preserveAspectRatio="none" contentStyleType="text/css"><?plantuml 1.2026.8?><defs/><g font-family="sans-serif" lengthAdjust="spacing"><g class="title" data-source-line="21"><text x="407.742" y="29.966" fill="#000" font-size="14" textLength="170.379" font-weight="700">Servo PWM - wire timing</text><text x="224.28" y="46.896" fill="#000" font-size="12" textLength="537.304" font-weight="700">measured: 1000.15 / 1500.13 / 1750.12 / 1250.13 / 2000.10 us, frame 19 999.95 us = 50.000 Hz</text></g><rect x="161.542" y="1555.565" width="806.321" height="187.648" fill="none" style="stroke:#000;stroke-width:1.5;"/><g><title>CPU</title><rect x="174.042" y="138.616" width="8" height="2307.484" fill="#000" fill-opacity="0"/><line x1="177.542" y1="138.616" x2="177.542" y2="2446.099" style="stroke:#FFF;stroke-width:0.5;stroke-dasharray:5,5;"/></g><g><title>pad 6</title><rect x="456.937" y="138.616" width="8" height="2307.484" fill="#000" fill-opacity="0"/><line x1="460.437" y1="138.616" x2="460.437" y2="2446.099" style="stroke:#FFF;stroke-width:0.5;stroke-dasharray:5,5;"/></g><g><title>servo signal</title><rect x="794.926" y="138.616" width="8" height="2307.484" fill="#000" fill-opacity="0"/><line x1="798.426" y1="138.616" x2="798.426" y2="2446.099" style="stroke:#FFF;stroke-width:0.5;stroke-dasharray:5,5;"/></g><rect x="120.142" y="66.412" width="114.8" height="71.204" fill="#F4F7FB" style="stroke:#FFF;stroke-width:0.5;" rx="2.5" ry="2.5"/><text x="164.942" y="88.378" fill="#000" font-size="14" textLength="25.2" font-family="monospace">CPU</text><text x="143.942" y="107.446" fill="#000" font-size="14" textLength="67.2" font-family="monospace">pe_cpu.v</text><text x="127.142" y="126.514" fill="#000" font-size="14" textLength="100.8" font-family="monospace">single-cycle</text><rect x="398.837" y="85.48" width="123.2" height="52.136" fill="#F4F7FB" style="stroke:#FFF;stroke-width:0.5;" rx="2.5" ry="2.5"/><text x="439.437" y="107.446" fill="#000" font-size="14" textLength="42" font-family="monospace">pad 6</text><text x="405.837" y="126.514" fill="#000" font-size="14" textLength="109.2" font-family="monospace">TXPIN / PINOE</text><rect x="741.026" y="85.48" width="114.8" height="52.136" fill="#F4F7FB" style="stroke:#FFF;stroke-width:0.5;" rx="2.5" ry="2.5"/><text x="748.026" y="107.446" fill="#000" font-size="14" textLength="100.8" font-family="monospace">servo signal</text><text x="764.826" y="126.514" fill="#000" font-size="14" textLength="67.2" font-family="monospace">idle LOW</text><rect x="120.142" y="2446.099" width="114.8" height="71.204" fill="#F4F7FB" style="stroke:#FFF;stroke-width:0.5;" rx="2.5" ry="2.5"/><text x="164.942" y="2468.065" fill="#000" font-size="14" textLength="25.2" font-family="monospace">CPU</text><text x="143.942" y="2487.133" fill="#000" font-size="14" textLength="67.2" font-family="monospace">pe_cpu.v</text><text x="127.142" y="2506.201" fill="#000" font-size="14" textLength="100.8" font-family="monospace">single-cycle</text><rect x="398.837" y="2446.099" width="123.2" height="52.136" fill="#F4F7FB" style="stroke:#FFF;stroke-width:0.5;" rx="2.5" ry="2.5"/><text x="439.437" y="2468.065" fill="#000" font-size="14" textLength="42" font-family="monospace">pad 6</text><text x="405.837" y="2487.133" fill="#000" font-size="14" textLength="109.2" font-family="monospace">TXPIN / PINOE</text><rect x="741.026" y="2446.099" width="114.8" height="52.136" fill="#F4F7FB" style="stroke:#FFF;stroke-width:0.5;" rx="2.5" ry="2.5"/><text x="748.026" y="2468.065" fill="#000" font-size="14" textLength="100.8" font-family="monospace">servo signal</text><text x="764.826" y="2487.133" fill="#000" font-size="14" textLength="67.2" font-family="monospace">idle LOW</text><rect x="10" y="168.469" width="966.863" height="3" fill="#EEE" style="stroke:#EEE;stroke-width:1;"/><line x1="10" y1="168.469" x2="976.863" y2="168.469" style="stroke:#000;stroke-width:1;"/><line x1="10" y1="171.469" x2="976.863" y2="171.469" style="stroke:#000;stroke-width:1;"/><rect x="432.416" y="156.616" width="122.03" height="25.706" fill="#EEE" style="stroke:#000;stroke-width:2;"/><text x="438.416" y="174.513" fill="#000" font-size="13" textLength="104.65" font-weight="700">claiming the pin</text><polygon points="448.437,212.028,458.437,216.028,448.437,220.028,452.437,216.028" fill="#FFF" style="stroke:#FFF;stroke-width:1;stroke-linejoin:miter;stroke-miterlimit:10;"/><line x1="177.542" y1="216.028" x2="454.437" y2="216.028" style="stroke:#FFF;stroke-width:1;"/><text x="184.542" y="210.219" fill="#000" font-size="13" textLength="201.643">PINOE = 0x00 (release every pad)</text><polygon points="448.437,243.734,458.437,247.734,448.437,251.734,452.437,247.734" fill="#FFF" style="stroke:#FFF;stroke-width:1;stroke-linejoin:miter;stroke-miterlimit:10;"/><line x1="177.542" y1="247.734" x2="454.437" y2="247.734" style="stroke:#FFF;stroke-width:1;"/><text x="184.542" y="241.925" fill="#000" font-size="13" textLength="192.205">TXPIN = 0x00  (the LEVEL first...)</text><path d="M465.437,260.734 L465.437,517.734 L765.437,517.734 L765.437,270.734 L755.437,260.734 L465.437,260.734" style="stroke:#181818;stroke-width:0.5;" fill="#FEFFDD"/><path d="M755.437,260.734 L755.437,270.734 L765.437,270.734 L755.437,260.734" style="stroke:#181818;stroke-width:0.5;" fill="#FEFFDD"/><text x="471.437" y="279.631" fill="#000" font-size="13" textLength="223.288">...and the idle level is set BEFORE the</text><text x="471.437" y="297.337" fill="#000" font-size="13" textLength="213.135">pin is claimed. A first version wrote</text><text x="471.437" y="315.043" fill="#000" font-size="13" textLength="279.5">SRV_DATA here instead of 0, on the reasoning</text><text x="471.437" y="332.749" fill="#000" font-size="13" textLength="256.23">that the pin was about to go high anyway.</text><text x="471.437" y="350.455" fill="#000" font-size="13"> </text><text x="471.437" y="368.161" fill="#000" font-size="13" textLength="275.028">The consequence: the line stayed RELEASED -</text><text x="471.437" y="385.867" fill="#000" font-size="13" textLength="269.685">so pulled HIGH by the board's pull-up - from</text><text x="471.437" y="403.573" fill="#000" font-size="13" textLength="230.178">reset until the first pulse, and the first</text><text x="471.437" y="421.279" fill="#000" font-size="13" textLength="120.822">pulse therefore had</text><text x="595.639" y="421.279" fill="#000" font-size="13" textLength="127.79" font-weight="700">no rising edge at all</text><text x="723.429" y="421.279" fill="#000" font-size="13">.</text><text x="471.437" y="438.985" fill="#000" font-size="13" textLength="236.405">The TB saw four rises and five falls and</text><text x="471.437" y="456.691" fill="#000" font-size="13" textLength="225.394">correctly refused to call it five pulses.</text><text x="471.437" y="474.397" fill="#000" font-size="13"> </text><text x="471.437" y="492.103" fill="#000" font-size="13" textLength="261.378" font-weight="700">The idle level of a timing protocol is part</text><text x="471.437" y="509.809" fill="#000" font-size="13" textLength="121.589">of the protocol.&lt;/b></text><polygon points="448.437,543.324,458.437,547.324,448.437,551.324,452.437,547.324" fill="#FFF" style="stroke:#FFF;stroke-width:1;stroke-linejoin:miter;stroke-miterlimit:10;"/><line x1="177.542" y1="547.324" x2="454.437" y2="547.324" style="stroke:#FFF;stroke-width:1;"/><text x="184.542" y="541.515" fill="#000" font-size="13" textLength="225.563">PINOE = 0x40 (claim exactly one pad)</text><polygon points="786.426,575.03,796.426,579.03,786.426,583.03,790.426,579.03" fill="#FFF" style="stroke:#FFF;stroke-width:1;stroke-linejoin:miter;stroke-miterlimit:10;"/><line x1="460.437" y1="579.03" x2="792.426" y2="579.03" style="stroke:#FFF;stroke-width:1;"/><text x="467.437" y="573.221" fill="#000" font-size="13" textLength="313.989">the line is released, so it READS HIGH for a moment</text><path d="M648.521,592.03 L648.521,672.03 L947.521,672.03 L947.521,602.03 L937.521,592.03 L648.521,592.03" style="stroke:#181818;stroke-width:0.5;" fill="#FEFFDD"/><path d="M937.521,592.03 L937.521,602.03 L947.521,602.03 L937.521,592.03" style="stroke:#181818;stroke-width:0.5;" fill="#FEFFDD"/><text x="654.521" y="610.927" fill="#000" font-size="13" textLength="269.308">This is the TB's "leading fall": the wire model</text><text x="654.521" y="628.633" fill="#000" font-size="13" textLength="261.911">is a pull-up plus the pads, so a released pin</text><text x="654.521" y="646.339" fill="#000" font-size="13" textLength="278.811">floats up. It is why the TB pairs each RISE with</text><text x="654.521" y="664.045" fill="#000" font-size="13" textLength="252.252">the NEXT fall rather than with the j-th fall.</text><polygon points="786.426,697.56,796.426,701.56,786.426,705.56,790.426,701.56" fill="#FFF" style="stroke:#FFF;stroke-width:1;stroke-linejoin:miter;stroke-miterlimit:10;"/><line x1="460.437" y1="701.56" x2="792.426" y2="701.56" style="stroke:#FFF;stroke-width:1;"/><text x="467.437" y="695.751" fill="#000" font-size="13" textLength="252.239">the firmware drives it LOW: the servo idle</text><rect x="10" y="731.413" width="966.863" height="3" fill="#EEE" style="stroke:#EEE;stroke-width:1;"/><line x1="10" y1="731.413" x2="976.863" y2="731.413" style="stroke:#000;stroke-width:1;"/><line x1="10" y1="734.413" x2="976.863" y2="734.413" style="stroke:#000;stroke-width:1;"/><rect x="347.741" y="719.56" width="291.381" height="25.706" fill="#EEE" style="stroke:#000;stroke-width:2;"/><text x="353.741" y="737.457" fill="#000" font-size="13" textLength="274.001" font-weight="700">position 0: 1 000 us, then a FULL 20 ms slot</text><polygon points="448.437,774.972,458.437,778.972,448.437,782.972,452.437,778.972" fill="#FFF" style="stroke:#FFF;stroke-width:1;stroke-linejoin:miter;stroke-miterlimit:10;"/><line x1="177.542" y1="778.972" x2="454.437" y2="778.972" style="stroke:#FFF;stroke-width:1;"/><text x="184.542" y="773.163" fill="#000" font-size="13" textLength="258.895">TXPIN = SRV_DATA (0x40) - the pulse starts</text><path d="M687.891,791.972 L687.891,854.972 L908.891,854.972 L908.891,801.972 L898.891,791.972 L687.891,791.972" style="stroke:#181818;stroke-width:0.5;" fill="#FEFFDD"/><path d="M898.891,791.972 L898.891,801.972 L908.891,801.972 L898.891,791.972" style="stroke:#181818;stroke-width:0.5;" fill="#FEFFDD"/><text x="693.891" y="810.869" fill="#000" font-size="13" textLength="167.011" font-weight="700">PULSE 0 = 1 000.15 us high</text><text x="693.891" y="828.575" fill="#000" font-size="13" textLength="119.938">requested 1 000 us,</text><text x="817.209" y="828.575" fill="#000" font-size="13" textLength="33.397" font-weight="700">+0.15</text><text x="693.891" y="846.281" fill="#000" font-size="13" textLength="200.07">datasheet band: 1 000 .. 2 000 us</text><path d="M15,865.09 L15,1052.09 L340,1052.09 L340,875.09 L330,865.09 L15,865.09" style="stroke:#181818;stroke-width:0.5;" fill="#FEFFDD"/><path d="M330,865.09 L330,875.09 L340,875.09 L330,865.09" style="stroke:#181818;stroke-width:0.5;" fill="#FEFFDD"/><text x="21" y="883.987" fill="#000" font-size="13" textLength="297.583">dly1/dly2/dly3 on dmem[0] = 97, (n2,n3) = (2,152)</text><text x="21" y="901.693" fill="#000" font-size="13"> </text><text x="21" y="919.399" fill="#000" font-size="13" textLength="237.445">total = (n1-1)*(10 + (n2-1)*(4*n3+7)) + 4</text><text x="21" y="937.105" fill="#000" font-size="13" textLength="304.083">one outer step = 4*152 + 11 = 619 clocks = 10.3 us</text><text x="21" y="954.811" fill="#000" font-size="13"> </text><text x="21" y="972.517" fill="#000" font-size="13" textLength="273.26">The tables are FITTED by division and a small</text><text x="21" y="990.223" fill="#000" font-size="13" textLength="257.14">search, not by trial and error: for a chosen</text><text x="21" y="1007.929" fill="#000" font-size="13" textLength="280.098">(n2,n3) the outer counter nearest the target is</text><text x="21" y="1025.635" fill="#000" font-size="13" textLength="277.459">a division, and keeping every entry inside 255</text><text x="21" y="1043.341" fill="#000" font-size="13" textLength="80.379">is the search.</text><polygon points="448.437,1076.856,458.437,1080.856,448.437,1084.856,452.437,1080.856" fill="#FFF" style="stroke:#FFF;stroke-width:1;stroke-linejoin:miter;stroke-miterlimit:10;"/><line x1="177.542" y1="1080.856" x2="454.437" y2="1080.856" style="stroke:#FFF;stroke-width:1;"/><text x="184.542" y="1075.047" fill="#000" font-size="13" textLength="175.929">TXPIN = 0x00 - the gap starts</text><path d="M649.463,1093.856 L649.463,1156.856 L946.463,1156.856 L946.463,1103.856 L936.463,1093.856 L649.463,1093.856" style="stroke:#181818;stroke-width:0.5;" fill="#FEFFDD"/><path d="M936.463,1093.856 L936.463,1103.856 L946.463,1103.856 L936.463,1093.856" style="stroke:#181818;stroke-width:0.5;" fill="#FEFFDD"/><text x="655.463" y="1112.753" fill="#000" font-size="13" textLength="114.907" font-weight="700">GAP 0 = 19.000 ms</text><text x="777.13" y="1112.753" fill="#000" font-size="13" textLength="155.259">(dmem[5] = 229, (11,123))</text><text x="655.463" y="1130.459" fill="#000" font-size="13" textLength="95.394">rise 0 -> rise 1 =</text><text x="754.237" y="1130.459" fill="#000" font-size="13" textLength="152.204" font-weight="700">19 999.95 us = 50.000 Hz</text><text x="655.463" y="1148.165" fill="#000" font-size="13" textLength="260.104">this is the number the 50 Hz claim rests on</text><rect x="10" y="1183.828" width="966.863" height="3" fill="#EEE" style="stroke:#EEE;stroke-width:1;"/><line x1="10" y1="1183.828" x2="976.863" y2="1183.828" style="stroke:#000;stroke-width:1;"/><line x1="10" y1="1186.828" x2="976.863" y2="1186.828" style="stroke:#000;stroke-width:1;"/><rect x="290.749" y="1171.974" width="405.365" height="25.706" fill="#EEE" style="stroke:#000;stroke-width:2;"/><text x="296.749" y="1189.872" fill="#000" font-size="13" textLength="387.985" font-weight="700">position 1: 1 500 us, and the frame period is MEASURED here</text><polygon points="448.437,1227.387,458.437,1231.387,448.437,1235.387,452.437,1231.387" fill="#FFF" style="stroke:#FFF;stroke-width:1;stroke-linejoin:miter;stroke-miterlimit:10;"/><line x1="177.542" y1="1231.387" x2="454.437" y2="1231.387" style="stroke:#FFF;stroke-width:1;"/><text x="184.542" y="1225.578" fill="#000" font-size="13" textLength="153.686">TXPIN = SRV_DATA (0x40)</text><path d="M704.421,1244.387 L704.421,1289.387 L892.421,1289.387 L892.421,1254.387 L882.421,1244.387 L704.421,1244.387" style="stroke:#181818;stroke-width:0.5;" fill="#FEFFDD"/><path d="M882.421,1244.387 L882.421,1254.387 L892.421,1254.387 L882.421,1244.387" style="stroke:#181818;stroke-width:0.5;" fill="#FEFFDD"/><text x="710.421" y="1263.284" fill="#000" font-size="13" textLength="167.011" font-weight="700">PULSE 1 = 1 500.13 us high</text><text x="710.421" y="1280.99" fill="#000" font-size="13" textLength="119.938">requested 1 500 us,</text><text x="833.739" y="1280.99" fill="#000" font-size="13" textLength="33.397" font-weight="700">+0.13</text><polygon points="448.437,1314.505,458.437,1318.505,448.437,1322.505,452.437,1318.505" fill="#FFF" style="stroke:#FFF;stroke-width:1;stroke-linejoin:miter;stroke-miterlimit:10;"/><line x1="177.542" y1="1318.505" x2="454.437" y2="1318.505" style="stroke:#FFF;stroke-width:1;"/><text x="184.542" y="1312.696" fill="#000" font-size="13" textLength="80.379">TXPIN = 0x00</text><path d="M636.788,1331.505 L636.788,1500.505 L959.788,1500.505 L959.788,1341.505 L949.788,1331.505 L636.788,1331.505" style="stroke:#181818;stroke-width:0.5;" fill="#FEFFDD"/><path d="M949.788,1331.505 L949.788,1341.505 L959.788,1341.505 L949.788,1331.505" style="stroke:#181818;stroke-width:0.5;" fill="#FEFFDD"/><text x="642.788" y="1350.402" fill="#000" font-size="13" textLength="114.907" font-weight="700">GAP 1 = 18.500 ms</text><text x="764.455" y="1350.402" fill="#000" font-size="13" textLength="99.931">(dmem[6] = 223)</text><text x="642.788" y="1368.108" fill="#000" font-size="13"> </text><text x="642.788" y="1385.814" fill="#000" font-size="13" textLength="259.415">The frame period is measured across TWO</text><text x="642.788" y="1403.52" fill="#000" font-size="13" textLength="295.984">DIFFERENT pulse widths on purpose. A fixed gap</text><text x="642.788" y="1421.226" fill="#000" font-size="13" textLength="276.354">after each pulse would give 20.5 ms here and</text><text x="642.788" y="1438.932" fill="#000" font-size="13" textLength="245.856">21.0 ms at the next position - 49 Hz then</text><text x="642.788" y="1456.638" fill="#000" font-size="13" textLength="302.276">47.6 Hz - and every per-pulse WIDTH check would</text><text x="642.788" y="1474.344" fill="#000" font-size="13" textLength="265.98">still pass. This is the measurement that tells</text><text x="642.788" y="1492.05" fill="#000" font-size="13" textLength="116.194">a slot from a delay.</text><rect x="10" y="1527.712" width="966.863" height="3" fill="#EEE" style="stroke:#EEE;stroke-width:1;"/><line x1="10" y1="1527.712" x2="976.863" y2="1527.712" style="stroke:#000;stroke-width:1;"/><line x1="10" y1="1530.712" x2="976.863" y2="1530.712" style="stroke:#000;stroke-width:1;"/><rect x="337.276" y="1515.859" width="312.311" height="25.706" fill="#EEE" style="stroke:#000;stroke-width:2;"/><text x="343.276" y="1533.756" fill="#000" font-size="13" textLength="294.931" font-weight="700">positions 2..4: the widths still have to be right</text><path d="M161.542,1555.565 L469.48,1555.565 L469.48,1565.271 L459.48,1575.271 L161.542,1575.271 L161.542,1555.565" style="stroke:#000;stroke-width:1.5;" fill="#EEE"/><rect x="161.542" y="1555.565" width="806.321" height="187.648" fill="none" style="stroke:#000;stroke-width:1.5;"/><text x="176.542" y="1570.462" fill="#000" font-size="13" textLength="262.938" font-weight="700">short sweep gaps - 2.5 ms each, not slots</text><polygon points="448.437,1604.977,458.437,1608.977,448.437,1612.977,452.437,1608.977" fill="#FFF" style="stroke:#FFF;stroke-width:1;stroke-linejoin:miter;stroke-miterlimit:10;"/><line x1="177.542" y1="1608.977" x2="454.437" y2="1608.977" style="stroke:#FFF;stroke-width:1;"/><text x="184.542" y="1603.168" fill="#000" font-size="13" textLength="252.928">TXPIN = SRV_DATA / 0x00, 3 x (pulse, gap)</text><path d="M649.99,1621.977 L649.99,1737.977 L945.99,1737.977 L945.99,1631.977 L935.99,1621.977 L649.99,1621.977" style="stroke:#181818;stroke-width:0.5;" fill="#FEFFDD"/><path d="M935.99,1621.977 L935.99,1631.977 L945.99,1631.977 L935.99,1621.977" style="stroke:#181818;stroke-width:0.5;" fill="#FEFFDD"/><text x="655.99" y="1640.874" fill="#000" font-size="13" textLength="48.269" font-weight="700">1750.12</text><text x="707.639" y="1640.874" fill="#000" font-size="13" textLength="157.872">(+0.12) then 4 250.58 us\n</text><text x="655.99" y="1658.58" fill="#000" font-size="13" textLength="48.269" font-weight="700">1250.13</text><text x="707.639" y="1658.58" fill="#000" font-size="13" textLength="157.872">(+0.13) then 3 750.60 us\n</text><text x="655.99" y="1676.286" fill="#000" font-size="13" textLength="48.269" font-weight="700">2000.10</text><text x="707.639" y="1676.286" fill="#000" font-size="13" textLength="128.739">(+0.10) then (short)\n</text><text x="655.99" y="1693.992" fill="#000" font-size="13" textLength="275.873">Each short gap still exceeds 1 000 us, and the</text><text x="655.99" y="1711.698" fill="#000" font-size="13" textLength="274.976">TB PRINTS them as "a short sweep gap, not a</text><text x="655.99" y="1729.404" fill="#000" font-size="13" textLength="263.939">frame" rather than reporting them as slots.</text><rect x="10" y="1779.066" width="966.863" height="3" fill="#EEE" style="stroke:#EEE;stroke-width:1;"/><line x1="10" y1="1779.066" x2="976.863" y2="1779.066" style="stroke:#000;stroke-width:1;"/><line x1="10" y1="1782.066" x2="976.863" y2="1782.066" style="stroke:#000;stroke-width:1;"/><rect x="468.465" y="1767.213" width="49.932" height="25.706" fill="#EEE" style="stroke:#000;stroke-width:2;"/><text x="474.465" y="1785.11" fill="#000" font-size="13" textLength="32.552" font-weight="700">done</text><polygon points="448.437,1822.625,458.437,1826.625,448.437,1830.625,452.437,1826.625" fill="#FFF" style="stroke:#FFF;stroke-width:1;stroke-linejoin:miter;stroke-miterlimit:10;"/><line x1="177.542" y1="1826.625" x2="454.437" y2="1826.625" style="stroke:#FFF;stroke-width:1;"/><text x="184.542" y="1820.816" fill="#000" font-size="13" textLength="84.695">dmem[10] = 5</text><path d="M646.239,1839.625 L646.239,1919.625 L950.239,1919.625 L950.239,1849.625 L940.239,1839.625 L646.239,1839.625" style="stroke:#181818;stroke-width:0.5;" fill="#FEFFDD"/><path d="M940.239,1839.625 L940.239,1849.625 L950.239,1849.625 L940.239,1839.625" style="stroke:#181818;stroke-width:0.5;" fill="#FEFFDD"/><text x="652.239" y="1858.522" fill="#000" font-size="13" textLength="283.374">The firmware parks with the line LOW, and the</text><text x="652.239" y="1876.228" fill="#000" font-size="13" textLength="260.611">TB asserts the LAST recorded edge is a fall.</text><text x="652.239" y="1893.934" fill="#000" font-size="13" textLength="272.025">A firmware that parked high would leave the</text><text x="652.239" y="1911.64" fill="#000" font-size="13" textLength="190.684">servo held at full travel forever.</text><rect x="10" y="1947.302" width="966.863" height="3" fill="#EEE" style="stroke:#EEE;stroke-width:1;"/><line x1="10" y1="1947.302" x2="976.863" y2="1947.302" style="stroke:#000;stroke-width:1;"/><line x1="10" y1="1950.302" x2="976.863" y2="1950.302" style="stroke:#000;stroke-width:1;"/><rect x="319.81" y="1935.449" width="347.242" height="25.706" fill="#EEE" style="stroke:#000;stroke-width:2;"/><text x="325.81" y="1953.346" fill="#000" font-size="13" textLength="329.862" font-weight="700">the tolerances, and why they are the ones they are</text><path d="M125.142,1976.155 L125.142,2304.155 L850.142,2304.155 L850.142,1986.155 L840.142,1976.155 L125.142,1976.155" style="stroke:#181818;stroke-width:0.5;" fill="#FEFFDD"/><path d="M840.142,1976.155 L840.142,1986.155 L850.142,1986.155 L840.142,1976.155" style="stroke:#181818;stroke-width:0.5;" fill="#FEFFDD"/><text x="236.705" y="1995.052" fill="#000" font-size="13" textLength="308.321" font-weight="700">Bands the TB uses, and what each is protecting.</text><text x="236.705" y="2012.758" fill="#000" font-size="13" textLength="10.452">...</text><text x="236.705" y="2030.464" fill="#000" font-size="13" textLength="459.472">pulse width      1 000 .. 2 001 us   the servo would ignore or saturate outside</text><text x="236.705" y="2048.17" fill="#000" font-size="13" textLength="387.556">vs requested     +/- 30 us            the sweep would not be a sweep</text><text x="236.705" y="2065.876" fill="#000" font-size="13" textLength="466.973">frame period     19 900 .. 20 100 us  49.5 .. 50.25 Hz - the motor hums outside</text><text x="236.705" y="2083.582" fill="#000" font-size="13" textLength="450.359">short gap        > 1 000 us           a short gap is still a gap, not a second pulse</text><text x="236.705" y="2101.288" fill="#000" font-size="13" textLength="10.452">...</text><text x="236.705" y="2118.994" fill="#000" font-size="13" textLength="422.5" font-weight="700">PULSE_MAX_US is 2000 + 1, and the 1 is stated rather than hidden:</text><text x="662.585" y="2118.994" fill="#000" font-size="13">a</text><text x="236.705" y="2136.7" fill="#000" font-size="13" textLength="486.772">firmware that produced exactly 2000.0 us would otherwise sit ON the datasheet</text><text x="236.705" y="2154.406" fill="#000" font-size="13" textLength="449.15">ceiling, and a ceiling a program can land on exactly is a ceiling a rounding</text><text x="236.705" y="2172.112" fill="#000" font-size="13" textLength="135.382">error can push it over.</text><text x="236.705" y="2189.818" fill="#000" font-size="13" textLength="10.452">...</text><text x="236.705" y="2207.524" fill="#000" font-size="13" textLength="474.487" font-weight="700">Why the frame period is a band and the pulse widths are checked against</text><text x="236.705" y="2225.23" fill="#000" font-size="13" textLength="491.595">the REQUEST.&lt;/b> A frame period is two measured widths added together, so its</text><text x="236.705" y="2242.936" fill="#000" font-size="13" textLength="459.329">error is the sum of the two tables' fitting error - bounded at 0.25 us each by</text><text x="236.705" y="2260.642" fill="#000" font-size="13" textLength="459.875">the construction in the firmware header. A band is the honest shape of that</text><text x="236.705" y="2278.348" fill="#000" font-size="13" textLength="493.558">claim. The widths are compared against what the firmware was ASKED for, which</text><text x="236.705" y="2296.054" fill="#000" font-size="13" textLength="450.073">is a different and stronger statement: it pins the sweep, not just the band.</text><path d="M77.09,2314.863 L77.09,2430.863 L898.09,2430.863 L898.09,2324.863 L888.09,2314.863 L77.09,2314.863" style="stroke:#181818;stroke-width:0.5;" fill="#FEFFDD"/><path d="M888.09,2314.863 L888.09,2324.863 L898.09,2324.863 L888.09,2314.863" style="stroke:#181818;stroke-width:0.5;" fill="#FEFFDD"/><text x="83.09" y="2333.76" fill="#000" font-size="13" textLength="499.382" font-weight="700">The five measured widths are all 0.10 to 0.15 us LONG, and that is systematic.</text><text x="585.852" y="2333.76" fill="#000" font-size="13" textLength="298.025">The delay routine's clock count is exact - the core</text><text x="83.09" y="2351.466" fill="#000" font-size="13" textLength="441.597">is single-cycle, so N instructions take exactly N clocks - and the residue is</text><text x="83.09" y="2369.172" fill="#000" font-size="13" textLength="454.623">the table entry's FITTING: the outer counter is a whole number of steps, so</text><text x="83.09" y="2386.878" fill="#000" font-size="13" textLength="458.068">each entry lands at or just above its target. A count that could land short as</text><text x="83.09" y="2404.584" fill="#000" font-size="13" textLength="490.516">easily as long would be a worse mechanism, because the datasheet's interesting</text><text x="83.09" y="2422.29" fill="#000" font-size="13" textLength="233.584">bound on this protocol is a MINIMUM.</text><?plantuml-src hLXTRzjA3dttho2w3urRM_57tDu4RG7trccDJT9iujmMs2w2iJIETIDhj1efZhlO_xw7d94ivwFOX-i2gIrnE1poy92Sb_J-h_kqNbAMcy9qhSxlJBU8Lt5w4sJbAg4kxOLjakTq_ksKrd6koGbqA4ufrogXj5pDTMw3rajeEjNAbhcEQBwXOhvVpAypVMrDU2rAWZioVjN5x8JstlJezClF3ar3bPUsGyLIkxUN5-DJQ5kfC3Vj3YtYVBLMkTuNBTTshNKMPFf8jYJAoiHgwXqHzNkzNj0VKMdnUE-rVB-pefTVyVDS_xlKjj1Hkx6spsj7l7ROM3jiYWnOvEq8ZmSDaK5JPCWYWz6lj1n0P216zXeYFIUooDLAKwRps4IqLndS_I2cuMlxYFg7-0I7SiBtXArOwCjFMHwjzEgV_Tw_Q2ypDYvYk3fE8ttVPabnrUHEvnk4G9DPm2a61YtYEqsn9J632aElAmUUV3txt26LHkA-2A4FdKuBJNO35wvK4OUKAxpF8QHIIarizP5Re1EreToKHPpgbvP2KwO5xwJlLLXKUg4grpQEIZ62rnLgdcZIQP5li6eH5uMWRRsCmwK8L630MxDEQQbLXErjeGhDba7D75j5mA0gg1SC-300vr-QCgqYBc3bPPqPtMPk_4ZVBGmEQ-EV-dr_y67ba-AenkT-ZRRz6bJxDNRs6n3fU5Jq3-d9oB_Rvwq-j5hBEDBmWiwrAJQPRjdRECqKrf9TgiYiOHSj533OVCEva8QQ_jCY6kUvMVzk4fFJtuR3qMY4PoVnGfyWVXzD3YS_zrA5jpSv-zmB78_v7oJELGw4n9bAYoSrDDy_Kd9m_FRuuwxGCOvwnjvOcTJOJ8KwOiF3mkHFlpepXNxwpMVibJtrwh-jLhRTaLxyVdxr8mM9XLaPtFr8BVoOw6wu2HFzWfGblDzTaAc8tln8Pz_FfsS89Vv-dOZa-VZJhgGZLXlVf2hvaSOH47NozPl8VfjUJ5gjz-yfJ9HWIg2VWNCPVTYJQG4AwSXj04ZqxW68lLmdG1iII58TjhHtfPrPNfhsMEl9v8_92QULBO8WQBTIE8to-6PPC4smrKHuKJ61s9b0VyAvPdL17oV7NoycaiuaDkAvsAsZWCPECy4Uo_InHgrXkSkBFwu_ZMTZ930I9qu1NJWE6_OwN2HyAR0cnU4X3defQX-iuI65B2-Oi6uCBM4i66MpLfkW1U4Pv4AJLl1sX9G0gamJ6p33nUHaChwSVA8kfArXSaxm-ClqynUfN12V6vL7u1X-rIqpPFWYDok8WwzmPf1Pd5HyXEC9lM_fKXwsAjPdWjGBWtCY5UdT_4Dgu6264kdeHZDHgIHvjp__47ZhPn_9gZKjJ9cpfBQYMSWQIPp8JuY69cTQJa2qUb5Q704E2I50SU6anG0hNi6-iztumTlASvRh0K8ZGMMKOe4K2Ls_2TZ0beOTZ93dG7W044hm7T4dhju845aKAnZRr8X9p4LPK1jrE1Wm_M8o_dJfmW6tmSYLMQ4aE6WQGCab2FiAgttbc7r4k5v0KUIvBddXTX5gNXbK9Ao0iAg3cYMbMmlxh6okQbiOQP1V94OLbieieAdKh_LouxV3AeIPj49bkfXUJh1HiHIiQZgRV9-93JlraGNazPzTVE7NmTQXZzrJbJgASiJIicT04EwT8myEfl14NVBH1lN9jGxIKAKuql7LoGbg2gsGhuaf7dD8nGfrKkvn8Di0lJX7G8pKoGlxE0I0rVdL2KxVWmBPsZSGd9K26TesNGtRi4vw3IyIgKBPfKPgpO7jwX11G0E_OkkehGbClbYQRFhx-3FWFqDc3sc5q0czfyEt7TfB1vrqo6tGtg3J7w5duo2P0eqc7gNzRh_z2kqMlMP9-N7mAXs-Vjjkuz419m9tJ6KXROREiEZW5TJWPR-F7szGcyF4XBTScFkzW9k_YeMacm7Y4CFZwMm6nW6zHF5TB5p8EQt8he03vY6jyd3PuJCA2UKn36GHZSgS7_bC2BbjOs1Mf-88EUEanSB_AHJ1sxwTocyqunOhLBsp8wfRjD72GL8hfELY8kP6OY3rsIUMConu9lLtAee3p8tAVWMNp-Dp1vP3QM9MbY600qdKHXormU0GOUltE_t1iDrc0CNSuVEcyetT3aNFDqK2gQ913cvAaQyZ5d45YiaSoMtIxTbsagdFE1nvmDRStcpJeVuKfUJg0g6LIlR_vjOl4galYRGTHvv9fD5k8Wr_GS_D63qR4jdsjs3qA2HlN4Y6xGhL3prGDRZ4yvgrDFls5PAVfiV7aul9sSmJo3gEYYKx6xzpk5Yxvk0Uwm0OnkU2qIjqwbUOCi5BhcE3NZ1Y_X8Vk-8tw0T2QRunIFLziOrSbmuEESpCW90zU1kyuPzTbr2kET9vr-tpRVffzWMPfSDRjoTd8-fx0eQtDjYfClwiN8vyKw9HZoMxX5kvI-1Cu_4dU1fMbWP1S53L9d6AsssfS59Ky7dLVp6Ok2j6EYrDZec29r_s5iP2A16FiBySQV3-RCcluRSlAEZGaEunARgs1HevonuXGx3X1nH1X1zwNM4v81vOHhy1XJ_IMjeDCLlfePSU4kjvqzkHzeFELhhdfVVam6qlEM5CE1SuRc5lwVjGwyWsIaerLF8IbEVpY-dPx9AVhBYdVg4UUj6vJOcyOFh5JhNETGPnttoB2l4mzsXrNFcBH4WY776bUCG0zM3ES_WJBKoZqAFpGXcfsmJfZr3ocqV3mG1A3N8LaPFnvGoMXZnVHQwTb1R7DHVa-c-dNE3AEq1GMcQNNsXtxhHNxhgAfKvaUbwWJK8TKjmhSliAgnz0MagCINIkq6Vx2FW6QKDkJytbqswVi7jsAdYdmKCVeQ3gvX3IhKfO8yJ0tIbF42779V2iYEcaxhKbeKW-Eor4tzstR5idTtWCNzoNexHQLPI8lXHJhe7GUDUuBXADh_UxDFGtD_L7L0gad4gftvhvW1-s7jphY66eMzwo7jy9YCA3G-Gp7etapaAuIlW6pNTEonAPlZLicmh-yw7EWePXgY4NLnoZ6i279p0cHSvpjH-hEdHzElv-VNN9IpbDkTtP5i6-qwZOCysSMSPHfDCZIMXEh0VWoqrKXenJFnj8_elPpdU6DQsvn8CgwUkPkqggMaEUU7ISo8MGwvtyJsxfStF3TneXZ4Zu9Of0jOian5PKhXdSM2cjbQp9Ihla1ji8o1k--ERx_OT5JqcZMZjafyRnWQMSS4syKJpT-hdWOlAFgydbJ93BkVb0QR4sssfQAOiY6UpGny4vVaIojV5LarQkge6DbRZ6ysLrWUPbkq_SZRcycc-yWJmt5tdfx_hItJd4NRPntPQp-wsNdE05tpDb_cPHIQYummg4tvfkCIjGqDOlBhTtTk7nVdpvTtHK81r_zLTDRb6yMA05IDqD8YmrwKrr_SSr-OXZYAxMRjFIWVtFqdV4R7cJnPxb8aVCT_fnGBW5GIfLLwPFtPWgcHMtrwGkuBEdBaPvT7XuFThriSYrEtZpsaaGS2PN9ZvEEAowrJNSpwfnf5kZStl9wiEyUytAiydqxFFH4yE4U7sz1CTNFJGYp6EGpCkCGeQF6nuIOMyS7L0JVwkvuUjbBbKoXp1ot4d5Gw6hFn99OIebi5OsnYa0WWJ1zSGWXBeskULmX62QsAuwU1ggqbsmR5a2vudPT63I9RbWtbqg-V9HNNGeEfsUJK-lJXk0-1y0?></g></svg>