<svg xmlns="http://www.w3.org/2000/svg" xmlns:xlink="http://www.w3.org/1999/xlink" version="1.1" data-diagram-type="STATE" style="width:2577px;height:2316px;background:#FFFFFF;" width="2577px" height="2316px" viewBox="0 0 2577 2316" zoomAndPan="magnify" preserveAspectRatio="none" contentStyleType="text/css"><?plantuml 1.2026.8?><defs/><g font-family="sans-serif" lengthAdjust="spacing"><g class="title" data-source-line="65"><text x="944.807" y="24.966" fill="#000" font-size="14" textLength="680.397" font-weight="700" font-family="monospace">DMX512-A at 250 kbaud — the frame layer, and the one counted cell every byte uses</text></g><!--cluster fr--><g class="cluster" data-qualified-name="fr" id="ent0001" data-source-line="73"><path d="M19.5,121.068 L673.5,121.068 A12.5,12.5 0 0 1 686,133.568 L686,145.136 L7,145.136 L7,133.568 A12.5,12.5 0 0 1 19.5,121.068" fill="#F0F3F7"/><path d="M7,145.136 L686,145.136 L686,2288.848 A12.5,12.5 0 0 1 673.5,2301.348 L19.5,2301.348 A12.5,12.5 0 0 1 7,2288.848 L7,145.136" fill="#F0F3F7"/><rect x="7" y="121.068" width="679" height="2180.28" fill="none" style="stroke:#6B7686;stroke-width:0.5;" rx="12.5" ry="12.5"/><line x1="7" y1="145.136" x2="686" y2="145.136" style="stroke:#6B7686;stroke-width:0.5;"/><text x="144.901" y="140.034" fill="#1F2933" font-size="14" textLength="403.198" font-family="monospace">FRAME LAYER — break, mark, start code, 512 slots</text></g><g class="entity" data-qualified-name="fr.f1" id="ent0002" data-source-line="74"><rect x="169.2" y="167.068" width="473.598" height="139.855" fill="#FADBD8" style="stroke:#A93226;stroke-width:0.5;" rx="12.5" ry="12.5"/><line x1="169.2" y1="296.923" x2="642.798" y2="296.923" style="stroke:#A93226;stroke-width:0.5;"/><text x="179.2" y="187.034" fill="#5B1610" font-size="14" textLength="75.6" font-family="monospace">THE BREAK</text><text x="179.2" y="206.102" fill="#5B1610" font-size="14" textLength="453.598" font-family="monospace">LDI A,0 / OUT TXPIN  — the line going LOW IS the break</text><text x="179.2" y="225.17" fill="#5B1610" font-size="14" textLength="151.199" font-family="monospace">LDI A,22 / STM 6,A</text><text x="179.2" y="244.238" fill="#5B1610" font-size="14" textLength="361.198" font-family="monospace">117 iterations of a 2-instruction body plus</text><text x="179.2" y="263.306" fill="#5B1610" font-size="14" textLength="386.398" font-family="monospace">236 clocks of delay = 240 clocks per iteration</text><text x="179.2" y="286.649" fill="#5B1610" font-size="18" textLength="269.998" font-weight="700" font-family="monospace">22 x 4.000 us = 88.000 us</text></g><g class="entity" data-qualified-name="fr.f2" id="ent0003" data-source-line="75"><rect x="202" y="600.418" width="439.998" height="115.34" fill="#FADBD8" style="stroke:#A93226;stroke-width:0.5;" rx="12.5" ry="12.5"/><line x1="202" y1="705.758" x2="641.998" y2="705.758" style="stroke:#A93226;stroke-width:0.5;"/><text x="212" y="620.384" fill="#5B1610" font-size="14" textLength="67.2" font-family="monospace">THE MARK</text><text x="212" y="639.452" fill="#5B1610" font-size="14" textLength="419.998" font-family="monospace">LDI A,1 / OUT TXPIN  — released ONCE, here, not in</text><text x="212" y="658.52" fill="#5B1610" font-size="14" textLength="386.398" font-family="monospace">the loop: an OUT inside it would make the mark</text><text x="212" y="677.588" fill="#5B1610" font-size="14" textLength="268.799" font-family="monospace">depend on which iteration it was</text><text x="212" y="696.656" fill="#5B1610" font-size="14" textLength="260.399" font-family="monospace">LDI A,3 = 3 x 4.000 = 12.000 us</text></g><g class="entity" data-qualified-name="fr.f3" id="ent0004" data-source-line="76"><rect x="239" y="1062.808" width="397.998" height="115.34" fill="#D6EAF8" style="stroke:#2E6DA4;stroke-width:0.5;" rx="12.5" ry="12.5"/><line x1="239" y1="1168.148" x2="636.998" y2="1168.148" style="stroke:#2E6DA4;stroke-width:0.5;"/><text x="249" y="1082.774" fill="#16324F" font-size="14" textLength="117.599" font-family="monospace">THE START CODE</text><text x="249" y="1101.842" fill="#16324F" font-size="14" textLength="226.799" font-family="monospace">dmem[7] = 0, dmem[8] = 0x00</text><text x="249" y="1120.91" fill="#16324F" font-size="14" textLength="361.198" font-family="monospace">it goes out through the SAME transmitter as</text><text x="249" y="1139.978" fill="#16324F" font-size="14" textLength="377.998" font-family="monospace">the data slots, so there is one bit format in</text><text x="249" y="1159.046" fill="#16324F" font-size="14" textLength="176.399" font-family="monospace">this file and not two</text></g><g class="entity" data-qualified-name="fr.f4" id="ent0005" data-source-line="77"><rect x="241" y="1310.718" width="397.998" height="172.543" fill="#F0F3F7" style="stroke:#6B7686;stroke-width:0.5;" rx="12.5" ry="12.5"/><line x1="241" y1="1473.261" x2="638.998" y2="1473.261" style="stroke:#6B7686;stroke-width:0.5;"/><text x="251" y="1330.684" fill="#1F2933" font-size="14" textLength="84" font-family="monospace">first_data</text><text x="251" y="1349.752" fill="#1F2933" font-size="14" textLength="310.799" font-family="monospace">dmem[1] = 0, dmem[2] = 0, dmem[9] = 0</text><text x="251" y="1368.82" fill="#1F2933" font-size="14" textLength="369.598" font-family="monospace">THE PAGE COUNTER, and this line is the whole</text><text x="251" y="1387.888" fill="#1F2933" font-size="14" textLength="352.798" font-family="monospace">difference between a frame that ends and a</text><text x="251" y="1406.956" fill="#1F2933" font-size="14" textLength="361.198" font-family="monospace">transmitter that runs for ever. It was left</text><text x="251" y="1426.023" fill="#1F2933" font-size="14" textLength="369.598" font-family="monospace">uninitialised, so at the first page boundary</text><text x="251" y="1445.091" fill="#1F2933" font-size="14" textLength="377.998" font-family="monospace">it was x, x+1 is x, and SUB A,2 on an x is an</text><text x="251" y="1464.159" fill="#1F2933" font-size="14" textLength="218.399" font-family="monospace">x: the frame never stopped</text></g><g class="entity" data-qualified-name="fr.f5" id="ent0006" data-source-line="78"><rect x="232.6" y="1544.258" width="414.798" height="77.204" fill="#D6EAF8" style="stroke:#2E6DA4;stroke-width:0.5;" rx="12.5" ry="12.5"/><line x1="232.6" y1="1611.462" x2="647.398" y2="1611.462" style="stroke:#2E6DA4;stroke-width:0.5;"/><text x="242.6" y="1564.224" fill="#16324F" font-size="14" textLength="42" font-family="monospace">slots</text><text x="242.6" y="1583.292" fill="#16324F" font-size="14" textLength="394.798" font-family="monospace">dmem[8] = dmem[2]  (the slot value IS the ramp)</text><text x="242.6" y="1602.36" fill="#16324F" font-size="14" textLength="319.199" font-family="monospace">dmem[7] = 1  (this one IS a data slot)</text></g><g class="entity" data-qualified-name="fr.f6" id="ent0007" data-source-line="79"><rect x="31.4" y="1700.468" width="465.198" height="172.543" fill="#F0F3F7" style="stroke:#6B7686;stroke-width:0.5;" rx="12.5" ry="12.5"/><line x1="31.4" y1="1863.011" x2="496.598" y2="1863.011" style="stroke:#6B7686;stroke-width:0.5;"/><text x="41.4" y="1720.434" fill="#1F2933" font-size="14" textLength="75.6" font-family="monospace">slot_done</text><text x="41.4" y="1739.502" fill="#1F2933" font-size="14" textLength="445.198" font-family="monospace">dmem[2] + 1  (8 bits, so this wraps at 255 by itself)</text><text x="41.4" y="1758.57" fill="#1F2933" font-size="14" textLength="209.999" font-family="monospace">dmem[1] + 1 / JZ page_end</text><text x="41.4" y="1777.638" fill="#1F2933" font-size="14" textLength="344.398" font-family="monospace">THE PAGE COUNTER IS NOT INCREMENTED HERE,</text><text x="41.4" y="1796.706" fill="#1F2933" font-size="14" textLength="361.198" font-family="monospace">and the first version did it on every slot,</text><text x="41.4" y="1815.773" fill="#1F2933" font-size="14" textLength="369.598" font-family="monospace">which ended the frame after TWO data slots —</text><text x="41.4" y="1834.841" fill="#1F2933" font-size="14" textLength="344.398" font-family="monospace">because 2 was the page count and the page</text><text x="41.4" y="1853.909" fill="#1F2933" font-size="14" textLength="319.199" font-family="monospace">counter was being asked to count slots</text></g><g class="entity" data-qualified-name="fr.f7" id="ent0008" data-source-line="80"><rect x="310.8" y="1952.008" width="280.399" height="77.204" fill="#F0F3F7" style="stroke:#6B7686;stroke-width:0.5;" rx="12.5" ry="12.5"/><line x1="310.8" y1="2019.212" x2="591.199" y2="2019.212" style="stroke:#6B7686;stroke-width:0.5;"/><text x="320.8" y="1971.974" fill="#1F2933" font-size="14" textLength="67.2" font-family="monospace">page_end</text><text x="320.8" y="1991.042" fill="#1F2933" font-size="14" textLength="260.399" font-family="monospace">dmem[9] + 1 / SUB A,2 / JZ done</text><text x="320.8" y="2010.11" fill="#1F2933" font-size="14" textLength="260.399" font-family="monospace">512 data slots = 2 pages of 256</text></g><g class="entity" data-qualified-name="fr.f8" id="ent0009" data-source-line="81"><rect x="378" y="2108.208" width="145.999" height="58.136" fill="#EEF3FB" style="stroke:#4A6FA5;stroke-width:0.5;" rx="12.5" ry="12.5"/><line x1="378" y1="2156.344" x2="523.999" y2="2156.344" style="stroke:#4A6FA5;stroke-width:0.5;"/><text x="388" y="2128.174" fill="#16324F" font-size="14" textLength="33.6" font-family="monospace">done</text><text x="388" y="2147.242" fill="#16324F" font-size="14" textLength="125.999" font-family="monospace">dmem[10] = 0xA5</text></g><g class="entity" data-qualified-name="fr.f9" id="ent0010" data-source-line="82"><rect x="424.2" y="2227.348" width="53.6" height="50" fill="#EEF3FB" style="stroke:#4A6FA5;stroke-width:0.5;" rx="12.5" ry="12.5"/><line x1="424.2" y1="2256.416" x2="477.8" y2="2256.416" style="stroke:#4A6FA5;stroke-width:0.5;"/><text x="434.2" y="2247.314" fill="#16324F" font-size="14" textLength="33.6" font-family="monospace">park</text></g><g class="entity" data-qualified-name="tx" id="ent0011" data-source-line="95"><path d="M722.48,367.928 L2549.51,367.928 A12.5,12.5 0 0 1 2562.01,380.428 L2562.01,396.996 L709.98,396.996 L709.98,380.428 A12.5,12.5 0 0 1 722.48,367.928" fill="#F0F3F7"/><path d="M709.98,396.996 L2562.01,396.996 L2562.01,935.747 A12.5,12.5 0 0 1 2549.51,948.247 L722.48,948.247 A12.5,12.5 0 0 1 709.98,935.747 L709.98,396.996" fill="#F0F3F7"/><rect x="709.98" y="367.928" width="1852.03" height="580.319" fill="none" style="stroke:#6B7686;stroke-width:0.5;" rx="12.5" ry="12.5"/><line x1="709.98" y1="396.996" x2="2562.01" y2="396.996" style="stroke:#6B7686;stroke-width:0.5;"/><text x="1383.996" y="387.894" fill="#1F2933" font-size="14" textLength="503.998" font-family="monospace">TRANSMITTER — 250 kbaud, 8N2, one loop over ELEVEN bit cells</text><g class="entity" data-qualified-name="tx.g0" id="ent0012" data-source-line="96"><rect x="1494.58" y="408.996" width="473.598" height="153.475" fill="#F0F3F7" style="stroke:#6B7686;stroke-width:0.5;" rx="12.5" ry="12.5"/><line x1="1494.58" y1="552.471" x2="1968.178" y2="552.471" style="stroke:#6B7686;stroke-width:0.5;"/><text x="1504.58" y="428.962" fill="#1F2933" font-size="14" textLength="428.398" font-family="monospace">sbit — the dispatch, and its four different lengths</text><text x="1504.58" y="448.03" fill="#1F2933" font-size="14" textLength="251.999" font-family="monospace">LDM A,5 / SUB A,9 / JZ sb_stop</text><text x="1504.58" y="467.098" fill="#1F2933" font-size="14" textLength="293.999" font-family="monospace">SUB A,1 / JZ sb_stop2 / JZ sb_start</text><text x="1504.58" y="486.166" fill="#1F2933" font-size="14" textLength="453.598" font-family="monospace">cells 1-8: 7 instructions of dispatch then LDM+AND+OUT</text><text x="1504.58" y="505.233" fill="#1F2933" font-size="14" textLength="310.799" font-family="monospace">cell 0: the same 7, the last JZ taken</text><text x="1504.58" y="524.301" fill="#1F2933" font-size="14" textLength="403.198" font-family="monospace">cell 9: 2 instructions of dispatch, then LDI+OUT</text><text x="1504.58" y="543.369" fill="#1F2933" font-size="14" textLength="302.399" font-family="monospace">cell 10: 3 of dispatch, then LDI+OUT</text></g><g class="entity" data-qualified-name="tx.g1" id="ent0013" data-source-line="97"><rect x="721.98" y="599.466" width="372.798" height="134.408" fill="#D6EAF8" style="stroke:#2E6DA4;stroke-width:0.5;" rx="12.5" ry="12.5"/><line x1="721.98" y1="723.873" x2="1094.778" y2="723.873" style="stroke:#2E6DA4;stroke-width:0.5;"/><text x="731.98" y="619.432" fill="#16324F" font-size="14" textLength="125.999" font-family="monospace">the DATA branch</text><text x="731.98" y="638.5" fill="#16324F" font-size="14" textLength="344.398" font-family="monospace">LDM A,0 / AND A,1 / OUT TXPIN — LSB first</text><text x="731.98" y="657.568" fill="#16324F" font-size="14" textLength="352.798" font-family="monospace">then LDM/SHR/STM: the shift lives HERE and</text><text x="731.98" y="676.636" fill="#16324F" font-size="14" textLength="344.398" font-family="monospace">not in the common tail. On a ramp the LOW</text><text x="731.98" y="695.703" fill="#16324F" font-size="14" textLength="344.398" font-family="monospace">bits are the difference between a fixture</text><text x="731.98" y="714.771" fill="#16324F" font-size="14" textLength="268.799" font-family="monospace">that works and one that does not</text></g><g class="entity" data-qualified-name="tx.g2" id="ent0014" data-source-line="98"><rect x="1112.38" y="599.466" width="397.998" height="134.408" fill="#FADBD8" style="stroke:#A93226;stroke-width:0.5;" rx="12.5" ry="12.5"/><line x1="1112.38" y1="723.873" x2="1510.378" y2="723.873" style="stroke:#A93226;stroke-width:0.5;"/><text x="1122.38" y="619.432" fill="#5B1610" font-size="14" textLength="142.799" font-family="monospace">sb_start — cell 0</text><text x="1122.38" y="638.5" fill="#5B1610" font-size="14" textLength="159.599" font-family="monospace">LDI A,0 / OUT TXPIN</text><text x="1122.38" y="657.568" fill="#5B1610" font-size="14" textLength="335.999" font-family="monospace">3 NOPs. This dispatch is one instruction</text><text x="1122.38" y="676.636" fill="#5B1610" font-size="14" textLength="377.998" font-family="monospace">shorter than a data cell's, and the cell that</text><text x="1122.38" y="695.703" fill="#5B1610" font-size="14" textLength="361.198" font-family="monospace">has to be 240 clocks is the DATA cell after</text><text x="1122.38" y="714.771" fill="#5B1610" font-size="14" textLength="134.399" font-family="monospace">it, not this one</text></g><g class="entity" data-qualified-name="tx.g3" id="ent0015" data-source-line="99"><rect x="1528.18" y="609.006" width="406.398" height="115.34" fill="#FADBD8" style="stroke:#A93226;stroke-width:0.5;" rx="12.5" ry="12.5"/><line x1="1528.18" y1="714.345" x2="1934.578" y2="714.345" style="stroke:#A93226;stroke-width:0.5;"/><text x="1538.18" y="628.972" fill="#5B1610" font-size="14" textLength="134.399" font-family="monospace">sb_stop — cell 9</text><text x="1538.18" y="648.04" fill="#5B1610" font-size="14" textLength="386.398" font-family="monospace">5 NOPs: the shortest dispatch in the file, and</text><text x="1538.18" y="667.108" fill="#5B1610" font-size="14" textLength="335.999" font-family="monospace">the cell it must make correct is cell 8.</text><text x="1538.18" y="686.176" fill="#5B1610" font-size="14" textLength="302.399" font-family="monospace">Then LDI A,1 / OUT, then 2 NOPs, for</text><text x="1538.18" y="705.243" fill="#5B1610" font-size="14" textLength="226.799" font-family="monospace">cell 9 rather than this one</text></g><g class="entity" data-qualified-name="tx.g4" id="ent0016" data-source-line="100"><rect x="1952.58" y="609.006" width="389.598" height="115.34" fill="#FADBD8" style="stroke:#A93226;stroke-width:0.5;" rx="12.5" ry="12.5"/><line x1="1952.58" y1="714.345" x2="2342.178" y2="714.345" style="stroke:#A93226;stroke-width:0.5;"/><text x="1962.58" y="628.972" fill="#5B1610" font-size="14" textLength="151.199" font-family="monospace">sb_stop2 — cell 10</text><text x="1962.58" y="648.04" fill="#5B1610" font-size="14" textLength="369.598" font-family="monospace">4 NOPs, and they are here for cell 9's sake,</text><text x="1962.58" y="667.108" fill="#5B1610" font-size="14" textLength="369.598" font-family="monospace">not this cell's. FALLS THROUGH into sb_hold:</text><text x="1962.58" y="686.176" fill="#5B1610" font-size="14" textLength="352.798" font-family="monospace">this is the last cell of a slot, so it has</text><text x="1962.58" y="705.243" fill="#5B1610" font-size="14" textLength="319.199" font-family="monospace">no successor whose length has to match</text></g><g class="entity" data-qualified-name="tx.g5" id="ent0017" data-source-line="101"><rect x="1499.98" y="770.876" width="462.797" height="164.371" fill="#F0F3F7" style="stroke:#6B7686;stroke-width:0.5;" rx="12.5" ry="12.5"/><line x1="1499.98" y1="925.247" x2="1962.777" y2="925.247" style="stroke:#6B7686;stroke-width:0.5;"/><text x="1509.98" y="790.842" fill="#1F2933" font-size="14" textLength="58.8" font-family="monospace">sb_hold</text><text x="1509.98" y="809.91" fill="#1F2933" font-size="14" textLength="327.599" font-family="monospace">LDI A,109  (1 clock) then SUB A,1 / JNZ</text><text x="1509.98" y="833.254" fill="#1F2933" font-size="18" textLength="442.797" font-weight="700" font-family="monospace">109 x 2 = 218.  21 + 1 + 218 = 240 clocks</text><text x="1509.98" y="857.769" fill="#1F2933" font-size="18" textLength="334.798" font-weight="700" font-family="monospace">4.000 us = exactly 250,000 baud</text><text x="1509.98" y="878.009" fill="#1F2933" font-size="14" textLength="344.398" font-family="monospace">218 = 2 x 109 and 109 is prime: this or a</text><text x="1509.98" y="897.077" fill="#1F2933" font-size="14" textLength="369.598" font-family="monospace">109-instruction body run twice, which is the</text><text x="1509.98" y="916.145" fill="#1F2933" font-size="14" textLength="293.999" font-family="monospace">same arithmetic written in 107 NOPs</text></g><!--link g0 to g1--><g class="link" data-entity-1="ent0012" data-entity-2="ent0013" id="lnk29" data-source-line="102" data-link-type="dependency"><path d="M1494.35,520.686 C1375.99,539.806 1231.15,566.506 1103.38,599.466 C1100.61,600.186 1102.65,599.622 1099.85,600.372" style="stroke:#1F2933;stroke-width:1;" fill="none" id="g0-to-g1"/><polygon points="1095.02,601.666,1104.748,603.201,1099.85,600.372,1102.679,595.473,1095.02,601.666" fill="#1F2933" style="stroke:#1F2933;stroke-width:1;stroke-linejoin:miter;stroke-miterlimit:10;"/></g><!--link g0 to g2--><g class="link" data-entity-1="ent0012" data-entity-2="ent0014" id="lnk30" data-source-line="103" data-link-type="dependency"><path d="M1552.65,562.876 C1524.41,574.906 1499.99,585.316 1472.31,597.106" style="stroke:#1F2933;stroke-width:1;" fill="none" id="g0-to-g2"/><polygon points="1467.71,599.066,1477.558,599.219,1472.31,597.106,1474.423,591.859,1467.71,599.066" fill="#1F2933" style="stroke:#1F2933;stroke-width:1;stroke-linejoin:miter;stroke-miterlimit:10;"/></g><!--link g0 to g3--><g class="link" data-entity-1="ent0012" data-entity-2="ent0015" id="lnk31" data-source-line="104" data-link-type="dependency"><path d="M1731.38,562.876 C1731.38,578.196 1731.38,589.036 1731.38,603.566" style="stroke:#1F2933;stroke-width:1;" fill="none" id="g0-to-g3"/><polygon points="1731.38,608.566,1735.38,599.566,1731.38,603.566,1727.38,599.566,1731.38,608.566" fill="#1F2933" style="stroke:#1F2933;stroke-width:1;stroke-linejoin:miter;stroke-miterlimit:10;"/></g><!--link g0 to g4--><g class="link" data-entity-1="ent0012" data-entity-2="ent0016" id="lnk32" data-source-line="105" data-link-type="dependency"><path d="M1908.4,562.876 C1944.01,578.196 1976.257,592.06 2010.037,606.59" style="stroke:#1F2933;stroke-width:1;" fill="none" id="g0-to-g4"/><polygon points="2014.63,608.566,2007.943,601.335,2010.037,606.59,2004.782,608.684,2014.63,608.566" fill="#1F2933" style="stroke:#1F2933;stroke-width:1;stroke-linejoin:miter;stroke-miterlimit:10;"/></g><!--link g1 to g5--><g class="link" data-entity-1="ent0013" data-entity-2="ent0017" id="lnk33" data-source-line="106" data-link-type="dependency"><path d="M1095.03,731.636 C1097.83,732.406 1100.61,733.146 1103.38,733.876 C1233.09,767.916 1375.391,795.315 1494.671,815.655" style="stroke:#1F2933;stroke-width:1;" fill="none" id="g1-to-g5"/><polygon points="1499.6,816.496,1491.4,811.04,1494.671,815.655,1490.056,818.926,1499.6,816.496" fill="#1F2933" style="stroke:#1F2933;stroke-width:1;stroke-linejoin:miter;stroke-miterlimit:10;"/></g><!--link g2 to g5--><g class="link" data-entity-1="ent0014" data-entity-2="ent0017" id="lnk34" data-source-line="107" data-link-type="dependency"><path d="M1463.31,734.366 C1489.96,746.076 1513.391,756.367 1540.851,768.417" style="stroke:#1F2933;stroke-width:1;" fill="none" id="g2-to-g5"/><polygon points="1545.43,770.426,1538.796,763.146,1540.851,768.417,1535.581,770.472,1545.43,770.426" fill="#1F2933" style="stroke:#1F2933;stroke-width:1;stroke-linejoin:miter;stroke-miterlimit:10;"/></g><!--link g3 to g5--><g class="link" data-entity-1="ent0015" data-entity-2="ent0017" id="lnk35" data-source-line="108" data-link-type="dependency"><path d="M1731.38,724.746 C1731.38,739.236 1731.38,750.096 1731.38,765.536" style="stroke:#1F2933;stroke-width:1;" fill="none" id="g3-to-g5"/><polygon points="1731.38,770.536,1735.38,761.536,1731.38,765.536,1727.38,761.536,1731.38,770.536" fill="#1F2933" style="stroke:#1F2933;stroke-width:1;stroke-linejoin:miter;stroke-miterlimit:10;"/></g><!--link g4 to g5--><g class="link" data-entity-1="ent0016" data-entity-2="ent0017" id="lnk36" data-source-line="109" data-link-type="dependency"><path d="M2018.6,724.746 C1985.91,739.236 1954.721,753.07 1919.871,768.51" style="stroke:#1F2933;stroke-width:1;" fill="none" id="g4-to-g5"/><polygon points="1915.3,770.536,1925.149,770.547,1919.871,768.51,1921.908,763.233,1915.3,770.536" fill="#1F2933" style="stroke:#1F2933;stroke-width:1;stroke-linejoin:miter;stroke-miterlimit:10;"/></g><!--link g5 to g0--><g class="link" data-entity-1="ent0017" data-entity-2="ent0012" id="lnk37" data-source-line="110" data-link-type="dependency"><path d="M1963.27,838.086 C2118.08,823.366 2302,793.556 2351.38,733.876 C2389.46,687.846 2389.65,645.326 2351.38,599.466 C2302.4,540.776 2127.111,513.004 1973.491,499.484" style="stroke:#1F2933;stroke-width:1;" fill="none" id="g5-to-g0"/><polygon points="1968.51,499.046,1977.125,503.819,1973.491,499.484,1977.826,495.85,1968.51,499.046" fill="#1F2933" style="stroke:#1F2933;stroke-width:1;stroke-linejoin:miter;stroke-miterlimit:10;"/><text x="2381.01" y="672.063" fill="#1F2933" font-size="13" textLength="156" font-family="monospace">dmem[4]--, dmem[5]++</text></g></g><g class="entity" data-qualified-name="so" id="ent0018" data-source-line="113"><rect x="710.2" y="1034.208" width="431.598" height="172.543" fill="#F0F3F7" style="stroke:#6B7686;stroke-width:0.5;" rx="12.5" ry="12.5"/><line x1="710.2" y1="1196.751" x2="1141.798" y2="1196.751" style="stroke:#6B7686;stroke-width:0.5;"/><text x="720.2" y="1054.174" fill="#1F2933" font-size="14" textLength="310.799" font-family="monospace">slot_out — ONE EXIT FOR ALL 513 SLOTS</text><text x="720.2" y="1073.242" fill="#1F2933" font-size="14" textLength="403.198" font-family="monospace">NO RETURN POINT AND NO DISPATCH: the frame layer</text><text x="720.2" y="1092.31" fill="#1F2933" font-size="14" textLength="327.599" font-family="monospace">JMPs in and this block falls out of the</text><text x="720.2" y="1111.378" fill="#1F2933" font-size="14" textLength="394.798" font-family="monospace">transmitter's last cell, so the continuation IS</text><text x="720.2" y="1130.446" fill="#1F2933" font-size="14" textLength="386.398" font-family="monospace">the program counter. Noticing that the control</text><text x="720.2" y="1149.513" fill="#1F2933" font-size="14" textLength="403.198" font-family="monospace">flow already provides the thing the ISA lacks is</text><text x="720.2" y="1168.581" fill="#1F2933" font-size="14" textLength="386.398" font-family="monospace">worth more than the dmem slot would have been.</text><text x="720.2" y="1187.649" fill="#1F2933" font-size="14" textLength="411.598" font-family="monospace">dmem[3]++ then dmem[7] decides what leaving means</text></g><g class="start_entity" data-qualified-name=".start." id="ent0038" data-source-line="115"><ellipse cx="678" cy="56.068" rx="10" ry="10" fill="#222" style="stroke:#222;stroke-width:1;"/></g><g class="entity" data-qualified-name="GMN44" id="ent0045" data-source-line="122"><path d="M1177.2,1009.248 L1177.2,1116.478 L1141.98,1120.478 L1177.2,1124.478 L1177.2,1231.72 A0,0 0 0 0 1177.2,1231.72 L1564.8,1231.72 A0,0 0 0 0 1564.8,1231.72 L1564.8,1019.248 L1554.8,1009.248 L1177.2,1009.248 A0,0 0 0 0 1177.2,1009.248" style="stroke:#9A7B0A;stroke-width:0.5;" fill="#FFF3C4"/><path d="M1554.8,1009.248 L1554.8,1019.248 L1564.8,1019.248 L1554.8,1009.248" style="stroke:#9A7B0A;stroke-width:0.5;" fill="#FFF3C4"/><text x="1183.2" y="1028.145" fill="#3A2E00" font-size="13" textLength="327.6" font-family="monospace">THE START CODE'S EXIT MUST NOT ADVANCE THE</text><text x="1183.2" y="1045.851" fill="#3A2E00" font-size="13" textLength="358.8" font-family="monospace">RAMP. The payload is deliberately "data slot k</text><text x="1183.2" y="1063.557" fill="#3A2E00" font-size="13" textLength="351" font-family="monospace">has value k", so the first data slot is 0x00,</text><text x="1183.2" y="1081.263" fill="#3A2E00" font-size="13" textLength="351" font-family="monospace">and an exit that advanced the ramp on the way</text><text x="1183.2" y="1098.969" fill="#3A2E00" font-size="13" textLength="351" font-family="monospace">past the start code would make the first data</text><text x="1183.2" y="1116.675" fill="#3A2E00" font-size="13" textLength="335.4" font-family="monospace">slot 0x01 and the payload "k + 1" - still a</text><text x="1183.2" y="1134.381" fill="#3A2E00" font-size="13" textLength="358.8" font-family="monospace">ramp, still a legal fixture, and one index out</text><text x="1183.2" y="1152.087" fill="#3A2E00" font-size="13" textLength="358.8" font-family="monospace">of step with every document describing it. The</text><text x="1183.2" y="1169.793" fill="#3A2E00" font-size="13" textLength="351" font-family="monospace">first version had exactly that bug and the TB</text><text x="1183.2" y="1187.499" fill="#3A2E00" font-size="13" textLength="366.6" font-family="monospace">caught it as a single mismatched slot, which is</text><text x="1183.2" y="1205.205" fill="#3A2E00" font-size="13" textLength="288.6" font-family="monospace">the cheapest possible way to catch an</text><text x="1183.2" y="1222.911" fill="#3A2E00" font-size="13" textLength="241.8" font-family="monospace">off-by-one in a 513-slot frame.</text></g><!--link f1 to f2--><g class="link" data-entity-1="ent0002" data-entity-2="ent0003" id="lnk19" data-source-line="83" data-link-type="dependency"><path d="M408.64,307.198 C411.77,389.158 416.729,519.112 419.639,595.242" style="stroke:#1F2933;stroke-width:1;" fill="none" id="f1-to-f2"/><polygon points="419.83,600.238,423.483,591.092,419.639,595.242,415.489,591.397,419.83,600.238" fill="#1F2933" style="stroke:#1F2933;stroke-width:1;stroke-linejoin:miter;stroke-miterlimit:10;"/></g><!--link f2 to f3--><g class="link" data-entity-1="ent0003" data-entity-2="ent0004" id="lnk20" data-source-line="84" data-link-type="dependency"><path d="M423.98,715.998 C427.05,804.418 432.767,968.781 435.837,1057.341" style="stroke:#1F2933;stroke-width:1;" fill="none" id="f2-to-f3"/><polygon points="436.01,1062.338,439.696,1053.205,435.837,1057.341,431.701,1053.482,436.01,1062.338" fill="#1F2933" style="stroke:#1F2933;stroke-width:1;stroke-linejoin:miter;stroke-miterlimit:10;"/></g><!--link f3 to f4--><g class="link" data-entity-1="ent0004" data-entity-2="ent0005" id="lnk21" data-source-line="85" data-link-type="dependency"><path d="M438.41,1178.358 C438.69,1216.438 439.023,1262.268 439.343,1305.228" style="stroke:#1F2933;stroke-width:1;" fill="none" id="f3-to-f4"/><polygon points="439.38,1310.228,443.313,1301.198,439.343,1305.228,435.313,1301.258,439.38,1310.228" fill="#1F2933" style="stroke:#1F2933;stroke-width:1;stroke-linejoin:miter;stroke-miterlimit:10;"/></g><!--link f4 to f5--><g class="link" data-entity-1="ent0005" data-entity-2="ent0006" id="lnk22" data-source-line="86" data-link-type="dependency"><path d="M440,1483.738 C440,1504.898 440,1521.498 440,1539.018" style="stroke:#1F2933;stroke-width:1;" fill="none" id="f4-to-f5"/><polygon points="440,1544.018,444,1535.018,440,1539.018,436,1535.018,440,1544.018" fill="#1F2933" style="stroke:#1F2933;stroke-width:1;stroke-linejoin:miter;stroke-miterlimit:10;"/></g><!--link f5 to f6--><g class="link" data-entity-1="ent0006" data-entity-2="ent0007" id="lnk23" data-source-line="87" data-link-type="dependency"><path d="M350.48,1621.868 C337.4,1630.218 324.99,1640.048 315,1651.468 C302.76,1665.448 295.248,1678.04 288.028,1695.42" style="stroke:#1F2933;stroke-width:1;" fill="none" id="f5-to-f6"/><polygon points="286.11,1700.038,293.257,1693.261,288.028,1695.42,285.869,1690.192,286.11,1700.038" fill="#1F2933" style="stroke:#1F2933;stroke-width:1;stroke-linejoin:miter;stroke-miterlimit:10;"/></g><!--link f6 to f5--><g class="link" data-entity-1="ent0007" data-entity-2="ent0006" id="lnk24" data-source-line="88" data-link-type="dependency"><path d="M338.54,1700.238 C362.38,1672.888 384.293,1647.756 403.613,1625.606" style="stroke:#1F2933;stroke-width:1;" fill="none" id="f6-to-f5"/><polygon points="406.9,1621.838,397.97,1625.991,403.613,1625.606,403.999,1631.25,406.9,1621.838" fill="#1F2933" style="stroke:#1F2933;stroke-width:1;stroke-linejoin:miter;stroke-miterlimit:10;"/><text x="379.05" y="1666.365" fill="#1F2933" font-size="13" textLength="148.2" font-family="monospace">not a page boundary</text></g><!--link f6 to f7--><g class="link" data-entity-1="ent0007" data-entity-2="ent0008" id="lnk25" data-source-line="89" data-link-type="dependency"><path d="M343.3,1873.348 C368.59,1900.648 391.892,1925.8 412.382,1947.92" style="stroke:#1F2933;stroke-width:1;" fill="none" id="f6-to-f7"/><polygon points="415.78,1951.588,412.598,1942.267,412.382,1947.92,406.729,1947.704,415.78,1951.588" fill="#1F2933" style="stroke:#1F2933;stroke-width:1;stroke-linejoin:miter;stroke-miterlimit:10;"/><text x="386.18" y="1917.905" fill="#1F2933" font-size="13" textLength="70.2" font-family="monospace">256 slots</text></g><!--link f7 to f5--><g class="link" data-entity-1="ent0008" data-entity-2="ent0006" id="lnk26" data-source-line="90" data-link-type="dependency"><path d="M477.23,1951.578 C518.38,1886.778 588.27,1752.208 536,1651.468 C530.09,1640.068 525.083,1633.422 515.143,1624.992" style="stroke:#1F2933;stroke-width:1;" fill="none" id="f7-to-f5"/><polygon points="511.33,1621.758,515.607,1630.63,515.143,1624.992,520.781,1624.528,511.33,1621.758" fill="#1F2933" style="stroke:#1F2933;stroke-width:1;stroke-linejoin:miter;stroke-miterlimit:10;"/><text x="555.66" y="1792.135" fill="#1F2933" font-size="13" textLength="85.8" font-family="monospace">dmem[9] &lt; 2</text></g><!--link f7 to f8--><g class="link" data-entity-1="ent0008" data-entity-2="ent0009" id="lnk27" data-source-line="91" data-link-type="dependency"><path d="M451,2029.618 C451,2054.238 451,2080.748 451,2103.128" style="stroke:#1F2933;stroke-width:1;" fill="none" id="f7-to-f8"/><polygon points="451,2108.128,455,2099.128,451,2103.128,447,2099.128,451,2108.128" fill="#1F2933" style="stroke:#1F2933;stroke-width:1;stroke-linejoin:miter;stroke-miterlimit:10;"/><text x="452" y="2074.105" fill="#1F2933" font-size="13" textLength="93.6" font-family="monospace">dmem[9] == 2</text></g><!--link f8 to f9--><g class="link" data-entity-1="ent0009" data-entity-2="ent0010" id="lnk28" data-source-line="92" data-link-type="dependency"><path d="M451,2166.808 C451,2185.388 451,2204.368 451,2222.038" style="stroke:#1F2933;stroke-width:1;" fill="none" id="f8-to-f9"/><polygon points="451,2227.038,455,2218.038,451,2222.038,447,2218.038,451,2227.038" fill="#1F2933" style="stroke:#1F2933;stroke-width:1;stroke-linejoin:miter;stroke-miterlimit:10;"/></g><!--link *start* to fr--><g class="link" data-entity-1="ent0038" data-entity-2="ent0001" id="lnk39" data-source-line="115" data-link-type="dependency"><path d="M678,66.188 C678,75.16 678,90.001 678,107.278 C678,111.597 678,111.069 678,115.639" style="stroke:#1F2933;stroke-width:1;" fill="none" id="*start*-to-fr"/><polygon points="678,120.639,682,111.639,678,115.639,674,111.639,678,120.639" fill="#1F2933" style="stroke:#1F2933;stroke-width:1;stroke-linejoin:miter;stroke-miterlimit:10;"/></g><!--link fr to tx--><g class="link" data-entity-1="ent0001" data-entity-2="ent0011" id="lnk40" data-source-line="116" data-link-type="dependency"><path d="M686.05,241.521 C686.19,241.582 686.331,241.644 686.474,241.706 C687.047,241.957 687.647,242.219 688.275,242.494 C689.53,243.043 690.896,243.64 692.368,244.284 C695.313,245.572 698.686,247.048 702.463,248.7 C717.575,255.31 739.169,264.757 765.78,276.398 C819.003,299.68 887.714,329.739 969.359,365.454" style="stroke:#1F2933;stroke-width:1;" fill="none" id="fr-to-tx"/><polygon points="973.94,367.458,967.298,360.186,969.359,365.454,964.091,367.516,973.94,367.458" fill="#1F2933" style="stroke:#1F2933;stroke-width:1;stroke-linejoin:miter;stroke-miterlimit:10;"/></g><!--link tx to so--><g class="link" data-entity-1="ent0011" data-entity-2="ent0018" id="lnk41" data-source-line="117" data-link-type="dependency"><path d="M1189.37,948.698 C1142.01,979.408 1101.185,1005.888 1062.195,1031.168" style="stroke:#1F2933;stroke-width:1;" fill="none" id="tx-to-so"/><polygon points="1058,1033.888,1067.728,1032.348,1062.195,1031.168,1063.375,1025.635,1058,1033.888" fill="#1F2933" style="stroke:#1F2933;stroke-width:1;stroke-linejoin:miter;stroke-miterlimit:10;"/></g><!--link so to f5--><g class="link" data-entity-1="ent0018" data-entity-2="ent0006" id="lnk42" data-source-line="118" data-link-type="dependency"><path d="M903.51,1207.168 C894.87,1232.028 883.5,1258.448 869,1280.718 C797.72,1390.188 764.24,1410.118 656,1483.258 C620.82,1507.038 583.572,1525.659 546.132,1541.799" style="stroke:#1F2933;stroke-width:1;" fill="none" id="so-to-f5"/><polygon points="541.54,1543.778,551.388,1543.888,546.132,1541.799,548.221,1536.542,541.54,1543.778" fill="#1F2933" style="stroke:#1F2933;stroke-width:1;stroke-linejoin:miter;stroke-miterlimit:10;"/><text x="849.64" y="1402.385" fill="#1F2933" font-size="13" textLength="85.8" font-family="monospace">dmem[7] = 1</text></g><!--link so to f4--><g class="link" data-entity-1="ent0018" data-entity-2="ent0005" id="lnk43" data-source-line="119" data-link-type="dependency"><path d="M727.64,1207.168 C708.18,1215.498 688.71,1223.788 670,1231.718 C638.08,1245.238 627.56,1243.608 598,1261.718 C575.13,1275.728 556.043,1289.762 535.013,1307.152" style="stroke:#1F2933;stroke-width:1;" fill="none" id="so-to-f4"/><polygon points="531.16,1310.338,540.645,1307.685,535.013,1307.152,535.547,1301.52,531.16,1310.338" fill="#1F2933" style="stroke:#1F2933;stroke-width:1;stroke-linejoin:miter;stroke-miterlimit:10;"/><text x="599" y="1276.615" fill="#1F2933" font-size="13" textLength="265.2" font-family="monospace">dmem[7] = 0, the start code's exit</text></g><?plantuml-src XLZhRk985lwVfpZg_j6J3H3RtAFfaKmmtPb9808oCpjBAofm0LQCpTec4ArMseVO9zmdsUzKsL04UYO_kijLfyxrEvSYVGcYjKZ4Ylfn9ZjYzh98uatatyPXdD37NgzNlQrTfCTKSUBB9ATekysEvRwZwCLHbfzNNSUpBECybV_So6WcwLyNH6wInDk2ibglrwrYqs1XzvnsjOg3-s0kxuFeM86Mswwv3VFqlH5UjsVtcg1u54aMp8ArYB8Z5hZVS-ll2DvpwTvwxLxhcCXKib5rQZqSVy6bzH7xHgVPQ3NsHoVgLS7OmV4ezqmdtdql4CT4P-9m8FWJFOv9_bAVltRi2UNP01LKtU0rE1pdqVst2P5CP1eVfoAzNhNNuPEp0JmN41DZUoXz5sFl9FxuOxRxwISY8_w6vFqf_vtHukYS39rEf2G7APvdlPUI74bfkVNROod9iPHchUwuvwJWcmaFQ3gIafyg7diu6LACSzedzZafqpZ9GFcnr-Ysk-qJCVanC-bOTKlbl2dcS0wAXkjOpbanqtYdZR40YUPxAVcfvb40tv1YdDEVXN-QQAC_zjnkftiI_-9OSN7RLSTvBySW04czOpVii-QaOQoi_jXjUEufq8fZnSNn6bstTYp89FXJgCsIcRR8wtfMh_vUK76SUwxcjJl7Wam2na77gJVEMkIBJ6YBwZth5DJ5SMvHiwlKDGIP16oHKxFEmvhhXOP2rxkzFNLTVfp7g5cptm7R9E0OkTMkxPmJj4nptFQwFSSxGNPnh0LPDSjw1ssJG0c2IMTTjnL13WR7g_PEN5SSQzVLwbR3EnPa4YZNLQrg3pKs2x9GKlVXzxhjb5qI6JbrYrwcOkFJ__xpNygMakOemP92yIQJ4ed8Lvjn96a61JFfqqo68SbNcRpHz0s5UfFAzE8JZU9DCfFf3Ss3PBKLYRpsLpl8gQmb_J1Df7YvNedaXS8uNgSbodRFVFjJIhQjMF8U9At5GeBR_ayaGRPSIRJSIn1ChxFfyre-f_7iEMV_IZ_mlL2AY18vay4hAyvRsJOsESqXEIcaoAJC6GEZLcWwGHf7p3wEm_HwlhrUIv6kAkit-c7KTIiLYk8RazFuTmfIcWOPMPfTkeIzFhNAlBT6_ReicVI9V0taDhr6AMkKhNRPgL_tVYjtdaRbpltWzfTgkNVNxzxrlumgArzRiu826sOPRLPJcQINOFUOn0l4veQKCybn2hSfjrQBhz7O7OvXbo_9sbbQmOZWAUA48hOwDPgjB-TY4wfHfi-1VuYZE5sBcVGlT1_-q1kw3nxTkt_tXWeaIhoMMk9UdMHAMad9KEm_a4Y18ohABBVodDdugqUTeUV-CedkktVabYowfi7J63vzlElJ7eKXnWXQn46qeFl1RtGtKhjAT74J3hY6jG_KABcJoBQR56Go4LaGHod5SnBab8CepPBDZFTe6ljlj0utwIHogWsQXV7iHH7w4cYdpuHiB7Q1ZmEtIVIPlRsZMWKf3Ro3jjNArzfMc_9IVspfWplS6sgV6ff8e3P5b0VzMwz4Ivd0Yn5G6K2cyW9ovGP9g2x25inDK8ksyIRq4O0NgRp2aPX4lbnBP2iCtIw3sVAWlheXqaAFAhIlxetvJ4WXqnBdl2KQLRU3hWT9AxdwH_CRxW9TwgEbFe2sIGHXYrZ2hviCog6eBPPAoH63A4j4bAw23AeHQyG71rG2JJ7J9fBJYqiEfzCyJbQYS0dsvm5A6DSbTXHINAjTfQ857lH68KgpP-QVwsoREZlcHrjzJ28szT7zui7If_xO6nOL478L8l4_wxnTng44qs0-XxRycfdAR2kHPoAldzaIEYCUgM801KpJrM6o0KnXd2gb5RfJGK8PcsUJQ1C5S6GWmW3eK6uHcIxER9AgaO0p-eL8tfJB-UgkHBihcrNSQRL7JnrE4uO48BJZ4m4lxcwCEX-nT3WiNg-bhrrPA_Bsu4aLdjo9AjQ51tMrKfNqLOGRMIGgUAylJQJOYZGFAuZ48UwNMcpzJ0Jv-zd7bPmL95ufLYs6HW4OSDqcOftgVbP7LmBaKndEBmznvslNzFCVodVF2Cnfh5cj_c1CT_tReVVWOQjBNxsXLvf4HHlKxeV7KiuhF_0vjx3ItP2r1R5EFuYGlk5eCUV8ZtyR683d8Z29fd8cq4F9KL4iUg1kj_i6p5kJIBVWH15E9HT7aRwmc3WdDyflupIC1ziBq6kt541H3jBkFkuNN1oL2gfUOk3J8fgd8enWsPQk2cvTKxTCHP8NlSb35AfdkVmJIW-l7RtcOHn9hTOywGALQitpAg2YrZngmqozJpUg88ZZv30ecg20vda39DxOtopSyICvnadBEFdyMH-rz54RmrJH7yT3jpzwk1kFy_wu7wbArEex9OLuBkGKSwfvzzwlNbzLDjMmbHkotRbUcJ9HqH3z05qvcorrQWFVg1sRX8eIbA5oH8jigShy0w9PtyUrhUEQJfyvpIUHthMFTXtZ2mqTI6FTo2wtRgX9HXVL3JFNHOyMa7VbzhjNw57w7bcwmgIC-wQUa4A1n86434qhoidQ2CXtUPSAvdS6OnkSgz-dKhvSMAUeP0swxjZ5026YsRBm4SyUqFoaERFFxqSTdUwgIoahhqTVXzSOE7Bhbi4SNiUucQeomN6PHBfxAmACbYlKXam4OOK6t1guAgeZZ3J8UmuYviOylETQIR3BC0Mo1eAxVlAYsmaZIctvt6aXKXjkdwkWUKILJJeuPoUlILH5yNjCApJcUhgFS5wnZIXDedI92LUtiQWevCpwKtfuC2XHhECaMZB0OvXb3bXv8rL1KRIgFd8lqnDGqIkqPMU6aXou1xlQA5hAX28yh2H0Tp0bocjuA4iwM7j5aMUh3MZLI3MB4xmZCbPH7ROgw1KvoWvGoP7dA94bRkG5gX5c7cAqUuxjg7xN3kTWY8q8rNAskJlV54xKPCGJWvQ3frCAVKiQT4gGZaA5Ukxz_OZ6NuU3fozVOJZS3paOMloRV8hA_Q_IKh5J0xFgODnKuP0b3sWHBcvcUDQb48kf9vLvdQ4ygYjshJQkTjOu5heVWQqsUhUjCN2f7MXKe_uVF6apqGv-HS6rMnN2lwfBNV7dqP3EnCP4BdTYbeLlN7vBlCaL69E-lWIEp9VToV_3-dKIhEHD7f-49pGSdBuNCALXo0ncW4m-LYl78GbKKzy_JZ61y6mNCSfigwd2fzrIDyeHQXEtZuLjh1rZNJNMtFKMkZCkkEij76DTDTOrOwqx8rZadQlshLpEHzpwjwiheskfqOg7TCRTeE-Hz_lTc7g38G4xUCfLQNG_68ycKNz0Gs_yDEpJu-2kFrO54tlTkz6ZExxzUlF-HuD9zFF3Oyf-s8_EKuuNpGMt51O9h2aV6ZCnmBp7Ol4EG2P6MH1jz2lcRgGJTgsVmVdF4PYS-p7_7ezPI9N4ubuIXvC8J_ujYH2lHdxw9J7_yAo13xtK3Hv6NOZMDGd36wh6abQnAij2LmnsdvvnzSDhALwvIikeaaywLRXMexaOU7qvKwAsh18UUQyi3O_wI8C2zXMWkFZ7txxfcIAvm9EPLzdk0WC1hzBu0gJ7OueUf_VxjQFzulU8_QiSVfMx8BkuG8t0M1uibihzO4nq_AxxDD8GU7WQZTKSx7P_TV4kPJ8G3zs7HsuEF8g-XR7mEHFmSWwc_CoKIBmF-tcHNd212uH-4xnys4TK3z07Gl1GFrA0NhsJ8gMjZgJmNz6iyo5QjSvOnsChUAvRCroEZNt_C3v8uvB4yY3CDcPgRSY75wum7wWCLW6t8b2pl5BnZGWkH5YquzA-1mUOyNUCQ5nWfsPoJLjKXFmzuCUppOf7Co1XbWHJna2GAIVoA7dqbbX2ZwA2AUkdcyLUqJ7_18j70WSFte5ZuJvmmqDu5QIg1CDDkdWNLGetL2eifLXp6rp7QHfCG-KzzLvGFL54IlLvUVfMrXQ1DP9V_pYcihfo8VLZM_uV?></g></svg>