<svg xmlns="http://www.w3.org/2000/svg" xmlns:xlink="http://www.w3.org/1999/xlink" version="1.1" data-diagram-type="SEQUENCE" style="width:1052px;height:2706px;background:#FFFFFF;" width="1052px" height="2706px" viewBox="0 0 1052 2706" zoomAndPan="magnify" preserveAspectRatio="none" contentStyleType="text/css"><?plantuml 1.2026.8?><defs/><g font-family="sans-serif" lengthAdjust="spacing"><g class="title" data-source-line="21"><text x="440.248" y="29.966" fill="#000" font-size="14" textLength="170.379" font-weight="700">Servo PWM - wire timing</text><text x="256.786" y="46.896" fill="#000" font-size="12" textLength="537.304" font-weight="700">measured: 1000.15 / 1500.13 / 1750.12 / 1250.13 / 2000.10 us, frame 19 999.95 us = 50.000 Hz</text></g><rect x="195.153" y="1732.625" width="806.321" height="187.648" fill="none" style="stroke:#000;stroke-width:1.5;"/><g><title>CPU</title><rect x="207.653" y="138.616" width="8" height="2484.544" fill="#000" fill-opacity="0"/><line x1="211.153" y1="138.616" x2="211.153" y2="2623.16" style="stroke:#FFF;stroke-width:0.5;stroke-dasharray:5,5;"/></g><g><title>pad 6</title><rect x="490.548" y="138.616" width="8" height="2484.544" fill="#000" fill-opacity="0"/><line x1="494.048" y1="138.616" x2="494.048" y2="2623.16" style="stroke:#FFF;stroke-width:0.5;stroke-dasharray:5,5;"/></g><g><title>servo signal</title><rect x="828.538" y="138.616" width="8" height="2484.544" fill="#000" fill-opacity="0"/><line x1="832.038" y1="138.616" x2="832.038" y2="2623.16" style="stroke:#FFF;stroke-width:0.5;stroke-dasharray:5,5;"/></g><rect x="153.753" y="66.412" width="114.8" height="71.204" fill="#F4F7FB" style="stroke:#FFF;stroke-width:0.5;" rx="2.5" ry="2.5"/><text x="198.553" y="88.378" fill="#000" font-size="14" textLength="25.2" font-family="monospace">CPU</text><text x="177.553" y="107.446" fill="#000" font-size="14" textLength="67.2" font-family="monospace">pe_cpu.v</text><text x="160.753" y="126.514" fill="#000" font-size="14" textLength="100.8" font-family="monospace">single-cycle</text><rect x="432.449" y="85.48" width="123.2" height="52.136" fill="#F4F7FB" style="stroke:#FFF;stroke-width:0.5;" rx="2.5" ry="2.5"/><text x="473.049" y="107.446" fill="#000" font-size="14" textLength="42" font-family="monospace">pad 6</text><text x="439.449" y="126.514" fill="#000" font-size="14" textLength="109.2" font-family="monospace">TXPIN / PINOE</text><rect x="774.638" y="85.48" width="114.8" height="52.136" fill="#F4F7FB" style="stroke:#FFF;stroke-width:0.5;" rx="2.5" ry="2.5"/><text x="781.638" y="107.446" fill="#000" font-size="14" textLength="100.8" font-family="monospace">servo signal</text><text x="798.438" y="126.514" fill="#000" font-size="14" textLength="67.2" font-family="monospace">idle LOW</text><rect x="153.753" y="2623.16" width="114.8" height="71.204" fill="#F4F7FB" style="stroke:#FFF;stroke-width:0.5;" rx="2.5" ry="2.5"/><text x="198.553" y="2645.125" fill="#000" font-size="14" textLength="25.2" font-family="monospace">CPU</text><text x="177.553" y="2664.193" fill="#000" font-size="14" textLength="67.2" font-family="monospace">pe_cpu.v</text><text x="160.753" y="2683.261" fill="#000" font-size="14" textLength="100.8" font-family="monospace">single-cycle</text><rect x="432.449" y="2623.16" width="123.2" height="52.136" fill="#F4F7FB" style="stroke:#FFF;stroke-width:0.5;" rx="2.5" ry="2.5"/><text x="473.049" y="2645.125" fill="#000" font-size="14" textLength="42" font-family="monospace">pad 6</text><text x="439.449" y="2664.193" fill="#000" font-size="14" textLength="109.2" font-family="monospace">TXPIN / PINOE</text><rect x="774.638" y="2623.16" width="114.8" height="52.136" fill="#F4F7FB" style="stroke:#FFF;stroke-width:0.5;" rx="2.5" ry="2.5"/><text x="781.638" y="2645.125" fill="#000" font-size="14" textLength="100.8" font-family="monospace">servo signal</text><text x="798.438" y="2664.193" fill="#000" font-size="14" textLength="67.2" font-family="monospace">idle LOW</text><rect x="10" y="168.469" width="1031.875" height="3" fill="#EEE" style="stroke:#EEE;stroke-width:1;"/><line x1="10" y1="168.469" x2="1041.875" y2="168.469" style="stroke:#000;stroke-width:1;"/><line x1="10" y1="171.469" x2="1041.875" y2="171.469" style="stroke:#000;stroke-width:1;"/><rect x="464.922" y="156.616" width="122.03" height="25.706" fill="#EEE" style="stroke:#000;stroke-width:2;"/><text x="470.922" y="174.513" fill="#000" font-size="13" textLength="104.65" font-weight="700">claiming the pin</text><polygon points="482.048,212.028,492.048,216.028,482.048,220.028,486.048,216.028" fill="#FFF" style="stroke:#FFF;stroke-width:1;stroke-linejoin:miter;stroke-miterlimit:10;"/><line x1="211.153" y1="216.028" x2="488.048" y2="216.028" style="stroke:#FFF;stroke-width:1;"/><text x="218.153" y="210.219" fill="#000" font-size="13" textLength="201.643">PINOE = 0x00 (release every pad)</text><polygon points="482.048,243.734,492.048,247.734,482.048,251.734,486.048,247.734" fill="#FFF" style="stroke:#FFF;stroke-width:1;stroke-linejoin:miter;stroke-miterlimit:10;"/><line x1="211.153" y1="247.734" x2="488.048" y2="247.734" style="stroke:#FFF;stroke-width:1;"/><text x="218.153" y="241.925" fill="#000" font-size="13" textLength="192.205">TXPIN = 0x00  (the LEVEL first...)</text><path d="M499.048,260.734 L499.048,517.734 L799.048,517.734 L799.048,270.734 L789.048,260.734 L499.048,260.734" style="stroke:#181818;stroke-width:0.5;" fill="#FEFFDD"/><path d="M789.048,260.734 L789.048,270.734 L799.048,270.734 L789.048,260.734" style="stroke:#181818;stroke-width:0.5;" fill="#FEFFDD"/><text x="505.048" y="279.631" fill="#000" font-size="13" textLength="223.288">...and the idle level is set BEFORE the</text><text x="505.048" y="297.337" fill="#000" font-size="13" textLength="213.135">pin is claimed. A first version wrote</text><text x="505.048" y="315.043" fill="#000" font-size="13" textLength="279.5">SRV_DATA here instead of 0, on the reasoning</text><text x="505.048" y="332.749" fill="#000" font-size="13" textLength="256.23">that the pin was about to go high anyway.</text><text x="505.048" y="350.455" fill="#000" font-size="13"> </text><text x="505.048" y="368.161" fill="#000" font-size="13" textLength="275.028">The consequence: the line stayed RELEASED -</text><text x="505.048" y="385.867" fill="#000" font-size="13" textLength="269.685">so pulled HIGH by the board's pull-up - from</text><text x="505.048" y="403.573" fill="#000" font-size="13" textLength="230.178">reset until the first pulse, and the first</text><text x="505.048" y="421.279" fill="#000" font-size="13" textLength="120.822">pulse therefore had</text><text x="629.251" y="421.279" fill="#000" font-size="13" textLength="127.79" font-weight="700">no rising edge at all</text><text x="757.041" y="421.279" fill="#000" font-size="13">.</text><text x="505.048" y="438.985" fill="#000" font-size="13" textLength="236.405">The TB saw four rises and five falls and</text><text x="505.048" y="456.691" fill="#000" font-size="13" textLength="225.394">correctly refused to call it five pulses.</text><text x="505.048" y="474.397" fill="#000" font-size="13"> </text><text x="505.048" y="492.103" fill="#000" font-size="13" textLength="261.378" font-weight="700">The idle level of a timing protocol is part</text><text x="505.048" y="509.809" fill="#000" font-size="13" textLength="121.589">of the protocol.&lt;/b></text><polygon points="482.048,543.324,492.048,547.324,482.048,551.324,486.048,547.324" fill="#FFF" style="stroke:#FFF;stroke-width:1;stroke-linejoin:miter;stroke-miterlimit:10;"/><line x1="211.153" y1="547.324" x2="488.048" y2="547.324" style="stroke:#FFF;stroke-width:1;"/><text x="218.153" y="541.515" fill="#000" font-size="13" textLength="225.563">PINOE = 0x40 (claim exactly one pad)</text><polygon points="820.038,575.03,830.038,579.03,820.038,583.03,824.038,579.03" fill="#FFF" style="stroke:#FFF;stroke-width:1;stroke-linejoin:miter;stroke-miterlimit:10;"/><line x1="494.048" y1="579.03" x2="826.038" y2="579.03" style="stroke:#FFF;stroke-width:1;"/><text x="501.048" y="573.221" fill="#000" font-size="13" textLength="313.989">the line is released, so it READS HIGH for a moment</text><path d="M682.132,592.03 L682.132,672.03 L981.132,672.03 L981.132,602.03 L971.132,592.03 L682.132,592.03" style="stroke:#181818;stroke-width:0.5;" fill="#FEFFDD"/><path d="M971.132,592.03 L971.132,602.03 L981.132,602.03 L971.132,592.03" style="stroke:#181818;stroke-width:0.5;" fill="#FEFFDD"/><text x="688.132" y="610.927" fill="#000" font-size="13" textLength="269.308">This is the TB's "leading fall": the wire model</text><text x="688.132" y="628.633" fill="#000" font-size="13" textLength="261.911">is a pull-up plus the pads, so a released pin</text><text x="688.132" y="646.339" fill="#000" font-size="13" textLength="278.811">floats up. It is why the TB pairs each RISE with</text><text x="688.132" y="664.045" fill="#000" font-size="13" textLength="252.252">the NEXT fall rather than with the j-th fall.</text><polygon points="820.038,697.56,830.038,701.56,820.038,705.56,824.038,701.56" fill="#FFF" style="stroke:#FFF;stroke-width:1;stroke-linejoin:miter;stroke-miterlimit:10;"/><line x1="494.048" y1="701.56" x2="826.038" y2="701.56" style="stroke:#FFF;stroke-width:1;"/><text x="501.048" y="695.751" fill="#000" font-size="13" textLength="252.239">the firmware drives it LOW: the servo idle</text><rect x="10" y="731.413" width="1031.875" height="3" fill="#EEE" style="stroke:#EEE;stroke-width:1;"/><line x1="10" y1="731.413" x2="1041.875" y2="731.413" style="stroke:#000;stroke-width:1;"/><line x1="10" y1="734.413" x2="1041.875" y2="734.413" style="stroke:#000;stroke-width:1;"/><rect x="380.247" y="719.56" width="291.381" height="25.706" fill="#EEE" style="stroke:#000;stroke-width:2;"/><text x="386.247" y="737.457" fill="#000" font-size="13" textLength="274.001" font-weight="700">position 0: 1 000 us, then a FULL 20 ms slot</text><polygon points="482.048,774.972,492.048,778.972,482.048,782.972,486.048,778.972" fill="#FFF" style="stroke:#FFF;stroke-width:1;stroke-linejoin:miter;stroke-miterlimit:10;"/><line x1="211.153" y1="778.972" x2="488.048" y2="778.972" style="stroke:#FFF;stroke-width:1;"/><text x="218.153" y="773.163" fill="#000" font-size="13" textLength="258.895">TXPIN = SRV_DATA (0x40) - the pulse starts</text><path d="M721.503,791.972 L721.503,854.972 L942.503,854.972 L942.503,801.972 L932.503,791.972 L721.503,791.972" style="stroke:#181818;stroke-width:0.5;" fill="#FEFFDD"/><path d="M932.503,791.972 L932.503,801.972 L942.503,801.972 L932.503,791.972" style="stroke:#181818;stroke-width:0.5;" fill="#FEFFDD"/><text x="727.503" y="810.869" fill="#000" font-size="13" textLength="167.011" font-weight="700">PULSE 0 = 1 000.15 us high</text><text x="727.503" y="828.575" fill="#000" font-size="13" textLength="119.938">requested 1 000 us,</text><text x="850.821" y="828.575" fill="#000" font-size="13" textLength="33.397" font-weight="700">+0.15</text><text x="727.503" y="846.281" fill="#000" font-size="13" textLength="200.07">datasheet band: 1 000 .. 2 000 us</text><path d="M15,865.09 L15,1193.09 L407,1193.09 L407,875.09 L397,865.09 L15,865.09" style="stroke:#181818;stroke-width:0.5;" fill="#FEFFDD"/><path d="M397,865.09 L397,875.09 L407,875.09 L397,865.09" style="stroke:#181818;stroke-width:0.5;" fill="#FEFFDD"/><text x="21" y="883.987" fill="#000" font-size="13" textLength="297.583">dly1/dly2/dly3 on dmem[0] = 97, (n2,n3) = (2,152)</text><text x="21" y="901.693" fill="#000" font-size="13"> </text><text x="21" y="919.399" fill="#000" font-size="13" textLength="237.445">total = (n1-1)*(10 + (n2-1)*(4*n3+7)) + 4</text><text x="21" y="937.105" fill="#000" font-size="13" textLength="301.301">one outer step = 10 + 1*(4*152 + 7) = 625 clocks =</text><text x="325.681" y="937.105" fill="#000" font-size="13" textLength="66.625" font-weight="700">10.4167 us</text><text x="21" y="954.811" fill="#000" font-size="13" textLength="251.056">96 * 625 + 4 = 60 004 clocks = 1 000.07 us</text><text x="21" y="972.517" fill="#000" font-size="13"> </text><text x="21" y="990.223" fill="#000" font-size="13" textLength="273.26">The tables are FITTED by division and a small</text><text x="21" y="1007.929" fill="#000" font-size="13" textLength="257.14">search, not by trial and error: for a chosen</text><text x="21" y="1025.635" fill="#000" font-size="13" textLength="280.098">(n2,n3) the outer counter nearest the target is</text><text x="21" y="1043.341" fill="#000" font-size="13" textLength="277.459">a division, and keeping every entry inside 255</text><text x="21" y="1061.047" fill="#000" font-size="13" textLength="80.379">is the search.</text><text x="21" y="1078.753" fill="#000" font-size="13"> </text><text x="21" y="1096.459" fill="#000" font-size="13" textLength="287.885" font-weight="700">The step is 10 + (n2-1)*(4*n3+7), not 4*n3+11.</text><text x="21" y="1114.165" fill="#000" font-size="13" textLength="268.567">The shorter form misses the outer loop's six</text><text x="21" y="1131.872" fill="#000" font-size="13" textLength="262.288">instructions and the four that return it: 619</text><text x="21" y="1149.578" fill="#000" font-size="13" textLength="241.007">clocks instead of 625, and a reader who</text><text x="21" y="1167.284" fill="#000" font-size="13" textLength="283.049">multiplies it out gets 990 us and concludes the</text><text x="21" y="1184.99" fill="#000" font-size="13" textLength="235.703">measured 1 000.15 us is a percent out.</text><polygon points="482.048,1218.505,492.048,1222.505,482.048,1226.505,486.048,1222.505" fill="#FFF" style="stroke:#FFF;stroke-width:1;stroke-linejoin:miter;stroke-miterlimit:10;"/><line x1="211.153" y1="1222.505" x2="488.048" y2="1222.505" style="stroke:#FFF;stroke-width:1;"/><text x="218.153" y="1216.696" fill="#000" font-size="13" textLength="175.929">TXPIN = 0x00 - the gap starts</text><path d="M627.201,1235.505 L627.201,1333.505 L1036.201,1333.505 L1036.201,1245.505 L1026.201,1235.505 L627.201,1235.505" style="stroke:#181818;stroke-width:0.5;" fill="#FEFFDD"/><path d="M1026.201,1235.505 L1026.201,1245.505 L1036.201,1245.505 L1026.201,1235.505" style="stroke:#181818;stroke-width:0.5;" fill="#FEFFDD"/><text x="633.201" y="1254.402" fill="#000" font-size="13" textLength="114.907" font-weight="700">GAP 0 = 19.000 ms</text><text x="754.868" y="1254.402" fill="#000" font-size="13" textLength="155.259">(dmem[5] = 229, (11,123))</text><text x="633.201" y="1272.108" fill="#000" font-size="13" textLength="388.674">one outer step = 10 + 10*(4*123 + 7) = 5 000 clocks = 83.3333 us</text><text x="633.201" y="1289.814" fill="#000" font-size="13" textLength="291.616">228 * 5000 + 4 = 1 140 004 clocks = 19 000.07 us</text><text x="633.201" y="1307.52" fill="#000" font-size="13" textLength="95.394">rise 0 -> rise 1 =</text><text x="731.975" y="1307.52" fill="#000" font-size="13" textLength="152.204" font-weight="700">19 999.95 us = 50.000 Hz</text><text x="633.201" y="1325.226" fill="#000" font-size="13" textLength="260.104">this is the number the 50 Hz claim rests on</text><rect x="10" y="1360.888" width="1031.875" height="3" fill="#EEE" style="stroke:#EEE;stroke-width:1;"/><line x1="10" y1="1360.888" x2="1041.875" y2="1360.888" style="stroke:#000;stroke-width:1;"/><line x1="10" y1="1363.888" x2="1041.875" y2="1363.888" style="stroke:#000;stroke-width:1;"/><rect x="323.255" y="1349.035" width="405.365" height="25.706" fill="#EEE" style="stroke:#000;stroke-width:2;"/><text x="329.255" y="1366.932" fill="#000" font-size="13" textLength="387.985" font-weight="700">position 1: 1 500 us, and the frame period is MEASURED here</text><polygon points="482.048,1404.447,492.048,1408.447,482.048,1412.447,486.048,1408.447" fill="#FFF" style="stroke:#FFF;stroke-width:1;stroke-linejoin:miter;stroke-miterlimit:10;"/><line x1="211.153" y1="1408.447" x2="488.048" y2="1408.447" style="stroke:#FFF;stroke-width:1;"/><text x="218.153" y="1402.638" fill="#000" font-size="13" textLength="153.686">TXPIN = SRV_DATA (0x40)</text><path d="M738.032,1421.447 L738.032,1466.447 L926.032,1466.447 L926.032,1431.447 L916.032,1421.447 L738.032,1421.447" style="stroke:#181818;stroke-width:0.5;" fill="#FEFFDD"/><path d="M916.032,1421.447 L916.032,1431.447 L926.032,1431.447 L916.032,1421.447" style="stroke:#181818;stroke-width:0.5;" fill="#FEFFDD"/><text x="744.032" y="1440.344" fill="#000" font-size="13" textLength="167.011" font-weight="700">PULSE 1 = 1 500.13 us high</text><text x="744.032" y="1458.05" fill="#000" font-size="13" textLength="119.938">requested 1 500 us,</text><text x="867.35" y="1458.05" fill="#000" font-size="13" textLength="33.397" font-weight="700">+0.13</text><polygon points="482.048,1491.565,492.048,1495.565,482.048,1499.565,486.048,1495.565" fill="#FFF" style="stroke:#FFF;stroke-width:1;stroke-linejoin:miter;stroke-miterlimit:10;"/><line x1="211.153" y1="1495.565" x2="488.048" y2="1495.565" style="stroke:#FFF;stroke-width:1;"/><text x="218.153" y="1489.756" fill="#000" font-size="13" textLength="80.379">TXPIN = 0x00</text><path d="M670.4,1508.565 L670.4,1677.565 L993.4,1677.565 L993.4,1518.565 L983.4,1508.565 L670.4,1508.565" style="stroke:#181818;stroke-width:0.5;" fill="#FEFFDD"/><path d="M983.4,1508.565 L983.4,1518.565 L993.4,1518.565 L983.4,1508.565" style="stroke:#181818;stroke-width:0.5;" fill="#FEFFDD"/><text x="676.4" y="1527.462" fill="#000" font-size="13" textLength="114.907" font-weight="700">GAP 1 = 18.500 ms</text><text x="798.067" y="1527.462" fill="#000" font-size="13" textLength="99.931">(dmem[6] = 223)</text><text x="676.4" y="1545.168" fill="#000" font-size="13"> </text><text x="676.4" y="1562.874" fill="#000" font-size="13" textLength="259.415">The frame period is measured across TWO</text><text x="676.4" y="1580.58" fill="#000" font-size="13" textLength="295.984">DIFFERENT pulse widths on purpose. A fixed gap</text><text x="676.4" y="1598.286" fill="#000" font-size="13" textLength="276.354">after each pulse would give 20.5 ms here and</text><text x="676.4" y="1615.992" fill="#000" font-size="13" textLength="245.856">21.0 ms at the next position - 49 Hz then</text><text x="676.4" y="1633.698" fill="#000" font-size="13" textLength="302.276">47.6 Hz - and every per-pulse WIDTH check would</text><text x="676.4" y="1651.404" fill="#000" font-size="13" textLength="265.98">still pass. This is the measurement that tells</text><text x="676.4" y="1669.11" fill="#000" font-size="13" textLength="116.194">a slot from a delay.</text><rect x="10" y="1704.772" width="1031.875" height="3" fill="#EEE" style="stroke:#EEE;stroke-width:1;"/><line x1="10" y1="1704.772" x2="1041.875" y2="1704.772" style="stroke:#000;stroke-width:1;"/><line x1="10" y1="1707.772" x2="1041.875" y2="1707.772" style="stroke:#000;stroke-width:1;"/><rect x="369.782" y="1692.919" width="312.311" height="25.706" fill="#EEE" style="stroke:#000;stroke-width:2;"/><text x="375.782" y="1710.816" fill="#000" font-size="13" textLength="294.931" font-weight="700">positions 2..4: the widths still have to be right</text><path d="M195.153,1732.625 L503.091,1732.625 L503.091,1742.331 L493.091,1752.331 L195.153,1752.331 L195.153,1732.625" style="stroke:#000;stroke-width:1.5;" fill="#EEE"/><rect x="195.153" y="1732.625" width="806.321" height="187.648" fill="none" style="stroke:#000;stroke-width:1.5;"/><text x="210.153" y="1747.522" fill="#000" font-size="13" textLength="262.938" font-weight="700">short sweep gaps - 2.5 ms each, not slots</text><polygon points="482.048,1782.037,492.048,1786.037,482.048,1790.037,486.048,1786.037" fill="#FFF" style="stroke:#FFF;stroke-width:1;stroke-linejoin:miter;stroke-miterlimit:10;"/><line x1="211.153" y1="1786.037" x2="488.048" y2="1786.037" style="stroke:#FFF;stroke-width:1;"/><text x="218.153" y="1780.228" fill="#000" font-size="13" textLength="252.928">TXPIN = SRV_DATA / 0x00, 3 x (pulse, gap)</text><path d="M683.601,1799.037 L683.601,1915.037 L979.601,1915.037 L979.601,1809.037 L969.601,1799.037 L683.601,1799.037" style="stroke:#181818;stroke-width:0.5;" fill="#FEFFDD"/><path d="M969.601,1799.037 L969.601,1809.037 L979.601,1809.037 L969.601,1799.037" style="stroke:#181818;stroke-width:0.5;" fill="#FEFFDD"/><text x="689.601" y="1817.934" fill="#000" font-size="13" textLength="48.269" font-weight="700">1750.12</text><text x="741.25" y="1817.934" fill="#000" font-size="13" textLength="157.872">(+0.12) then 4 250.58 us\n</text><text x="689.601" y="1835.64" fill="#000" font-size="13" textLength="48.269" font-weight="700">1250.13</text><text x="741.25" y="1835.64" fill="#000" font-size="13" textLength="157.872">(+0.13) then 3 750.60 us\n</text><text x="689.601" y="1853.346" fill="#000" font-size="13" textLength="48.269" font-weight="700">2000.10</text><text x="741.25" y="1853.346" fill="#000" font-size="13" textLength="128.739">(+0.10) then (short)\n</text><text x="689.601" y="1871.052" fill="#000" font-size="13" textLength="275.873">Each short gap still exceeds 1 000 us, and the</text><text x="689.601" y="1888.758" fill="#000" font-size="13" textLength="274.976">TB PRINTS them as "a short sweep gap, not a</text><text x="689.601" y="1906.464" fill="#000" font-size="13" textLength="263.939">frame" rather than reporting them as slots.</text><rect x="10" y="1956.126" width="1031.875" height="3" fill="#EEE" style="stroke:#EEE;stroke-width:1;"/><line x1="10" y1="1956.126" x2="1041.875" y2="1956.126" style="stroke:#000;stroke-width:1;"/><line x1="10" y1="1959.126" x2="1041.875" y2="1959.126" style="stroke:#000;stroke-width:1;"/><rect x="500.971" y="1944.273" width="49.932" height="25.706" fill="#EEE" style="stroke:#000;stroke-width:2;"/><text x="506.971" y="1962.17" fill="#000" font-size="13" textLength="32.552" font-weight="700">done</text><polygon points="482.048,1999.685,492.048,2003.685,482.048,2007.685,486.048,2003.685" fill="#FFF" style="stroke:#FFF;stroke-width:1;stroke-linejoin:miter;stroke-miterlimit:10;"/><line x1="211.153" y1="2003.685" x2="488.048" y2="2003.685" style="stroke:#FFF;stroke-width:1;"/><text x="218.153" y="1997.876" fill="#000" font-size="13" textLength="84.695">dmem[10] = 5</text><path d="M679.851,2016.685 L679.851,2096.685 L983.851,2096.685 L983.851,2026.685 L973.851,2016.685 L679.851,2016.685" style="stroke:#181818;stroke-width:0.5;" fill="#FEFFDD"/><path d="M973.851,2016.685 L973.851,2026.685 L983.851,2026.685 L973.851,2016.685" style="stroke:#181818;stroke-width:0.5;" fill="#FEFFDD"/><text x="685.851" y="2035.582" fill="#000" font-size="13" textLength="283.374">The firmware parks with the line LOW, and the</text><text x="685.851" y="2053.288" fill="#000" font-size="13" textLength="260.611">TB asserts the LAST recorded edge is a fall.</text><text x="685.851" y="2070.994" fill="#000" font-size="13" textLength="272.025">A firmware that parked high would leave the</text><text x="685.851" y="2088.7" fill="#000" font-size="13" textLength="190.684">servo held at full travel forever.</text><rect x="10" y="2124.362" width="1031.875" height="3" fill="#EEE" style="stroke:#EEE;stroke-width:1;"/><line x1="10" y1="2124.362" x2="1041.875" y2="2124.362" style="stroke:#000;stroke-width:1;"/><line x1="10" y1="2127.362" x2="1041.875" y2="2127.362" style="stroke:#000;stroke-width:1;"/><rect x="352.316" y="2112.509" width="347.242" height="25.706" fill="#EEE" style="stroke:#000;stroke-width:2;"/><text x="358.316" y="2130.406" fill="#000" font-size="13" textLength="329.862" font-weight="700">the tolerances, and why they are the ones they are</text><path d="M158.753,2153.215 L158.753,2481.215 L883.753,2481.215 L883.753,2163.215 L873.753,2153.215 L158.753,2153.215" style="stroke:#181818;stroke-width:0.5;" fill="#FEFFDD"/><path d="M873.753,2153.215 L873.753,2163.215 L883.753,2163.215 L873.753,2153.215" style="stroke:#181818;stroke-width:0.5;" fill="#FEFFDD"/><text x="270.316" y="2172.112" fill="#000" font-size="13" textLength="308.321" font-weight="700">Bands the TB uses, and what each is protecting.</text><text x="270.316" y="2189.818" fill="#000" font-size="13" textLength="10.452">...</text><text x="270.316" y="2207.524" fill="#000" font-size="13" textLength="459.472">pulse width      1 000 .. 2 001 us   the servo would ignore or saturate outside</text><text x="270.316" y="2225.23" fill="#000" font-size="13" textLength="387.556">vs requested     +/- 30 us            the sweep would not be a sweep</text><text x="270.316" y="2242.936" fill="#000" font-size="13" textLength="466.973">frame period     19 900 .. 20 100 us  49.5 .. 50.25 Hz - the motor hums outside</text><text x="270.316" y="2260.642" fill="#000" font-size="13" textLength="450.359">short gap        > 1 000 us           a short gap is still a gap, not a second pulse</text><text x="270.316" y="2278.348" fill="#000" font-size="13" textLength="10.452">...</text><text x="270.316" y="2296.054" fill="#000" font-size="13" textLength="422.5" font-weight="700">PULSE_MAX_US is 2000 + 1, and the 1 is stated rather than hidden:</text><text x="696.197" y="2296.054" fill="#000" font-size="13">a</text><text x="270.316" y="2313.76" fill="#000" font-size="13" textLength="486.772">firmware that produced exactly 2000.0 us would otherwise sit ON the datasheet</text><text x="270.316" y="2331.466" fill="#000" font-size="13" textLength="449.15">ceiling, and a ceiling a program can land on exactly is a ceiling a rounding</text><text x="270.316" y="2349.172" fill="#000" font-size="13" textLength="135.382">error can push it over.</text><text x="270.316" y="2366.878" fill="#000" font-size="13" textLength="10.452">...</text><text x="270.316" y="2384.584" fill="#000" font-size="13" textLength="474.487" font-weight="700">Why the frame period is a band and the pulse widths are checked against</text><text x="270.316" y="2402.29" fill="#000" font-size="13" textLength="491.595">the REQUEST.&lt;/b> A frame period is two measured widths added together, so its</text><text x="270.316" y="2419.996" fill="#000" font-size="13" textLength="459.329">error is the sum of the two tables' fitting error - bounded at 0.25 us each by</text><text x="270.316" y="2437.702" fill="#000" font-size="13" textLength="459.875">the construction in the firmware header. A band is the honest shape of that</text><text x="270.316" y="2455.408" fill="#000" font-size="13" textLength="493.558">claim. The widths are compared against what the firmware was ASKED for, which</text><text x="270.316" y="2473.114" fill="#000" font-size="13" textLength="450.073">is a different and stronger statement: it pins the sweep, not just the band.</text><path d="M110.702,2491.923 L110.702,2607.923 L931.702,2607.923 L931.702,2501.923 L921.702,2491.923 L110.702,2491.923" style="stroke:#181818;stroke-width:0.5;" fill="#FEFFDD"/><path d="M921.702,2491.923 L921.702,2501.923 L931.702,2501.923 L921.702,2491.923" style="stroke:#181818;stroke-width:0.5;" fill="#FEFFDD"/><text x="116.702" y="2510.82" fill="#000" font-size="13" textLength="499.382" font-weight="700">The five measured widths are all 0.10 to 0.15 us LONG, and that is systematic.</text><text x="619.464" y="2510.82" fill="#000" font-size="13" textLength="298.025">The delay routine's clock count is exact - the core</text><text x="116.702" y="2528.526" fill="#000" font-size="13" textLength="441.597">is single-cycle, so N instructions take exactly N clocks - and the residue is</text><text x="116.702" y="2546.232" fill="#000" font-size="13" textLength="454.623">the table entry's FITTING: the outer counter is a whole number of steps, so</text><text x="116.702" y="2563.939" fill="#000" font-size="13" textLength="458.068">each entry lands at or just above its target. A count that could land short as</text><text x="116.702" y="2581.645" fill="#000" font-size="13" textLength="490.516">easily as long would be a worse mechanism, because the datasheet's interesting</text><text x="116.702" y="2599.351" fill="#000" font-size="13" textLength="233.584">bound on this protocol is a MINIMUM.</text><?plantuml-src hLbjRziu4lxkNq7qFZJUsehbbwG9sWBfrccDIz9SucmNk1u2Mg9ZRMLHHqfnl8Vxx_VCa7fnNehxi5uWjQKXEHm-yymptDVY_L_twRmMkT65xbjbxdM_IDP9TXVavJeLVR4NTGK_5vVVpiKcCKeuWvv8Cc6KJ4LMhXVAsA3p6ZETAsbBesAns8fYiLyiRdDrQtLqovC4zqBxKLVpCx5tC13dN_xiYLaaJMbxebWfz_RwwkGSiwrbP7It9vQ9MM-aKViyowtTA9K7kJhc9ON8ozGgCJWM8XmC1a4u4QN5uxqt_FtUyhpqYfuRzUzIsKB5tTROaCPEQEoeDNRKDXcIoU44ZuSjas7RP4GcmydFPXd3PCXE3bec0sUoD7AjHAvCecEnLpdS_y2kuMltM8H7-0H7lCFt0akHqPS_UNYyLkj_XeD_YRrSswH84EeaYzL3bomvLDDxPROu0YNq4a7HS6YPt2kHMC5kY4ABDrK0pxvUVEu9cSKSlXX77xavBMQoMuHmBOia4aRYlO6Hp4Ic4wkEtG2LogqmkYoIJBss8j9bLj1Awa56HJKlfZBA9d79Jj2uGYvI9LHMc2r6BPEYOBHjLacqOeCA37YhDvbOAHbZULl8Gf5dc6Q1fM9WK1PY40nfCm3dNveodI8fuELrdHdzTcvypzujDJPhap_L-t3uOUsJuhZ6vtwDjlqQLFirTlPR4EbvL8H7ujcJVxTFItteT5P9h105PPGkjhdgs1z9bakC5NObOxs1Ns8fWS7s6yg5B5BYFnqXJepHcrzrgetussWqcKpmx2nPgZEStqTj4EINNihenvsXc7k3qnFw3nQNqW0XIIwpujaPsk-VJ38-FJpzk6jqYgrUK3JMEjCsbv6AoV6eqERvLnUwKC-_-OorykTU_RVJoPiLnQjVBs--Po2nA2-3---PHHnJrO-sKQfU2Ma5tkyEo6Ki3hvdyzylPnSuIlpzEcNBovDFkvQEM6robydqUvR4GDJPrszi-srsDUrqthyNKIePKmpz79nBwCEQH0kOK1ox1G29mGC0iMTK2hGXWJZLuKjtrzgvvQt57irwDlrjUaPfPOiW2BgT344J9hbR5KGJvBKGU54n0VkPOlwKSisgGdoSddwzcd8w2_OHpzbl5GVYnCqiu8yb-jYWrf3TzTLljvzEvYT8O2HEaW6w21mM7FIeIFXIO7M6pSCSz5BKCTWWGX9PNX1XtMcnWhDWbEr6ReCEZEUmYtHMmTiHKWge4arimGnNqxFfoVNqa-Z3sceYvnIFlym-V-7A1VE5bYO6nz2hVfaZmvT6hs4EliAUGMP9Ml4HjiVqtj0bF-nKh4y4gPOQ-qGgYdUB3vb6W0bAGiLtYeXAfkcx_SM7m7i__oYit8YbBWrPAiipCraZYLF-2TD86wBb54IhbgN55X2G20OYAPmrEs0vAbXtldj-YBRqdEKqGAJvK0cb6C15GjLl0dAme-078UGb48u1GZvyH_IfgpSCH3B52CAsQ9r9GaMPKHltw33W-jNqvDErEmw43KwkzHebmK5J0qekGIXM6Eqhn_mZZkiL9eezrwMlt2fCpMkDYeGHC9RreUPfwSR2FykBozeNGXhibwcMXHLb7eWPrw_DQkkNmoWSir0IbUbgTZt5GiMAiQh4nVJtEVkmKn_9W5__qSSNUXqq0NqQdghKYTZWB2r51WJXtZdoeCDadgXBFcHGA9nqO46LOKkdDsTdg2bYZNnDTV6KGofMg9DoZmwo2z1pS1Z4I1rJsAT705XTtfnXzmDCm4jx0K5PoP0HZUXg-OPnh3MyIImBQLSAgRK0jgjD184O-X5De1eNY7mnDDs6-_Wpf3yZOW-MGb12xyNHOK_iPSDUDY8Pj3ViXHDeDZeaNK1eub4MziFkBv1RuWrPye_nBzdepM6tYqTZIWHIJ6N1CaFbj4qo3iaEq-7h8Kr-0AaHfJhwGGKQkmi7mJWyE8JhVej71-8NjiAiP3_0piRD41Ux0GseI8p5400B29pEvdCG5jWfJkuJfbAY12di6Z0Y6bFIHAiUXOWvp2JO7vae57Ppx1Cf8jL7kAw2GWViziOA3Vzcc0Y7vTMOkLC4UuoGzSgEvtv0XJE5SQbXnKOyJZfaoENTvwLph4r174MyVIxcRWFy8mm37paUjDA6tCC-rcATM2B5nlbKwnpfRvC7MXZLn9GiLsr3oSIbN4QCAag3AbKSYuFmY6ZK7K6h2E6KUZw-nWdCpKh3SbscHPAdYKj6ga08ZuKqOwbE0r1tehICdNCqekg8sgdXI4YP256ZMO8NQ7MdMhjal9FvprBnyycbIyGZ5eXhnXvEcpDYGXan71uX9SAm5mv7tUxBw1uml8UZ2juJpiCQhMz7mGWV0YjQck5RG7j21WxReGZ7Z-5zrCAtuAe6Jx5L_XRwd7bHvZ8EYXRTkxwJlqx8n4aEAiyu49qr4TsXnv2OPU8fg8P6k_72zESG1pTNo3RM9lylM_w46aCEITDWla2Darrg7FsauBQHyI8GUDctmUG940uS44RTYcWUHw16BNNWrehvjw-m_3GxFPrUJI_clYHiahXOKR3nso34oicz1um3J8aobWGhBf1-X2vJl2HbCXm44wf876CdPuPXm4NAIxrCFHJDoVN5-8YEcMeQRCU7mG7zx3kESt9NcRvRvzliq_mBo4v5FzoQH91GR2bgjhN1ZcxmUoM1uMMcWi9YmkDgIRgFo8yQsk1vM5an389nfJOuA6wrbSHEeSaMbQ8cC56Vapi-4toNGT52euz9E28KBqU3j3vvydFuxJCAUc8a7j3xEo6A6Ictdo23iU5RJaQ4lyPmKc4ig0MTl0KAlsUrjMjB6-kHjnu9ckTWi6FjMzV6Uk2jztZ3NMyv9Kou43X6esYfXqYfsBP4GdLDG4CWk2wlPXVpQtgofYxfbNmSHHSsoVQCwLSx-ike7EQ-dU8fECAakkjpfIzyGdp2CR7Z4mQehrhePkKPKTgIRj3IeBzQ-B7YXOXhRmqR0oWLA9rDpawkv_0qeeuvTWq2rmid5uNhgDpa35TQ0ORS1BdyWe2zLtvofnDNAkNxa2M4BwI19FLF3GcyVWHfhlewLKQYS_8du2NlLhWr5PKCspoXyEneibwBXpvYWagVuqYRAU4D4mFr6zGJHdGkLS57lrbtJvnGWZyxeZ1qDsYD67QRHpjDdHRKZfMeyxBWwaQo13FUjou0USOt-tqnydTnzOUdP4YvALbIAU83UjXvT5F7Zg5kUSy6TCl34uwFaCzuDE5RAEOgvXkqKqQiIcHwurYJ2lxpeSw2bcEoPPTK72DRm4Sa841Y5xawZbKTkZq_-Vtsvfg63bsj3fiY6BeP9KMcdJEh98vLTim9JOdr27n6nsL4EFNT7kS_k-rYfscc3PLuKANuUk4k1oknJ-9B9IbVyJcvvN-IFZBwZcwf8ZYHqaiKWMeLJeZ6b2-Et4K1grqUavTsnIgDGTwAnJVVmJqkUf9RZpeWEpMEDipbX6hYdIIfw3kzg-a_RgRNSqOkvUQZIOkDRgffDLaSSwiExOZW-ARNrivNkhbSLoquJU9wWTVLbQYtxJzps-doQh7r3j9DI2M7wTP-fxDqrwTKjtdlVkaL9NX1DuUvlokMV5Iai0BcjtPOz1eKrCJ5vVREAdHXStBzToWga8w_pArwyJXPBY41CdSd34zrTbTTw59DFgOpHADXcxHqOF-Zz4qAUTvciHUvo17plNfw82H1a4hL9VXpT-2Ik__cujiT-FovgswIl8yllFl-B8no6szV9382BdRRbaB-K3NSBoePtQ_HsLoR-sFUlJYdTd5syVducVwEeuvs9gqrD4wOf3_VW10A2JwkdqkPlR5rG8tZBHUQ_eS1bIfk3GavRgSSeSZL7pv9PYh9i9OsmIu0WXI7wuc12NMZZQNZYC0qYLtty3IIfRioQrZYDVLcTBLj2vVaZ7btJUZBHtLr9SNvx69sVdFU0iJ_0000?></g></svg>