<svg xmlns="http://www.w3.org/2000/svg" xmlns:xlink="http://www.w3.org/1999/xlink" version="1.1" data-diagram-type="SEQUENCE" style="width:1651px;height:921px;background:#FFFFFF;" width="1651px" height="921px" viewBox="0 0 1651 921" zoomAndPan="magnify" preserveAspectRatio="none" contentStyleType="text/css"><?plantuml 1.2026.8?><defs/><g font-family="sans-serif" lengthAdjust="spacing"><g class="title" data-source-line="80"><text x="497.051" y="29.966" fill="#000" font-size="14" textLength="655.197" font-weight="700" font-family="monospace">UART RTS/CTS — one byte of 0xA5 is ten cells, and RTS brackets the whole frame</text></g><g><title>receiver</title><rect x="156" y="129.136" width="8" height="702.65" fill="#000" fill-opacity="0"/><line x1="159.5" y1="129.136" x2="159.5" y2="831.786" style="stroke:#181818;stroke-width:0.5;stroke-dasharray:5,5;"/></g><g><title>RTS</title><rect x="230.6" y="129.136" width="8" height="702.65" fill="#000" fill-opacity="0"/><line x1="234.1" y1="129.136" x2="234.1" y2="831.786" style="stroke:#181818;stroke-width:0.5;stroke-dasharray:5,5;"/></g><g><title>CTS</title><rect x="398.4" y="129.136" width="8" height="702.65" fill="#000" fill-opacity="0"/><line x1="401.9" y1="129.136" x2="401.9" y2="831.786" style="stroke:#181818;stroke-width:0.5;stroke-dasharray:5,5;"/></g><g><title>TX</title><rect x="464.4" y="129.136" width="8" height="702.65" fill="#000" fill-opacity="0"/><line x1="467.9" y1="129.136" x2="467.9" y2="831.786" style="stroke:#181818;stroke-width:0.5;stroke-dasharray:5,5;"/></g><g><title>master</title><rect x="551" y="129.136" width="8" height="702.65" fill="#000" fill-opacity="0"/><line x1="554.5" y1="129.136" x2="554.5" y2="831.786" style="stroke:#181818;stroke-width:0.5;stroke-dasharray:5,5;"/></g><g><title>start</title><rect x="621.8" y="129.136" width="8" height="702.65" fill="#000" fill-opacity="0"/><line x1="625.3" y1="129.136" x2="625.3" y2="831.786" style="stroke:#181818;stroke-width:0.5;stroke-dasharray:5,5;"/></g><g><title>d0</title><rect x="1004.6" y="129.136" width="8" height="702.65" fill="#000" fill-opacity="0"/><line x1="1008.1" y1="129.136" x2="1008.1" y2="831.786" style="stroke:#181818;stroke-width:0.5;stroke-dasharray:5,5;"/></g><g><title>d1</title><rect x="1045.4" y="129.136" width="8" height="702.65" fill="#000" fill-opacity="0"/><line x1="1048.9" y1="129.136" x2="1048.9" y2="831.786" style="stroke:#181818;stroke-width:0.5;stroke-dasharray:5,5;"/></g><g><title>d2</title><rect x="1086.199" y="129.136" width="8" height="702.65" fill="#000" fill-opacity="0"/><line x1="1089.699" y1="129.136" x2="1089.699" y2="831.786" style="stroke:#181818;stroke-width:0.5;stroke-dasharray:5,5;"/></g><g><title>d3</title><rect x="1126.999" y="129.136" width="8" height="702.65" fill="#000" fill-opacity="0"/><line x1="1130.499" y1="129.136" x2="1130.499" y2="831.786" style="stroke:#181818;stroke-width:0.5;stroke-dasharray:5,5;"/></g><g><title>d4</title><rect x="1167.799" y="129.136" width="8" height="702.65" fill="#000" fill-opacity="0"/><line x1="1171.299" y1="129.136" x2="1171.299" y2="831.786" style="stroke:#181818;stroke-width:0.5;stroke-dasharray:5,5;"/></g><g><title>d5</title><rect x="1208.599" y="129.136" width="8" height="702.65" fill="#000" fill-opacity="0"/><line x1="1212.099" y1="129.136" x2="1212.099" y2="831.786" style="stroke:#181818;stroke-width:0.5;stroke-dasharray:5,5;"/></g><g><title>d6</title><rect x="1249.399" y="129.136" width="8" height="702.65" fill="#000" fill-opacity="0"/><line x1="1252.899" y1="129.136" x2="1252.899" y2="831.786" style="stroke:#181818;stroke-width:0.5;stroke-dasharray:5,5;"/></g><g><title>d7</title><rect x="1290.199" y="129.136" width="8" height="702.65" fill="#000" fill-opacity="0"/><line x1="1293.699" y1="129.136" x2="1293.699" y2="831.786" style="stroke:#181818;stroke-width:0.5;stroke-dasharray:5,5;"/></g><g><title>stop</title><rect x="1339.399" y="129.136" width="8" height="702.65" fill="#000" fill-opacity="0"/><line x1="1342.899" y1="129.136" x2="1342.899" y2="831.786" style="stroke:#181818;stroke-width:0.5;stroke-dasharray:5,5;"/></g><g><title>next</title><rect x="1612.999" y="129.136" width="8" height="702.65" fill="#000" fill-opacity="0"/><line x1="1616.499" y1="129.136" x2="1616.499" y2="831.786" style="stroke:#181818;stroke-width:0.5;stroke-dasharray:5,5;"/></g><text x="122.9" y="125.034" fill="#17452A" font-size="14" textLength="67.2" font-family="monospace">receiver</text><ellipse cx="159.5" cy="58.568" rx="8" ry="8" fill="#DCEEE0" style="stroke:#4A8A5C;stroke-width:0.5;"/><path d="M159.5,66.568 L159.5,93.568 M146.5,74.568 L172.5,74.568 M159.5,93.568 L146.5,108.568 M159.5,93.568 L172.5,108.568" style="stroke:#4A8A5C;stroke-width:0.5;" fill="none"/><rect x="206.1" y="76" width="56" height="52.136" fill="#FBE9CF" style="stroke:#4A6FA5;stroke-width:0.5;" rx="2.5" ry="2.5"/><text x="221.5" y="97.966" fill="#16324F" font-size="14" textLength="25.2" font-family="monospace">RTS</text><text x="213.1" y="117.034" fill="#16324F" font-size="14" textLength="42" font-family="monospace">bit 4</text><rect x="373.9" y="76" width="56" height="52.136" fill="#FBE9CF" style="stroke:#4A6FA5;stroke-width:0.5;" rx="2.5" ry="2.5"/><text x="389.3" y="97.966" fill="#16324F" font-size="14" textLength="25.2" font-family="monospace">CTS</text><text x="380.9" y="117.034" fill="#16324F" font-size="14" textLength="42" font-family="monospace">bit 5</text><rect x="439.9" y="76" width="56" height="52.136" fill="#EEF3FB" style="stroke:#4A6FA5;stroke-width:0.5;" rx="2.5" ry="2.5"/><text x="459.5" y="97.966" fill="#16324F" font-size="14" textLength="16.8" font-family="monospace">TX</text><text x="446.9" y="117.034" fill="#16324F" font-size="14" textLength="42" font-family="monospace">bit 0</text><text x="526.3" y="125.034" fill="#17452A" font-size="14" textLength="50.4" font-family="monospace">master</text><ellipse cx="554.5" cy="58.568" rx="8" ry="8" fill="#DCEEE0" style="stroke:#4A8A5C;stroke-width:0.5;"/><path d="M554.5,66.568 L554.5,93.568 M541.5,74.568 L567.5,74.568 M554.5,93.568 L541.5,108.568 M554.5,93.568 L567.5,108.568" style="stroke:#4A8A5C;stroke-width:0.5;" fill="none"/><rect x="597.3" y="95.068" width="56" height="33.068" fill="#EEF3FB" style="stroke:#4A6FA5;stroke-width:0.5;" rx="2.5" ry="2.5"/><text x="604.3" y="117.034" fill="#16324F" font-size="14" textLength="42" font-family="monospace">start</text><rect x="992.7" y="76" width="30.8" height="52.136" fill="#EEF3FB" style="stroke:#4A6FA5;stroke-width:0.5;" rx="2.5" ry="2.5"/><text x="999.7" y="97.966" fill="#16324F" font-size="14" textLength="16.8" font-family="monospace">d0</text><text x="1003.9" y="117.034" fill="#16324F" font-size="14" font-family="monospace">1</text><rect x="1033.5" y="76" width="30.8" height="52.136" fill="#EEF3FB" style="stroke:#4A6FA5;stroke-width:0.5;" rx="2.5" ry="2.5"/><text x="1040.5" y="97.966" fill="#16324F" font-size="14" textLength="16.8" font-family="monospace">d1</text><text x="1044.7" y="117.034" fill="#16324F" font-size="14" font-family="monospace">0</text><rect x="1074.299" y="76" width="30.8" height="52.136" fill="#EEF3FB" style="stroke:#4A6FA5;stroke-width:0.5;" rx="2.5" ry="2.5"/><text x="1081.299" y="97.966" fill="#16324F" font-size="14" textLength="16.8" font-family="monospace">d2</text><text x="1085.499" y="117.034" fill="#16324F" font-size="14" font-family="monospace">1</text><rect x="1115.099" y="76" width="30.8" height="52.136" fill="#EEF3FB" style="stroke:#4A6FA5;stroke-width:0.5;" rx="2.5" ry="2.5"/><text x="1122.099" y="97.966" fill="#16324F" font-size="14" textLength="16.8" font-family="monospace">d3</text><text x="1126.299" y="117.034" fill="#16324F" font-size="14" font-family="monospace">0</text><rect x="1155.899" y="76" width="30.8" height="52.136" fill="#EEF3FB" style="stroke:#4A6FA5;stroke-width:0.5;" rx="2.5" ry="2.5"/><text x="1162.899" y="97.966" fill="#16324F" font-size="14" textLength="16.8" font-family="monospace">d4</text><text x="1167.099" y="117.034" fill="#16324F" font-size="14" font-family="monospace">0</text><rect x="1196.699" y="76" width="30.8" height="52.136" fill="#EEF3FB" style="stroke:#4A6FA5;stroke-width:0.5;" rx="2.5" ry="2.5"/><text x="1203.699" y="97.966" fill="#16324F" font-size="14" textLength="16.8" font-family="monospace">d5</text><text x="1207.899" y="117.034" fill="#16324F" font-size="14" font-family="monospace">1</text><rect x="1237.499" y="76" width="30.8" height="52.136" fill="#EEF3FB" style="stroke:#4A6FA5;stroke-width:0.5;" rx="2.5" ry="2.5"/><text x="1244.499" y="97.966" fill="#16324F" font-size="14" textLength="16.8" font-family="monospace">d6</text><text x="1248.699" y="117.034" fill="#16324F" font-size="14" font-family="monospace">0</text><rect x="1278.299" y="76" width="30.8" height="52.136" fill="#EEF3FB" style="stroke:#4A6FA5;stroke-width:0.5;" rx="2.5" ry="2.5"/><text x="1285.299" y="97.966" fill="#16324F" font-size="14" textLength="16.8" font-family="monospace">d7</text><text x="1289.499" y="117.034" fill="#16324F" font-size="14" font-family="monospace">1</text><rect x="1319.099" y="95.068" width="47.6" height="33.068" fill="#EEF3FB" style="stroke:#4A6FA5;stroke-width:0.5;" rx="2.5" ry="2.5"/><text x="1326.099" y="117.034" fill="#16324F" font-size="14" textLength="33.6" font-family="monospace">stop</text><rect x="1592.699" y="95.068" width="47.6" height="33.068" fill="#EEF3FB" style="stroke:#4A6FA5;stroke-width:0.5;" rx="2.5" ry="2.5"/><text x="1599.699" y="117.034" fill="#16324F" font-size="14" textLength="33.6" font-family="monospace">next</text><text x="122.9" y="846.752" fill="#17452A" font-size="14" textLength="67.2" font-family="monospace">receiver</text><ellipse cx="159.5" cy="859.354" rx="8" ry="8" fill="#DCEEE0" style="stroke:#4A8A5C;stroke-width:0.5;"/><path d="M159.5,867.354 L159.5,894.354 M146.5,875.354 L172.5,875.354 M159.5,894.354 L146.5,909.354 M159.5,894.354 L172.5,909.354" style="stroke:#4A8A5C;stroke-width:0.5;" fill="none"/><rect x="206.1" y="831.786" width="56" height="52.136" fill="#FBE9CF" style="stroke:#4A6FA5;stroke-width:0.5;" rx="2.5" ry="2.5"/><text x="221.5" y="853.752" fill="#16324F" font-size="14" textLength="25.2" font-family="monospace">RTS</text><text x="213.1" y="872.82" fill="#16324F" font-size="14" textLength="42" font-family="monospace">bit 4</text><rect x="373.9" y="831.786" width="56" height="52.136" fill="#FBE9CF" style="stroke:#4A6FA5;stroke-width:0.5;" rx="2.5" ry="2.5"/><text x="389.3" y="853.752" fill="#16324F" font-size="14" textLength="25.2" font-family="monospace">CTS</text><text x="380.9" y="872.82" fill="#16324F" font-size="14" textLength="42" font-family="monospace">bit 5</text><rect x="439.9" y="831.786" width="56" height="52.136" fill="#EEF3FB" style="stroke:#4A6FA5;stroke-width:0.5;" rx="2.5" ry="2.5"/><text x="459.5" y="853.752" fill="#16324F" font-size="14" textLength="16.8" font-family="monospace">TX</text><text x="446.9" y="872.82" fill="#16324F" font-size="14" textLength="42" font-family="monospace">bit 0</text><text x="526.3" y="846.752" fill="#17452A" font-size="14" textLength="50.4" font-family="monospace">master</text><ellipse cx="554.5" cy="859.354" rx="8" ry="8" fill="#DCEEE0" style="stroke:#4A8A5C;stroke-width:0.5;"/><path d="M554.5,867.354 L554.5,894.354 M541.5,875.354 L567.5,875.354 M554.5,894.354 L541.5,909.354 M554.5,894.354 L567.5,909.354" style="stroke:#4A8A5C;stroke-width:0.5;" fill="none"/><rect x="597.3" y="831.786" width="56" height="33.068" fill="#EEF3FB" style="stroke:#4A6FA5;stroke-width:0.5;" rx="2.5" ry="2.5"/><text x="604.3" y="853.752" fill="#16324F" font-size="14" textLength="42" font-family="monospace">start</text><rect x="992.7" y="831.786" width="30.8" height="52.136" fill="#EEF3FB" style="stroke:#4A6FA5;stroke-width:0.5;" rx="2.5" ry="2.5"/><text x="999.7" y="853.752" fill="#16324F" font-size="14" textLength="16.8" font-family="monospace">d0</text><text x="1003.9" y="872.82" fill="#16324F" font-size="14" font-family="monospace">1</text><rect x="1033.5" y="831.786" width="30.8" height="52.136" fill="#EEF3FB" style="stroke:#4A6FA5;stroke-width:0.5;" rx="2.5" ry="2.5"/><text x="1040.5" y="853.752" fill="#16324F" font-size="14" textLength="16.8" font-family="monospace">d1</text><text x="1044.7" y="872.82" fill="#16324F" font-size="14" font-family="monospace">0</text><rect x="1074.299" y="831.786" width="30.8" height="52.136" fill="#EEF3FB" style="stroke:#4A6FA5;stroke-width:0.5;" rx="2.5" ry="2.5"/><text x="1081.299" y="853.752" fill="#16324F" font-size="14" textLength="16.8" font-family="monospace">d2</text><text x="1085.499" y="872.82" fill="#16324F" font-size="14" font-family="monospace">1</text><rect x="1115.099" y="831.786" width="30.8" height="52.136" fill="#EEF3FB" style="stroke:#4A6FA5;stroke-width:0.5;" rx="2.5" ry="2.5"/><text x="1122.099" y="853.752" fill="#16324F" font-size="14" textLength="16.8" font-family="monospace">d3</text><text x="1126.299" y="872.82" fill="#16324F" font-size="14" font-family="monospace">0</text><rect x="1155.899" y="831.786" width="30.8" height="52.136" fill="#EEF3FB" style="stroke:#4A6FA5;stroke-width:0.5;" rx="2.5" ry="2.5"/><text x="1162.899" y="853.752" fill="#16324F" font-size="14" textLength="16.8" font-family="monospace">d4</text><text x="1167.099" y="872.82" fill="#16324F" font-size="14" font-family="monospace">0</text><rect x="1196.699" y="831.786" width="30.8" height="52.136" fill="#EEF3FB" style="stroke:#4A6FA5;stroke-width:0.5;" rx="2.5" ry="2.5"/><text x="1203.699" y="853.752" fill="#16324F" font-size="14" textLength="16.8" font-family="monospace">d5</text><text x="1207.899" y="872.82" fill="#16324F" font-size="14" font-family="monospace">1</text><rect x="1237.499" y="831.786" width="30.8" height="52.136" fill="#EEF3FB" style="stroke:#4A6FA5;stroke-width:0.5;" rx="2.5" ry="2.5"/><text x="1244.499" y="853.752" fill="#16324F" font-size="14" textLength="16.8" font-family="monospace">d6</text><text x="1248.699" y="872.82" fill="#16324F" font-size="14" font-family="monospace">0</text><rect x="1278.299" y="831.786" width="30.8" height="52.136" fill="#EEF3FB" style="stroke:#4A6FA5;stroke-width:0.5;" rx="2.5" ry="2.5"/><text x="1285.299" y="853.752" fill="#16324F" font-size="14" textLength="16.8" font-family="monospace">d7</text><text x="1289.499" y="872.82" fill="#16324F" font-size="14" font-family="monospace">1</text><rect x="1319.099" y="831.786" width="47.6" height="33.068" fill="#EEF3FB" style="stroke:#4A6FA5;stroke-width:0.5;" rx="2.5" ry="2.5"/><text x="1326.099" y="853.752" fill="#16324F" font-size="14" textLength="33.6" font-family="monospace">stop</text><rect x="1592.699" y="831.786" width="47.6" height="33.068" fill="#EEF3FB" style="stroke:#4A6FA5;stroke-width:0.5;" rx="2.5" ry="2.5"/><text x="1599.699" y="853.752" fill="#16324F" font-size="14" textLength="33.6" font-family="monospace">next</text><polygon points="245.1,156.842,235.1,160.842,245.1,164.842,241.1,160.842" fill="#333" style="stroke:#333;stroke-width:1;stroke-linejoin:miter;stroke-miterlimit:10;"/><line x1="239.1" y1="160.842" x2="553.5" y2="160.842" style="stroke:#333;stroke-width:1;"/><text x="251.1" y="155.033" fill="#000" font-size="13" textLength="296.4" font-family="monospace">RTS HIGH — asserted BEFORE CTS is read</text><polygon points="389.9,188.548,399.9,192.548,389.9,196.548,393.9,192.548" fill="#333" style="stroke:#333;stroke-width:1;stroke-linejoin:miter;stroke-miterlimit:10;"/><line x1="159.5" y1="192.548" x2="395.9" y2="192.548" style="stroke:#333;stroke-width:1;"/><text x="166.5" y="186.739" fill="#000" font-size="13" textLength="218.4" font-family="monospace">CTS HIGH, in response to RTS</text><path d="M15,205.548 L15,285.548 L620,285.548 L620,215.548 L610,205.548 L15,205.548" style="stroke:#181818;stroke-width:0.5;" fill="#FEFFDD"/><path d="M610,205.548 L610,215.548 L620,215.548 L610,205.548" style="stroke:#181818;stroke-width:0.5;" fill="#FEFFDD"/><text x="21" y="224.445" fill="#000" font-size="13" textLength="553.8" font-family="monospace">ORDER IS ASSERTED, NOT INFERRED. RTS is the MASTER's pin and CTS is the</text><text x="21" y="242.151" fill="#000" font-size="13" textLength="553.8" font-family="monospace">receiver's; the receiver never drives RTS. A driver that waited for CTS</text><text x="21" y="259.857" fill="#000" font-size="13" textLength="585" font-family="monospace">before asserting RTS deadlocks against a receiver that only raises CTS when</text><text x="21" y="277.563" fill="#000" font-size="13" textLength="585" font-family="monospace">asked, and the TB's second case is exactly what such a receiver looks like.</text><polygon points="613.3,311.078,623.3,315.078,613.3,319.078,617.3,315.078" fill="#333" style="stroke:#333;stroke-width:1;stroke-linejoin:miter;stroke-miterlimit:10;"/><line x1="554.5" y1="315.078" x2="619.3" y2="315.078" style="stroke:#333;stroke-width:1;"/><text x="561.5" y="309.269" fill="#000" font-size="13" textLength="46.8" font-family="monospace">TX low</text><polygon points="996.1,342.784,1006.1,346.784,996.1,350.784,1000.1,346.784" fill="#333" style="stroke:#333;stroke-width:1;stroke-linejoin:miter;stroke-miterlimit:10;"/><line x1="625.3" y1="346.784" x2="1002.1" y2="346.784" style="stroke:#333;stroke-width:1;"/><text x="632.3" y="340.975" fill="#000" font-size="13" textLength="358.8" font-family="monospace">one cell = 2 TIMER ticks = 520 clks = 8.667 us</text><polygon points="1036.9,356.784,1046.9,360.784,1036.9,364.784,1040.9,360.784" fill="#333" style="stroke:#333;stroke-width:1;stroke-linejoin:miter;stroke-miterlimit:10;"/><line x1="1008.1" y1="360.784" x2="1042.9" y2="360.784" style="stroke:#333;stroke-width:1;"/><polygon points="1077.699,370.784,1087.699,374.784,1077.699,378.784,1081.699,374.784" fill="#333" style="stroke:#333;stroke-width:1;stroke-linejoin:miter;stroke-miterlimit:10;"/><line x1="1048.9" y1="374.784" x2="1083.699" y2="374.784" style="stroke:#333;stroke-width:1;"/><polygon points="1118.499,384.784,1128.499,388.784,1118.499,392.784,1122.499,388.784" fill="#333" style="stroke:#333;stroke-width:1;stroke-linejoin:miter;stroke-miterlimit:10;"/><line x1="1089.699" y1="388.784" x2="1124.499" y2="388.784" style="stroke:#333;stroke-width:1;"/><polygon points="1159.299,398.784,1169.299,402.784,1159.299,406.784,1163.299,402.784" fill="#333" style="stroke:#333;stroke-width:1;stroke-linejoin:miter;stroke-miterlimit:10;"/><line x1="1130.499" y1="402.784" x2="1165.299" y2="402.784" style="stroke:#333;stroke-width:1;"/><polygon points="1200.099,412.784,1210.099,416.784,1200.099,420.784,1204.099,416.784" fill="#333" style="stroke:#333;stroke-width:1;stroke-linejoin:miter;stroke-miterlimit:10;"/><line x1="1171.299" y1="416.784" x2="1206.099" y2="416.784" style="stroke:#333;stroke-width:1;"/><polygon points="1240.899,426.784,1250.899,430.784,1240.899,434.784,1244.899,430.784" fill="#333" style="stroke:#333;stroke-width:1;stroke-linejoin:miter;stroke-miterlimit:10;"/><line x1="1212.099" y1="430.784" x2="1246.899" y2="430.784" style="stroke:#333;stroke-width:1;"/><polygon points="1281.699,440.784,1291.699,444.784,1281.699,448.784,1285.699,444.784" fill="#333" style="stroke:#333;stroke-width:1;stroke-linejoin:miter;stroke-miterlimit:10;"/><line x1="1252.899" y1="444.784" x2="1287.699" y2="444.784" style="stroke:#333;stroke-width:1;"/><polygon points="1330.899,454.784,1340.899,458.784,1330.899,462.784,1334.899,458.784" fill="#333" style="stroke:#333;stroke-width:1;stroke-linejoin:miter;stroke-miterlimit:10;"/><line x1="1293.699" y1="458.784" x2="1336.899" y2="458.784" style="stroke:#333;stroke-width:1;"/><polygon points="1604.499,486.49,1614.499,490.49,1604.499,494.49,1608.499,490.49" fill="#333" style="stroke:#333;stroke-width:1;stroke-linejoin:miter;stroke-miterlimit:10;"/><line x1="1342.899" y1="490.49" x2="1610.499" y2="490.49" style="stroke:#333;stroke-width:1;"/><text x="1349.899" y="484.681" fill="#000" font-size="13" textLength="249.6" font-family="monospace">RTS released here, and only here</text><path d="M957.099,503.49 L957.099,654.49 L1344.099,654.49 L1344.099,513.49 L1334.099,503.49 L957.099,503.49" style="stroke:#181818;stroke-width:0.5;" fill="#FEFFDD"/><path d="M1334.099,503.49 L1334.099,513.49 L1344.099,513.49 L1334.099,503.49" style="stroke:#181818;stroke-width:0.5;" fill="#FEFFDD"/><text x="963.099" y="522.387" fill="#000" font-size="13" textLength="358.8" font-family="monospace">LSB FIRST, and the payload is 0x00, 0xFF, 0xA5</text><text x="963.099" y="540.093" fill="#000" font-size="13" textLength="343.2" font-family="monospace">on purpose. 0x00 is eight zero bits behind a</text><text x="963.099" y="557.799" fill="#000" font-size="13" textLength="358.8" font-family="monospace">start bit and 0xFF is eight one bits, so a bit</text><text x="963.099" y="575.505" fill="#000" font-size="13" textLength="366.6" font-family="monospace">period a little long or a little short shows up</text><text x="963.099" y="593.211" fill="#000" font-size="13" textLength="327.6" font-family="monospace">in one of them and not the other; and 0xA5</text><text x="963.099" y="610.917" fill="#000" font-size="13" textLength="319.8" font-family="monospace">(1010 0101) is not a bit palindrome, so a</text><text x="963.099" y="628.623" fill="#000" font-size="13" textLength="319.8" font-family="monospace">transmitter that shifted the wrong way is</text><text x="963.099" y="646.329" fill="#000" font-size="13" textLength="319.8" font-family="monospace">visible rather than accidentally correct.</text><path d="M604.4,665.138 L604.4,816.138 L1363.4,816.138 L1363.4,675.138 L1353.4,665.138 L604.4,665.138" style="stroke:#181818;stroke-width:0.5;" fill="#FEFFDD"/><path d="M1353.4,665.138 L1353.4,675.138 L1363.4,675.138 L1353.4,665.138" style="stroke:#181818;stroke-width:0.5;" fill="#FEFFDD"/><text x="804.099" y="684.035" fill="#000" font-size="13" textLength="335.4" font-family="monospace">TEN cells: a start bit, eight data bits LSB</text><text x="804.099" y="701.741" fill="#000" font-size="13" textLength="335.4" font-family="monospace">first, and a stop bit. The handshake is NOT</text><text x="804.099" y="719.447" fill="#000" font-size="13" textLength="351" font-family="monospace">a ninth clock — it brackets the frame: RTS is</text><text x="804.099" y="737.153" fill="#000" font-size="13" textLength="327.6" font-family="monospace">high from before the first start bit until</text><text x="804.099" y="754.859" fill="#000" font-size="13" textLength="265.2" font-family="monospace">after the last stop bit, and it is</text><text x="804.099" y="772.565" fill="#000" font-size="13" textLength="327.6" font-family="monospace">re-asserted inside every single OUT, so it</text><text x="804.099" y="790.271" fill="#000" font-size="13" textLength="327.6" font-family="monospace">cannot be dropped by a refactor of the bit</text><text x="804.099" y="807.977" fill="#000" font-size="13" textLength="39" font-family="monospace">loop.</text><?plantuml-src TLNBRkCs5DthAoxInRI0nvNVqmocWECuCm6Qf90rm2ooeSMhIB1CgYGzjcVLZ-WNzajwIFcT9aQ4Izvptm-wqbLCNyT9Iaaw-tMIpkZVl_yXhPZcMyUaSuetum6LbXmhohYgR8k4aXvESoEo1Jlm2gPreQ4gDsB9aLsKgXOWIN8kLfMxqyezWaCFMcbRYupb2UXFOLoPbRLGxWOQNunUAJdHbJRq4tFUo-TlWBMHR7R0lXZcOl3_G6z-1-iCUzr-VW8RPqwRLsPbnipnAzYvmGzYa5r2JasD-eEkE07C-AyLgum_mrBzocG-zxytuQUcvx7_dPesHgztp5xuYoBXtQ4hmncNtzbSaR2KHFKnAtI58ZwhUUcett1HKxZ1lsNvEMwonmq2Rl8MBltMmE80Ix_jVLWAwtOUF4JH0xt_FTYw3jylzv-_XAuJrh9nBEbcUlUKJ8CPD9vX8QF4oqo2p6Gdqw9IWMbhhIoJqrvPfBJlMeJhJosFZOYUajjfGlSp6izcqoITthReyIcb-yUxQP9CRzl1ZR9fuuVnB9qcxopLqEuRVNBWGTC-cU_inu3Udqcn_qg3GyXZcyRDoG0d7Ar5wIFBaOt6fpc3vbtCfNe9FaY4MkbiOKcyY59PH-9e8kZHgjgI4QNbfWphWXMq2RjWsGocTokzGG2MCurp9f0T1C0R50F2Qw_6hhBYL7UbDOnMvOBR4KF8f_6yjDRX52fetJb7ni-g4pWolk1qdbNJ2h9pmUaUPBeNdDv1fdV1wHyu_GlEuA1jSC4P7cI65vpHGMPq6Qckcq3hSuRYJPC1jTarCGfqZJP7-jOHQDp863T-VVfLIP-eI-dz0veFMf3WJpJenfHLWVpG7Wv7jB8HPBna9vATG7GZsGr4BvAzGFGZsG_489A3G0mZEGp4A9AZu4eTsTeJQhERAyCLe_QI2ZRSz4Re7dyycHCPjxmMeZzcDtHtdypIOn_LObjf8Ntxn9iOm7XpTzSAJm84jA9wPMfjkHtOeSlAbyBH3pQQi0WishmeeKm07Zh8tmRrNjDH83mumBV8QlGbI0ZKR4eDMVIbyyzKfJ4c6A33XIqqDEAxjhIg8O6HzPhmQi7xPR23G4Ce6X_pSMSwkFzp9-x4XF_EBzuH3moM4NK5durUSkCEiCu8PPUmkfz3MvIv7-ZmyXdls5fieGROxwKjv_3E26_Imx58igoKh9oeK81C6moUEvcqOpMiQ_bI4gNJn-QvlOPNXzIrTlcImeacmQWQq7bflAIFpgDrxPbjIk4Tp4jRY4LO0bXxVbkGAfKhq8ZODM7r8kgpnpmyuzUxlGY90bPngPVxlHL0tkX9MLVAbPLNdpTfGiL403JkDEu15pGQVd_OzzXqo0xv5RebYsM8x3rzJKFsGoTaGldop1axLTSrHERRiBxove5f2hvh6-oo-fZR_m00?></g></svg>