<svg xmlns="http://www.w3.org/2000/svg" xmlns:xlink="http://www.w3.org/1999/xlink" version="1.1" data-diagram-type="TIMING" style="width:1103px;height:332px;background:#FFFFFF;" width="1103px" height="332px" viewBox="0 0 1103 332" zoomAndPan="magnify" preserveAspectRatio="none" contentStyleType="text/css"><?plantuml 1.2026.8?><defs/><g font-family="sans-serif" lengthAdjust="spacing"><g class="title" data-source-line="274"><text x="196.901" y="34.966" fill="#000" font-size="14" textLength="655.197" font-weight="700" font-family="monospace">MIDI — the rate window is 0.3%, and the delay loop's own quantisation is 0.68%</text></g><line x1="20" y1="60.068" x2="20" y2="296.34" style="stroke:#333;stroke-width:0.5;"/><line x1="1030" y1="60.068" x2="1030" y2="296.34" style="stroke:#333;stroke-width:0.5;"/><line x1="25" y1="60.068" x2="25" y2="296.34" style="stroke:#333;stroke-width:0.5;stroke-dasharray:3,5;"/><line x1="75" y1="60.068" x2="75" y2="296.34" style="stroke:#333;stroke-width:0.5;stroke-dasharray:3,5;"/><line x1="125" y1="60.068" x2="125" y2="296.34" style="stroke:#333;stroke-width:0.5;stroke-dasharray:3,5;"/><line x1="175" y1="60.068" x2="175" y2="296.34" style="stroke:#333;stroke-width:0.5;stroke-dasharray:3,5;"/><line x1="225" y1="60.068" x2="225" y2="296.34" style="stroke:#333;stroke-width:0.5;stroke-dasharray:3,5;"/><line x1="275" y1="60.068" x2="275" y2="296.34" style="stroke:#333;stroke-width:0.5;stroke-dasharray:3,5;"/><line x1="325" y1="60.068" x2="325" y2="296.34" style="stroke:#333;stroke-width:0.5;stroke-dasharray:3,5;"/><line x1="375" y1="60.068" x2="375" y2="296.34" style="stroke:#333;stroke-width:0.5;stroke-dasharray:3,5;"/><line x1="425" y1="60.068" x2="425" y2="296.34" style="stroke:#333;stroke-width:0.5;stroke-dasharray:3,5;"/><line x1="475" y1="60.068" x2="475" y2="296.34" style="stroke:#333;stroke-width:0.5;stroke-dasharray:3,5;"/><line x1="525" y1="60.068" x2="525" y2="296.34" style="stroke:#333;stroke-width:0.5;stroke-dasharray:3,5;"/><line x1="575" y1="60.068" x2="575" y2="296.34" style="stroke:#333;stroke-width:0.5;stroke-dasharray:3,5;"/><line x1="625" y1="60.068" x2="625" y2="296.34" style="stroke:#333;stroke-width:0.5;stroke-dasharray:3,5;"/><line x1="675" y1="60.068" x2="675" y2="296.34" style="stroke:#333;stroke-width:0.5;stroke-dasharray:3,5;"/><line x1="725" y1="60.068" x2="725" y2="296.34" style="stroke:#333;stroke-width:0.5;stroke-dasharray:3,5;"/><line x1="775" y1="60.068" x2="775" y2="296.34" style="stroke:#333;stroke-width:0.5;stroke-dasharray:3,5;"/><line x1="825" y1="60.068" x2="825" y2="296.34" style="stroke:#333;stroke-width:0.5;stroke-dasharray:3,5;"/><line x1="875" y1="60.068" x2="875" y2="296.34" style="stroke:#333;stroke-width:0.5;stroke-dasharray:3,5;"/><line x1="925" y1="60.068" x2="925" y2="296.34" style="stroke:#333;stroke-width:0.5;stroke-dasharray:3,5;"/><line x1="975" y1="60.068" x2="975" y2="296.34" style="stroke:#333;stroke-width:0.5;stroke-dasharray:3,5;"/><line x1="1025" y1="60.068" x2="1025" y2="296.34" style="stroke:#333;stroke-width:0.5;stroke-dasharray:3,5;"/><line x1="20" y1="60.068" x2="1030" y2="60.068" style="stroke:#333;stroke-width:0.5;"/><text x="25" y="75.034" fill="#333" font-size="14" textLength="125.999" font-weight="700" font-family="monospace">clocks per cell</text><line x1="20" y1="80.136" x2="151.999" y2="80.136" style="stroke:#333;stroke-width:0.5;"/><line x1="151.999" y1="80.136" x2="161.999" y2="60.068" style="stroke:#333;stroke-width:0.5;"/><polygon points="37,85.136,113,85.136,125,97.136,113,109.136,37,109.136,25,97.136" fill="#E2E2F0" style="stroke:#006400;stroke-width:1.5;stroke-linejoin:miter;stroke-miterlimit:10;"/><polygon points="137,85.136,213,85.136,225,97.136,213,109.136,137,109.136,125,97.136" fill="#E2E2F0" style="stroke:#006400;stroke-width:1.5;stroke-linejoin:miter;stroke-miterlimit:10;"/><polygon points="237,85.136,313,85.136,325,97.136,313,109.136,237,109.136,225,97.136" fill="#E2E2F0" style="stroke:#006400;stroke-width:1.5;stroke-linejoin:miter;stroke-miterlimit:10;"/><polygon points="337,85.136,1025,85.136,1025,109.136,337,109.136,325,97.136" fill="#E2E2F0" style="stroke:#E2E2F0;stroke-width:1.5;stroke-linejoin:miter;stroke-miterlimit:10;"/><path d="M1025,85.136 L337,85.136 L325,97.136 L337,109.136 L1025,109.136" style="stroke:#006400;stroke-width:1.5;" fill="#E2E2F0"/><text x="60.6" y="101.792" fill="#333" font-size="12" textLength="28.8" font-weight="700" font-family="monospace">1907</text><text x="160.6" y="101.792" fill="#333" font-size="12" textLength="28.8" font-weight="700" font-family="monospace">1920</text><text x="260.6" y="101.792" fill="#333" font-size="12" textLength="28.8" font-weight="700" font-family="monospace">1933</text><text x="337" y="101.792" fill="#333" font-size="12" textLength="28.8" font-weight="700" font-family="monospace">1920</text><line x1="20" y1="119.136" x2="1030" y2="119.136" style="stroke:#333;stroke-width:0.5;"/><text x="25" y="134.102" fill="#333" font-size="14" textLength="92.4" font-weight="700" font-family="monospace">cell length</text><line x1="20" y1="139.204" x2="118.4" y2="139.204" style="stroke:#333;stroke-width:0.5;"/><line x1="118.4" y1="139.204" x2="128.4" y2="119.136" style="stroke:#333;stroke-width:0.5;"/><polygon points="37,144.204,113,144.204,125,156.204,113,168.204,37,168.204,25,156.204" fill="#E2E2F0" style="stroke:#006400;stroke-width:1.5;stroke-linejoin:miter;stroke-miterlimit:10;"/><polygon points="137,144.204,213,144.204,225,156.204,213,168.204,137,168.204,125,156.204" fill="#E2E2F0" style="stroke:#006400;stroke-width:1.5;stroke-linejoin:miter;stroke-miterlimit:10;"/><polygon points="237,144.204,313,144.204,325,156.204,313,168.204,237,168.204,225,156.204" fill="#E2E2F0" style="stroke:#006400;stroke-width:1.5;stroke-linejoin:miter;stroke-miterlimit:10;"/><polygon points="337,144.204,1025,144.204,1025,168.204,337,168.204,325,156.204" fill="#E2E2F0" style="stroke:#E2E2F0;stroke-width:1.5;stroke-linejoin:miter;stroke-miterlimit:10;"/><path d="M1025,144.204 L337,144.204 L325,156.204 L337,168.204 L1025,168.204" style="stroke:#006400;stroke-width:1.5;" fill="#E2E2F0"/><text x="21" y="160.86" fill="#333" font-size="12" textLength="108.001" font-weight="700" font-family="monospace">13 x 146 = 1898</text><text x="121" y="160.86" fill="#333" font-size="12" textLength="108.001" font-weight="700" font-family="monospace">13 x 147 = 1911</text><text x="221" y="160.86" fill="#333" font-size="12" textLength="108.001" font-weight="700" font-family="monospace">13 x 148 = 1924</text><text x="337" y="160.86" fill="#333" font-size="12" textLength="122.401" font-weight="700" font-family="monospace">TB window +/-0.3%</text><line x1="20" y1="178.204" x2="1030" y2="178.204" style="stroke:#333;stroke-width:0.5;"/><text x="25" y="193.17" fill="#333" font-size="14" textLength="75.6" font-weight="700" font-family="monospace">cell time</text><line x1="20" y1="198.272" x2="101.6" y2="198.272" style="stroke:#333;stroke-width:0.5;"/><line x1="101.6" y1="198.272" x2="111.6" y2="178.204" style="stroke:#333;stroke-width:0.5;"/><polygon points="37,203.272,113,203.272,125,215.272,113,227.272,37,227.272,25,215.272" fill="#E2E2F0" style="stroke:#006400;stroke-width:1.5;stroke-linejoin:miter;stroke-miterlimit:10;"/><polygon points="137,203.272,213,203.272,225,215.272,213,227.272,137,227.272,125,215.272" fill="#E2E2F0" style="stroke:#006400;stroke-width:1.5;stroke-linejoin:miter;stroke-miterlimit:10;"/><polygon points="237,203.272,313,203.272,325,215.272,313,227.272,237,227.272,225,215.272" fill="#E2E2F0" style="stroke:#006400;stroke-width:1.5;stroke-linejoin:miter;stroke-miterlimit:10;"/><polygon points="337,203.272,1025,203.272,1025,227.272,337,227.272,325,215.272" fill="#E2E2F0" style="stroke:#E2E2F0;stroke-width:1.5;stroke-linejoin:miter;stroke-miterlimit:10;"/><path d="M1025,203.272 L337,203.272 L325,215.272 L337,227.272 L1025,227.272" style="stroke:#006400;stroke-width:1.5;" fill="#E2E2F0"/><text x="42.6" y="219.928" fill="#333" font-size="12" textLength="64.801" font-weight="700" font-family="monospace">31.783 us</text><text x="142.6" y="219.928" fill="#333" font-size="12" textLength="64.801" font-weight="700" font-family="monospace">32.000 us</text><text x="242.6" y="219.928" fill="#333" font-size="12" textLength="64.801" font-weight="700" font-family="monospace">32.217 us</text><text x="337" y="219.928" fill="#333" font-size="12" textLength="64.801" font-weight="700" font-family="monospace">1920 only</text><line x1="20" y1="237.272" x2="1030" y2="237.272" style="stroke:#333;stroke-width:0.5;"/><text x="25" y="252.238" fill="#333" font-size="14" textLength="58.8" font-weight="700" font-family="monospace">verdict</text><line x1="20" y1="257.34" x2="84.8" y2="257.34" style="stroke:#333;stroke-width:0.5;"/><line x1="84.8" y1="257.34" x2="94.8" y2="237.272" style="stroke:#333;stroke-width:0.5;"/><polygon points="37,262.34,113,262.34,125,274.34,113,286.34,37,286.34,25,274.34" fill="#E2E2F0" style="stroke:#006400;stroke-width:1.5;stroke-linejoin:miter;stroke-miterlimit:10;"/><polygon points="137,262.34,213,262.34,225,274.34,213,286.34,137,286.34,125,274.34" fill="#E2E2F0" style="stroke:#006400;stroke-width:1.5;stroke-linejoin:miter;stroke-miterlimit:10;"/><polygon points="237,262.34,313,262.34,325,274.34,313,286.34,237,286.34,225,274.34" fill="#E2E2F0" style="stroke:#006400;stroke-width:1.5;stroke-linejoin:miter;stroke-miterlimit:10;"/><polygon points="337,262.34,463,262.34,475,274.34,463,286.34,337,286.34,325,274.34" fill="#E2E2F0" style="stroke:#006400;stroke-width:1.5;stroke-linejoin:miter;stroke-miterlimit:10;"/><polygon points="487,262.34,563,262.34,575,274.34,563,286.34,487,286.34,475,274.34" fill="#E2E2F0" style="stroke:#006400;stroke-width:1.5;stroke-linejoin:miter;stroke-miterlimit:10;"/><polygon points="587,262.34,663,262.34,675,274.34,663,286.34,587,286.34,575,274.34" fill="#E2E2F0" style="stroke:#006400;stroke-width:1.5;stroke-linejoin:miter;stroke-miterlimit:10;"/><polygon points="687,262.34,763,262.34,775,274.34,763,286.34,687,286.34,675,274.34" fill="#E2E2F0" style="stroke:#006400;stroke-width:1.5;stroke-linejoin:miter;stroke-miterlimit:10;"/><polygon points="787,262.34,863,262.34,875,274.34,863,286.34,787,286.34,775,274.34" fill="#E2E2F0" style="stroke:#006400;stroke-width:1.5;stroke-linejoin:miter;stroke-miterlimit:10;"/><polygon points="887,262.34,963,262.34,975,274.34,963,286.34,887,286.34,875,274.34" fill="#E2E2F0" style="stroke:#006400;stroke-width:1.5;stroke-linejoin:miter;stroke-miterlimit:10;"/><polygon points="987,262.34,1025,262.34,1025,286.34,987,286.34,975,274.34" fill="#E2E2F0" style="stroke:#E2E2F0;stroke-width:1.5;stroke-linejoin:miter;stroke-miterlimit:10;"/><path d="M1025,262.34 L987,262.34 L975,274.34 L987,286.34 L1025,286.34" style="stroke:#006400;stroke-width:1.5;" fill="#E2E2F0"/><text x="39" y="278.996" fill="#333" font-size="12" textLength="72.001" font-weight="700" font-family="monospace">0.68% fast</text><text x="149.8" y="278.996" fill="#333" font-size="12" textLength="50.4" font-weight="700" font-family="monospace">THE ONE</text><text x="239" y="278.996" fill="#333" font-size="12" textLength="72.001" font-weight="700" font-family="monospace">0.68% slow</text><text x="367.6" y="278.996" fill="#333" font-size="12" textLength="64.801" font-weight="700" font-family="monospace">one value</text><text x="463.8" y="278.996" fill="#333" font-size="12" textLength="122.401" font-weight="700" font-family="monospace">MIDI allows +/-2%</text><text x="585.4" y="278.996" fill="#333" font-size="12" textLength="79.201" font-weight="700" font-family="monospace">a 2% window</text><text x="667.4" y="278.996" fill="#333" font-size="12" textLength="115.201" font-weight="700" font-family="monospace">admits all three</text><text x="774.6" y="278.996" fill="#333" font-size="12" textLength="100.801" font-weight="700" font-family="monospace">the check dies</text><text x="881.8" y="278.996" fill="#333" font-size="12" textLength="86.401" font-weight="700" font-family="monospace">0.3% &lt; 0.68%</text><text x="987" y="278.996" fill="#333" font-size="12" textLength="115.201" font-weight="700" font-family="monospace">kills the mutant</text><line x1="25" y1="296.34" x2="25" y2="301.34" style="stroke:#333;stroke-width:2;"/><line x1="75" y1="296.34" x2="75" y2="301.34" style="stroke:#333;stroke-width:2;"/><line x1="125" y1="296.34" x2="125" y2="301.34" style="stroke:#333;stroke-width:2;"/><line x1="175" y1="296.34" x2="175" y2="301.34" style="stroke:#333;stroke-width:2;"/><line x1="225" y1="296.34" x2="225" y2="301.34" style="stroke:#333;stroke-width:2;"/><line x1="275" y1="296.34" x2="275" y2="301.34" style="stroke:#333;stroke-width:2;"/><line x1="325" y1="296.34" x2="325" y2="301.34" style="stroke:#333;stroke-width:2;"/><line x1="375" y1="296.34" x2="375" y2="301.34" style="stroke:#333;stroke-width:2;"/><line x1="425" y1="296.34" x2="425" y2="301.34" style="stroke:#333;stroke-width:2;"/><line x1="475" y1="296.34" x2="475" y2="301.34" style="stroke:#333;stroke-width:2;"/><line x1="525" y1="296.34" x2="525" y2="301.34" style="stroke:#333;stroke-width:2;"/><line x1="575" y1="296.34" x2="575" y2="301.34" style="stroke:#333;stroke-width:2;"/><line x1="625" y1="296.34" x2="625" y2="301.34" style="stroke:#333;stroke-width:2;"/><line x1="675" y1="296.34" x2="675" y2="301.34" style="stroke:#333;stroke-width:2;"/><line x1="725" y1="296.34" x2="725" y2="301.34" style="stroke:#333;stroke-width:2;"/><line x1="775" y1="296.34" x2="775" y2="301.34" style="stroke:#333;stroke-width:2;"/><line x1="825" y1="296.34" x2="825" y2="301.34" style="stroke:#333;stroke-width:2;"/><line x1="875" y1="296.34" x2="875" y2="301.34" style="stroke:#333;stroke-width:2;"/><line x1="925" y1="296.34" x2="925" y2="301.34" style="stroke:#333;stroke-width:2;"/><line x1="975" y1="296.34" x2="975" y2="301.34" style="stroke:#333;stroke-width:2;"/><line x1="1025" y1="296.34" x2="1025" y2="301.34" style="stroke:#333;stroke-width:2;"/><line x1="25" y1="296.34" x2="1025" y2="296.34" style="stroke:#333;stroke-width:2;"/><text x="21.7" y="314.098" fill="#333" font-size="11" font-family="monospace">0</text><text x="121.7" y="314.098" fill="#333" font-size="11" font-family="monospace">8</text><text x="218.4" y="314.098" fill="#333" font-size="11" textLength="13.2" font-family="monospace">16</text><text x="318.4" y="314.098" fill="#333" font-size="11" textLength="13.2" font-family="monospace">24</text><text x="468.4" y="314.098" fill="#333" font-size="11" textLength="13.2" font-family="monospace">36</text><text x="568.4" y="314.098" fill="#333" font-size="11" textLength="13.2" font-family="monospace">44</text><text x="668.4" y="314.098" fill="#333" font-size="11" textLength="13.2" font-family="monospace">52</text><text x="768.4" y="314.098" fill="#333" font-size="11" textLength="13.2" font-family="monospace">60</text><text x="868.4" y="314.098" fill="#333" font-size="11" textLength="13.2" font-family="monospace">68</text><text x="968.4" y="314.098" fill="#333" font-size="11" textLength="13.2" font-family="monospace">76</text><?plantuml-src PPB1Jjmm54Nt_ef7f54NqDHsGfAHMcbKIWKIXKt4td8UZ3MEdSOEqs7LZ-WNyYMrpGG6s4Nt-9qyo_Te6CLzBy2ZVIHUUOtmw_B79Jpz_GT-ZJ0AZx1LfhDRK0veNYnEG9WkmGwrs86sTlZam6uD_9w4ySe9hwnvFbur2-8soWnY57qOk1EJzZ-jyTUY3x-onhf1IEo8j4OgXv19RUN6mO0ZIDGw0-7Wx02733IQUxzEwEeTygh71DhsbJpWs2dfKtvBLfISnUtOajRaAdvbh80_mCeAlW5hbar6sZRb1Slhfe39PUGs1Ub6S2USpyYgcJsSllNKqRDaxDN3SqhfWQUzE8URw_CWOTLiAOgtbYPPU7beuQp-i8tJTXj4lFomJljzVhlZBv_ZsxseuY6mHkzcbJK83q9F64n5jGzJ5OGEVXSDFColod8F1V35NX_YKpx7NQ-yYrEX8oD6NqNtB9P6hb5ke5Fe8cbURb8iuEjpOK9UpnjibDOkbQsVV2XNO6WwjpEI49Ppogky-Gy0?></g></svg>