<svg xmlns="http://www.w3.org/2000/svg" xmlns:xlink="http://www.w3.org/1999/xlink" version="1.1" data-diagram-type="STATE" style="width:1554px;height:1580px;background:#FFFFFF;" width="1554px" height="1580px" viewBox="0 0 1554 1580" zoomAndPan="magnify" preserveAspectRatio="none" contentStyleType="text/css"><?plantuml 1.2026.8?><defs/><g font-family="sans-serif" lengthAdjust="spacing"><g class="title" data-source-line="1"><text x="467.301" y="24.966" fill="#000" font-size="14" textLength="613.197" font-weight="700" font-family="monospace">UART RTS/CTS — the handshake as firmware, and the invariant it guarantees</text></g><g class="entity" data-qualified-name="init" id="ent0001" data-source-line="26"><rect x="266.7" y="1060.878" width="231.198" height="94.909" fill="#F1F1F1" style="stroke:#181818;stroke-width:0.5;" rx="12.5" ry="12.5"/><line x1="266.7" y1="1145.787" x2="497.898" y2="1145.787" style="stroke:#181818;stroke-width:0.5;"/><text x="276.7" y="1077.637" fill="#000" font-size="11" textLength="26.4" font-family="monospace">init</text><text x="276.7" y="1092.619" fill="#000" font-size="11" textLength="145.199" font-family="monospace">LDI A, UTX / OUT TXPIN</text><text x="276.7" y="1107.601" fill="#000" font-size="11" textLength="178.199" font-family="monospace">TX idles HIGH, RTS RELEASED</text><text x="276.7" y="1122.582" fill="#000" font-size="11" textLength="211.198" font-family="monospace">(bits 4 and 8..: 8 payloads live</text><text x="276.7" y="1137.564" fill="#000" font-size="11" textLength="197.998" font-family="monospace">in dmem[8], dmem[9], dmem[10])</text></g><g class="entity" data-qualified-name="main" id="ent0002" data-source-line="27"><rect x="276.3" y="1216.778" width="151.999" height="64.946" fill="#F2F2F2" style="stroke:#808080;stroke-width:0.5;" rx="12.5" ry="12.5"/><line x1="276.3" y1="1271.724" x2="428.299" y2="1271.724" style="stroke:#808080;stroke-width:0.5;"/><text x="286.3" y="1233.537" fill="#303030" font-size="11" textLength="26.4" font-family="monospace">main</text><text x="286.3" y="1248.519" fill="#303030" font-size="11" textLength="131.999" font-family="monospace">LDM A,2 (bytes sent)</text><text x="286.3" y="1263.501" fill="#303030" font-size="11" textLength="112.199" font-family="monospace">SUB A,3 / JZ done</text></g><g class="entity" data-qualified-name="rts" id="ent0003" data-source-line="28"><rect x="429.1" y="1360.728" width="244.398" height="94.909" fill="#FBE9CF" style="stroke:#B8813A;stroke-width:0.5;" rx="12.5" ry="12.5"/><line x1="429.1" y1="1445.637" x2="673.498" y2="1445.637" style="stroke:#B8813A;stroke-width:0.5;"/><text x="439.1" y="1377.487" fill="#5A3D12" font-size="11" textLength="105.599" font-family="monospace">ASSERT RTS FIRST</text><text x="439.1" y="1392.469" fill="#5A3D12" font-size="11" textLength="171.599" font-family="monospace">LDI A, RTS|UTX / OUT TXPIN</text><text x="439.1" y="1407.451" fill="#5A3D12" font-size="11" textLength="224.398" font-family="monospace">the line is still idle, so nothing</text><text x="439.1" y="1422.432" fill="#5A3D12" font-size="11" textLength="158.399" font-family="monospace">has been transmitted yet</text><text x="439.1" y="1437.414" fill="#5A3D12" font-size="11" textLength="92.399" font-family="monospace">dmem[4] = 0x10</text></g><g class="entity" data-qualified-name="wait" id="ent0004" data-source-line="29"><rect x="327.3" y="107.648" width="283.998" height="109.891" fill="#DCEEE0" style="stroke:#4A8A5C;stroke-width:0.5;" rx="12.5" ry="12.5"/><line x1="327.3" y1="207.539" x2="611.298" y2="207.539" style="stroke:#4A8A5C;stroke-width:0.5;"/><text x="337.3" y="124.407" fill="#17452A" font-size="11" textLength="211.198" font-family="monospace">wait_cts — A POLL, NOT A TIMEOUT</text><text x="337.3" y="139.389" fill="#17452A" font-size="11" textLength="217.798" font-family="monospace">IN A,PIN / AND A,CTS / JNZ cts_go</text><text x="337.3" y="154.371" fill="#17452A" font-size="11" textLength="237.598" font-family="monospace">else dmem[3]++ and saturate at 0xFF:</text><text x="337.3" y="169.352" fill="#17452A" font-size="11" textLength="263.998" font-family="monospace">a real driver bounds this wait and gives</text><text x="337.3" y="184.334" fill="#17452A" font-size="11" textLength="224.398" font-family="monospace">up on a dead receiver; there is no</text><text x="337.3" y="199.316" fill="#17452A" font-size="11" textLength="112.199" font-family="monospace">retry policy here</text></g><g class="entity" data-qualified-name="fetch" id="ent0005" data-source-line="30"><rect x="270" y="326.268" width="224.598" height="94.909" fill="#F2F2F2" style="stroke:#808080;stroke-width:0.5;" rx="12.5" ry="12.5"/><line x1="270" y1="411.177" x2="494.598" y2="411.177" style="stroke:#808080;stroke-width:0.5;"/><text x="280" y="343.027" fill="#303030" font-size="11" textLength="191.398" font-family="monospace">fetch the payload by DISPATCH</text><text x="280" y="358.009" fill="#303030" font-size="11" textLength="197.998" font-family="monospace">LDS A,[X] is X-indexed with NO</text><text x="280" y="372.991" fill="#303030" font-size="11" textLength="204.598" font-family="monospace">offset, so dmem[8+index] is not</text><text x="280" y="387.972" fill="#303030" font-size="11" textLength="204.598" font-family="monospace">addressable: three compares and</text><text x="280" y="402.954" fill="#303030" font-size="11" textLength="204.598" font-family="monospace">three loads, not a table lookup</text></g><g class="entity" data-qualified-name="txs" id="ent0006" data-source-line="31"><rect x="201.5" y="482.178" width="257.598" height="79.928" fill="#DCE9F8" style="stroke:#4A6FA5;stroke-width:0.5;" rx="12.5" ry="12.5"/><line x1="201.5" y1="552.105" x2="459.098" y2="552.105" style="stroke:#4A6FA5;stroke-width:0.5;"/><text x="211.5" y="498.937" fill="#16324F" font-size="11" textLength="158.399" font-family="monospace">tx_start — 2 TIMER ticks</text><text x="211.5" y="513.919" fill="#16324F" font-size="11" textLength="211.198" font-family="monospace">RTS is re-asserted in the value:</text><text x="211.5" y="528.901" fill="#16324F" font-size="11" textLength="237.598" font-family="monospace">LDI A, RTS  (the start bit is TX low</text><text x="211.5" y="543.882" fill="#16324F" font-size="11" textLength="131.999" font-family="monospace">with RTS still high)</text></g><g class="entity" data-qualified-name="txl" id="ent0007" data-source-line="32"><rect x="84.8" y="623.108" width="250.998" height="94.909" fill="#DCE9F8" style="stroke:#4A6FA5;stroke-width:0.5;" rx="12.5" ry="12.5"/><line x1="84.8" y1="708.017" x2="335.798" y2="708.017" style="stroke:#4A6FA5;stroke-width:0.5;"/><text x="94.8" y="639.867" fill="#16324F" font-size="11" textLength="211.198" font-family="monospace">tx_loop — 8 data bits, LSB first</text><text x="94.8" y="654.849" fill="#16324F" font-size="11" textLength="197.998" font-family="monospace">AND A,1 / OR A,RTS / OUT TXPIN</text><text x="94.8" y="669.831" fill="#16324F" font-size="11" textLength="230.998" font-family="monospace">RTS stays high for the WHOLE frame:</text><text x="94.8" y="684.812" fill="#16324F" font-size="11" textLength="204.598" font-family="monospace">dropping it here would tell the</text><text x="94.8" y="699.794" fill="#16324F" font-size="11" textLength="224.398" font-family="monospace">receiver the line is free mid-byte</text></g><g class="entity" data-qualified-name="txp" id="ent0008" data-source-line="33"><rect x="108.8" y="779.018" width="184.999" height="79.928" fill="#DCE9F8" style="stroke:#4A6FA5;stroke-width:0.5;" rx="12.5" ry="12.5"/><line x1="108.8" y1="848.945" x2="293.799" y2="848.945" style="stroke:#4A6FA5;stroke-width:0.5;"/><text x="118.8" y="795.777" fill="#16324F" font-size="11" textLength="145.199" font-family="monospace">tx_stop — 2 more ticks</text><text x="118.8" y="810.759" fill="#16324F" font-size="11" textLength="92.399" font-family="monospace">LDI A, RTS|UTX</text><text x="118.8" y="825.741" fill="#16324F" font-size="11" textLength="164.999" font-family="monospace">TX high for the stop bit,</text><text x="118.8" y="840.722" fill="#16324F" font-size="11" textLength="118.799" font-family="monospace">RTS still asserted</text></g><g class="entity" data-qualified-name="rel" id="ent0009" data-source-line="34"><rect x="45.1" y="919.948" width="244.398" height="79.928" fill="#FBE9CF" style="stroke:#B8813A;stroke-width:0.5;" rx="12.5" ry="12.5"/><line x1="45.1" y1="989.875" x2="289.498" y2="989.875" style="stroke:#B8813A;stroke-width:0.5;"/><text x="55.1" y="936.707" fill="#5A3D12" font-size="11" textLength="164.999" font-family="monospace">RELEASE RTS, AND ONLY NOW</text><text x="55.1" y="951.689" fill="#5A3D12" font-size="11" textLength="224.398" font-family="monospace">the last stop bit has been clocked</text><text x="55.1" y="966.671" fill="#5A3D12" font-size="11" textLength="224.398" font-family="monospace">out, so the line is ours no longer</text><text x="55.1" y="981.652" fill="#5A3D12" font-size="11" textLength="224.398" font-family="monospace">OUT TXPIN with UTX, dmem[4] = 0x00</text></g><g class="entity" data-qualified-name="cnt" id="ent0010" data-source-line="35"><rect x="7" y="1083.328" width="224.598" height="50" fill="#F2F2F2" style="stroke:#808080;stroke-width:0.5;" rx="12.5" ry="12.5"/><line x1="7" y1="1123.292" x2="231.598" y2="1123.292" style="stroke:#808080;stroke-width:0.5;"/><text x="17" y="1100.087" fill="#303030" font-size="11" textLength="33" font-family="monospace">count</text><text x="17" y="1115.069" fill="#303030" font-size="11" textLength="204.598" font-family="monospace">dmem[1]++ index, dmem[2]++ sent</text></g><g class="entity" data-qualified-name="done" id="ent0011" data-source-line="36"><rect x="274.8" y="1383.188" width="118.999" height="50" fill="#F1F1F1" style="stroke:#181818;stroke-width:0.5;" rx="12.5" ry="12.5"/><line x1="274.8" y1="1423.152" x2="393.799" y2="1423.152" style="stroke:#181818;stroke-width:0.5;"/><text x="284.8" y="1399.947" fill="#000" font-size="11" textLength="26.4" font-family="monospace">done</text><text x="284.8" y="1414.929" fill="#000" font-size="11" textLength="98.999" font-family="monospace">dmem[12] = 0xA5</text></g><g class="entity" data-qualified-name="park" id="ent0012" data-source-line="37"><rect x="309.3" y="1516.638" width="50" height="50" fill="#F1F1F1" style="stroke:#181818;stroke-width:0.5;" rx="12.5" ry="12.5"/><line x1="309.3" y1="1541.62" x2="359.3" y2="1541.62" style="stroke:#181818;stroke-width:0.5;"/><text x="321.1" y="1533.397" fill="#000" font-size="11" textLength="26.4" font-family="monospace">park</text></g><g class="start_entity" data-qualified-name=".start." id="ent0013" data-source-line="25"><ellipse cx="382.3" cy="959.908" rx="10" ry="10" fill="#222" style="stroke:#222;stroke-width:1;"/></g><g class="entity" data-qualified-name="GMN30" id="ent0031" data-source-line="56"><path d="M838.8,77.918 L838.8,158.598 L611.67,162.598 L838.8,166.598 L838.8,247.272 A0,0 0 0 0 838.8,247.272 L1171.8,247.272 A0,0 0 0 0 1171.8,247.272 L1171.8,87.918 L1161.8,77.918 L838.8,77.918 A0,0 0 0 0 838.8,77.918" style="stroke:#181818;stroke-width:0.5;" fill="#FEFFDD"/><path d="M1161.8,77.918 L1161.8,87.918 L1171.8,87.918 L1161.8,77.918" style="stroke:#181818;stroke-width:0.5;" fill="#FEFFDD"/><text x="844.8" y="96.815" fill="#000" font-size="13" textLength="280.8" font-family="monospace">WHY ASSERT BEFORE WAIT. The receiver</text><text x="844.8" y="114.521" fill="#000" font-size="13" textLength="304.2" font-family="monospace">raises CTS IN RESPONSE to RTS. A driver</text><text x="844.8" y="132.227" fill="#000" font-size="13" textLength="312" font-family="monospace">that waited for CTS before asserting RTS</text><text x="844.8" y="149.933" fill="#000" font-size="13" textLength="296.4" font-family="monospace">would wait for ever on a receiver that</text><text x="844.8" y="167.639" fill="#000" font-size="13" textLength="304.2" font-family="monospace">only raises CTS when asked — a deadlock</text><text x="844.8" y="185.345" fill="#000" font-size="13" textLength="304.2" font-family="monospace">no amount of correct bit-banging fixes,</text><text x="844.8" y="203.051" fill="#000" font-size="13" textLength="273" font-family="monospace">and one a testbench that drives CTS</text><text x="844.8" y="220.757" fill="#000" font-size="13" textLength="304.2" font-family="monospace">low-then-high can make look like a hang</text><text x="844.8" y="238.463" fill="#000" font-size="13" textLength="288.6" font-family="monospace">rather than like an ordering mistake.</text></g><g class="entity" data-qualified-name="GMN33" id="ent0034" data-source-line="67"><path d="M1206.8,77.918 L1206.8,247.272 L1539.8,247.272 L1539.8,87.918 L1529.8,77.918 L1206.8,77.918" style="stroke:#181818;stroke-width:0.5;" fill="#FEFFDD"/><path d="M1529.8,77.918 L1529.8,87.918 L1539.8,87.918 L1529.8,77.918" style="stroke:#181818;stroke-width:1;" fill="#FEFFDD"/><text x="1212.8" y="96.815" fill="#000" font-size="13" textLength="312" font-family="monospace">THE SATURATION IS NOT COSMETIC. The loop</text><text x="1212.8" y="114.521" fill="#000" font-size="13" textLength="304.2" font-family="monospace">runs one iteration every six clocks, so</text><text x="1212.8" y="132.227" fill="#000" font-size="13" textLength="249.6" font-family="monospace">a receiver holding CTS low for a</text><text x="1212.8" y="149.933" fill="#000" font-size="13" textLength="265.2" font-family="monospace">millisecond wraps an 8-bit counter</text><text x="1212.8" y="167.639" fill="#000" font-size="13" textLength="296.4" font-family="monospace">several times over. Saturating at 0xFF</text><text x="1212.8" y="185.345" fill="#000" font-size="13" textLength="273" font-family="monospace">makes dmem[3] a statement about "it</text><text x="1212.8" y="203.051" fill="#000" font-size="13" textLength="304.2" font-family="monospace">waited, and at least this long" instead</text><text x="1212.8" y="220.757" fill="#000" font-size="13" textLength="288.6" font-family="monospace">of a residue — which is what the TB's</text><text x="1212.8" y="238.463" fill="#000" font-size="13" textLength="163.8" font-family="monospace">second case requires.</text></g><!--link *start* to init--><g class="link" data-entity-1="ent0013" data-entity-2="ent0001" id="lnk14" data-source-line="25" data-link-type="dependency"><path d="M382.3,970.068 C382.3,987.848 382.3,1023.138 382.3,1055.488" style="stroke:#181818;stroke-width:1;" fill="none" id="*start*-to-init"/><polygon points="382.3,1060.488,386.3,1051.488,382.3,1055.488,378.3,1051.488,382.3,1060.488" fill="#181818" style="stroke:#181818;stroke-width:1;stroke-linejoin:miter;stroke-miterlimit:10;"/></g><!--link init to main--><g class="link" data-entity-1="ent0001" data-entity-2="ent0002" id="lnk15" data-source-line="39" data-link-type="dependency"><path d="M372.23,1155.978 C367.94,1175.838 364.095,1193.62 360.235,1211.51" style="stroke:#181818;stroke-width:1;" fill="none" id="init-to-main"/><polygon points="359.18,1216.398,364.988,1208.444,360.235,1211.51,357.168,1206.757,359.18,1216.398" fill="#181818" style="stroke:#181818;stroke-width:1;stroke-linejoin:miter;stroke-miterlimit:10;"/></g><!--link main to rts--><g class="link" data-entity-1="ent0002" data-entity-2="ent0003" id="lnk16" data-source-line="40" data-link-type="dependency"><path d="M392.57,1282.008 C421.08,1304.488 455.854,1331.922 487.904,1357.192" style="stroke:#181818;stroke-width:1;" fill="none" id="main-to-rts"/><polygon points="491.83,1360.288,487.239,1351.574,487.904,1357.192,482.286,1357.857,491.83,1360.288" fill="#181818" style="stroke:#181818;stroke-width:1;stroke-linejoin:miter;stroke-miterlimit:10;"/><text x="452.8" y="1326.625" fill="#000" font-size="13" textLength="62.4" font-family="monospace">sent &lt; 3</text></g><!--link rts to wait--><g class="link" data-entity-1="ent0003" data-entity-2="ent0004" id="lnk17" data-source-line="41" data-link-type="dependency"><path d="M551.3,1360.488 C551.3,1329.278 551.3,1287.308 551.3,1250.258 C551.3,372.728 551.3,372.728 551.3,372.728 C551.3,317.158 528.3,263.029 505.77,222.079" style="stroke:#181818;stroke-width:1;" fill="none" id="rts-to-wait"/><polygon points="503.36,217.698,504.194,227.511,505.77,222.079,511.203,223.655,503.36,217.698" fill="#181818" style="stroke:#181818;stroke-width:1;stroke-linejoin:miter;stroke-miterlimit:10;"/></g><!--link wait to fetch--><g class="link" data-entity-1="ent0004" data-entity-2="ent0005" id="lnk18" data-source-line="42" data-link-type="dependency"><path d="M446.67,217.998 C432.72,251.518 416.951,289.442 403.641,321.432" style="stroke:#181818;stroke-width:1;" fill="none" id="wait-to-fetch"/><polygon points="401.72,326.048,408.87,319.275,403.641,321.432,401.484,316.202,401.72,326.048" fill="#181818" style="stroke:#181818;stroke-width:1;stroke-linejoin:miter;stroke-miterlimit:10;"/><text x="421.59" y="292.165" fill="#000" font-size="13" textLength="85.8" font-family="monospace">CTS is HIGH</text></g><!--link wait to wait--><g class="link" data-entity-1="ent0004" data-entity-2="ent0004" id="lnk19" data-source-line="43" data-link-type="dependency"><path d="M611.66,141.588 C632.35,144.918 646.3,151.928 646.3,162.598 C646.3,173.268 637.286,179.471 616.596,182.811" style="stroke:#181818;stroke-width:1;" fill="none" id="wait-to-wait"/><polygon points="611.66,183.608,621.182,186.122,616.596,182.811,619.908,178.225,611.66,183.608" fill="#181818" style="stroke:#181818;stroke-width:1;stroke-linejoin:miter;stroke-miterlimit:10;"/><text x="652.3" y="167.995" fill="#000" font-size="13" textLength="163.8" font-family="monospace">CTS is LOW, dmem[3]++</text></g><!--link fetch to txs--><g class="link" data-entity-1="ent0005" data-entity-2="ent0006" id="lnk20" data-source-line="44" data-link-type="dependency"><path d="M365.7,421.458 C358.81,440.878 352.561,458.446 345.971,477.026" style="stroke:#181818;stroke-width:1;" fill="none" id="fetch-to-txs"/><polygon points="344.3,481.738,351.078,474.593,345.971,477.026,343.539,471.919,344.3,481.738" fill="#181818" style="stroke:#181818;stroke-width:1;stroke-linejoin:miter;stroke-miterlimit:10;"/></g><!--link txs to txl--><g class="link" data-entity-1="ent0006" data-entity-2="ent0007" id="lnk21" data-source-line="45" data-link-type="dependency"><path d="M298.14,562.378 C282.94,580.938 267.84,599.361 251.91,618.791" style="stroke:#181818;stroke-width:1;" fill="none" id="txs-to-txl"/><polygon points="248.74,622.658,257.539,618.234,251.91,618.791,251.353,613.162,248.74,622.658" fill="#181818" style="stroke:#181818;stroke-width:1;stroke-linejoin:miter;stroke-miterlimit:10;"/></g><!--link txl to txl--><g class="link" data-entity-1="ent0007" data-entity-2="ent0007" id="lnk22" data-source-line="46" data-link-type="dependency"><path d="M336.13,657.038 C356.68,658.978 370.8,663.488 370.8,670.568 C370.8,677.648 361.658,681.678 341.108,683.618" style="stroke:#181818;stroke-width:1;" fill="none" id="txl-to-txl"/><polygon points="336.13,684.088,345.466,687.224,341.108,683.618,344.714,679.26,336.13,684.088" fill="#181818" style="stroke:#181818;stroke-width:1;stroke-linejoin:miter;stroke-miterlimit:10;"/><text x="376.8" y="675.965" fill="#000" font-size="13" textLength="132.6" font-family="monospace">dmem[6]--, 8 bits</text></g><!--link txl to txp--><g class="link" data-entity-1="ent0007" data-entity-2="ent0008" id="lnk23" data-source-line="47" data-link-type="dependency"><path d="M207.43,718.298 C206.23,737.708 205.166,755.007 204.026,773.577" style="stroke:#181818;stroke-width:1;" fill="none" id="txl-to-txp"/><polygon points="203.72,778.568,208.264,769.83,204.026,773.577,200.279,769.34,203.72,778.568" fill="#181818" style="stroke:#181818;stroke-width:1;stroke-linejoin:miter;stroke-miterlimit:10;"/></g><!--link txp to rel--><g class="link" data-entity-1="ent0008" data-entity-2="ent0009" id="lnk24" data-source-line="48" data-link-type="dependency"><path d="M191.65,859.418 C187.01,878.358 182.668,896.111 178.048,914.991" style="stroke:#181818;stroke-width:1;" fill="none" id="txp-to-rel"/><polygon points="176.86,919.848,182.885,912.057,178.048,914.991,175.114,910.155,176.86,919.848" fill="#181818" style="stroke:#181818;stroke-width:1;stroke-linejoin:miter;stroke-miterlimit:10;"/></g><!--link rel to cnt--><g class="link" data-entity-1="ent0009" data-entity-2="ent0010" id="lnk25" data-source-line="49" data-link-type="dependency"><path d="M154.44,1000.148 C145.77,1026.578 136.178,1055.847 128.788,1078.387" style="stroke:#181818;stroke-width:1;" fill="none" id="rel-to-cnt"/><polygon points="127.23,1083.138,133.835,1075.832,128.788,1078.387,126.233,1073.34,127.23,1083.138" fill="#181818" style="stroke:#181818;stroke-width:1;stroke-linejoin:miter;stroke-miterlimit:10;"/></g><!--link cnt to main--><g class="link" data-entity-1="ent0010" data-entity-2="ent0002" id="lnk26" data-source-line="50" data-link-type="dependency"><path d="M160.15,1133.688 C198.65,1156.648 252.285,1188.617 294.465,1213.767" style="stroke:#181818;stroke-width:1;" fill="none" id="cnt-to-main"/><polygon points="298.76,1216.328,293.078,1208.283,294.465,1213.767,288.981,1215.154,298.76,1216.328" fill="#181818" style="stroke:#181818;stroke-width:1;stroke-linejoin:miter;stroke-miterlimit:10;"/></g><!--link main to done--><g class="link" data-entity-1="ent0002" data-entity-2="ent0011" id="lnk27" data-source-line="51" data-link-type="dependency"><path d="M347.32,1282.118 C345.91,1291.628 344.46,1302.088 343.3,1311.728 C340.4,1335.858 338.301,1358.526 336.671,1377.836" style="stroke:#181818;stroke-width:1;" fill="none" id="main-to-done"/><polygon points="336.25,1382.818,340.993,1374.186,336.671,1377.836,333.021,1373.513,336.25,1382.818" fill="#181818" style="stroke:#181818;stroke-width:1;stroke-linejoin:miter;stroke-miterlimit:10;"/><text x="344.3" y="1326.625" fill="#000" font-size="13" textLength="70.2" font-family="monospace">sent == 3</text></g><!--link done to park--><g class="link" data-entity-1="ent0011" data-entity-2="ent0012" id="lnk28" data-source-line="52" data-link-type="dependency"><path d="M334.3,1433.598 C334.3,1457.208 334.3,1487.788 334.3,1511.348" style="stroke:#181818;stroke-width:1;" fill="none" id="done-to-park"/><polygon points="334.3,1516.348,338.3,1507.348,334.3,1511.348,330.3,1507.348,334.3,1516.348" fill="#181818" style="stroke:#181818;stroke-width:1;stroke-linejoin:miter;stroke-miterlimit:10;"/></g><!--link park to park--><g class="link" data-entity-1="ent0012" data-entity-2="ent0012" id="lnk29" data-source-line="53" data-link-type="dependency"><path d="M359.58,1532.248 C377.07,1529.398 394.3,1532.528 394.3,1541.638 C394.3,1550.748 382.005,1554.682 364.515,1551.832" style="stroke:#181818;stroke-width:1;" fill="none" id="park-to-park"/><polygon points="359.58,1551.028,367.82,1556.423,364.515,1551.832,369.106,1548.527,359.58,1551.028" fill="#181818" style="stroke:#181818;stroke-width:1;stroke-linejoin:miter;stroke-miterlimit:10;"/><text x="400.3" y="1547.035" fill="#000" font-size="13" textLength="62.4" font-family="monospace">JMP park</text></g><!--link wait to GMN33--><g class="link" data-entity-1="ent0004" data-entity-2="ent0034" id="lnk35" data-source-line="67" data-link-type="association"><path d="M611.4,114.848 C679.36,94.458 762.39,73.038 838.8,62.918 C912.16,53.198 1099.74,46.068 1171.8,62.918 C1187.38,66.558 1203.14,71.598 1218.62,77.478" style="stroke:#181818;stroke-width:1;stroke-dasharray:7,7;" fill="none" id="wait-GMN33"/></g><?plantuml-src TLVjRXf95ltVJt6L_1Xx0pRu8qkyIIJiu3KZ6op0YcU2PHNTrL1oKyLs5S7ip4hx4Fk4-oHxxgt6nauM95JLTR_lkQUQO4AXwQOz6D5WDDm_6mtfl__-3uMPffcocP-f1qtAKsxA-KgLkaPuAiV6VbUbKJQG2JHTgX9BhNto2mtTiaorFtbIsiTfkCyBjzfRQDfXxOKhYfhOoOnVg93Eucu2OuLpYzqQ33rzmcG_JEuN-jwxzFxPsFTewpcIkRCck3AQQlMQLEfKc--wV6aDXs7bA5LU-rq8ErVu_Norlz3Ap_SMQzgv6TtktmnkzwkQr6ZKlUeCTc7bsbYQgqLqWVAKEgDMdSDUk3ASI08D6jtIZbk6NPBz8GsmDtPtEuh_ys7v8-v5PO3tnyHzgGnSbsvQgla9BTIwS2gZncEZWP_pS_oqZslah1Rz75BeNUcMw9XMwOmcww0J_s3i0jsQKwPpjIp2kREXnw9NpZhq8jNPbf0FAcZw8o5YkQ7vfwPc4xjJbJvCnVQPArpvyMDu_FmPyR_DKlqXRx64ApDTlZpbpziZzJvNnvN57yyXqNn_U72K_ypBp4Sl-KH_IFFNNgfJiJ5fjPg7wgMNhND87Al3h7dmCoyhPG8aEHUj6w-zLATLBYrrdBxqidNEkVprwFX0_SpBn4dIR_C3_hxsKfsAZLQ3lo-zR9r3uh31t-HVIVBjBtTKht_6L9YGnEwzuVNONdxfKhj6m3RjK_zc19HUTtjZYxt92ktfelltYvfWPz2vxBI7dIzZkmC0UY2InxwrjtT2hGtmF1KOhR75G6HpFV_Mkgl5nOVDejcustt3xB4TormPox5S8PO3sc5CUlBQXjsn7TwSukaXmllrTye0PD5c3QeItbXf3uUTo5bqtXqCHq_PuScVFsJ8ireOp8M1gs2AGXAkaNTaNPWPEntR6JnDjBOKm6H-RaB0PAyrwYQv7DtH9mnOio4XbQX9XDCc86xwVOh7J9zjkkvVNjQernzXpTo1OCQssqE420Z1jNjViEQnHgwztmcQzrCtjhhmEXRlyExTEwcwLs5PiWyLPCnFnbQ1s5H1MSdSHXF6b0SX8JiEGxIcEF9Zkro03qXXri4K6pRy6vDNATMmy5dgKAwPaKsw9ZwG5CNI1ioRB7CDfXRgsx3FP4rVkiFhzkZiWdimH5RVRk_Oz6tTs4m_eeeh4sQenTYwFFSwIDqZPDw9o5sC1ALMMLPgxzMaq2TmKsfDgPk3YO0HPCMTv6S2lngh8BN0qdnfF2mN4daCyXLWmkCzLcMG_Xn4FgTWqWSKYL6424fTLzxhaXiFn76MtrMnr2VRuA9uvqHRJCvG1Dnm7OsjvCao4MCpCvr5_8T7Xaju6GvVSn9DYp8L51j3JfV3KxutFOeHCT9aA0-m60XOjb0TFQcr5q-Kkr9Y_dhHl-n4zaVaMUaM2m2SRsbf-iej2zpW6W52chiVGK7RGv9pbUScg_DuLYaKFwRWGvN20QvUsAxg-N8KXM1UH2XgIBUsoO6hjIbzvMtnobl5I6oq9jFJxrt-1b1zhQPR-V1abvvcEIrS-g216zob0hlj9F6Qmh13x-nKbsFxLDe8M8HUyLWr-urgzdNnQlPJ3E269veyjeBgIlc07p2_YN9gmsjaCizjb0-Yf_Qn2FF9HWepy20FUP4apAX2yqoEYJ0axvYNJiGRVQJ3XBVyc8SuaO7cNPoF4tcfC97rdmzbyNHssVzQUwQZ96go612TCAhZkaWO7jKQsgBn_gvUhm7SZEkjyqN2pPLWTP5mCNcDkYHScnzJuY9iSlhq2Kd90pwHIl3FqmvolrvTLoK2EsWgWRj0Beyb80p7RrJT7QUTy_wWGr_RtT4UZO2BpIH0h5G6xuPI1S1Xq1bUzti0Nt2ClprmUgJUX5ycGSji7AJ1-6QLYSvv6YAYUVQW1D4uUL9WbjGyT4BEMoEeE4XdY_Ls2AiPeAmyW2p35jcSaGrPu5VD6N-SPEfAs19Uga-KdRBlt3ngNuCatmfSEZ2czc6YhJ0vefTSn1EaG6Hr38cjoyIcYjzs7oAzOd3upm3_CPXAZVWMOHEsEh4aBp3iTMw0smUzbsXuvKxyl1sZYmuDswERGNlKxVUeEvGhywm_lEgCkcUnBSoJx6vflSIFKiErGUMuWclovZ7EkUS9vqIV2pfpHSRXS1MHcTITtyNcO1oKDtM8RbMg1TykrMky3BEqrhDzNBF1p54UXyqU3UDbp3QhwvYj8LE_6HEubv6TCs0LxkQ0zo_EDO8a_e62Rg6PikJIPW9w0zBm0Ntb_kUIWpVPKal7LpE3Pl7rplrY3XkT_k8bH4c1_yb0uHzB0wtdclyF?></g></svg>